<svg xmlns="http://www.w3.org/2000/svg" width="974.693" height="1408.101" viewBox="0 0 731.019 1056.076"><path fill="none" stroke="#aaa" stroke-linejoin="round" stroke-miterlimit="10" stroke-width="8.504" d="M571.572 16.86c2.64.283 1.493 3.052 2.596 4.011 7.233 1.561 14.692 4.85 21.691 5.423 3.125 1.611 8.617 2.26 12.261 4.786 2.444-.729 3.77 1.09 4.594 1.296-3.456-.208-7.774.973-7.715 3.248-1.836 2.793-4.297 3.62-8.969 5.789-5.898 4.105-10.522.548-17.71-2.376-4.453-4.561-12.831-1.425-13.274.237-.236 3.642-7.167 3.243-1.48 4.57-3.617 2.517-8.679.606-8.606 5.74-4.957 2.143-1.178 5.337-5.383 7.081-3.876 3.894 1.824-1.743.43 1.86-5.355 1.481 3.163 8.864-3.723 7.76-4.972.293-9.076 4.548-13.883-.507-3.003-.066-7.372-5.846-8.263-.403-.443 3.336 4.31 7 3.645 10.25.057 8.324-9.428 6.093-15.863 7.233-2.115 5.021-1.555 9.013-3.356 14.59-4.503 3.604-.507 3.206.202 3.453-1.862 2.225.123 6.227 2.13 5.777-2.444 3.502-7.467 5.778-6.017 11.046-1.072 1.433 1.542 5.447-.89 8.074 3.274 2.305-3.304.978-2.05 2.249 2.423 1.287 4.591 5.363 4.515 9.687-1.502 1.098 2.037 5.113-2.895 5.23 7.312-1.128-4.198 4.201-1.188 8.075-4.622-1.562-2.408 4.873-6.54 3.961-2.091 2.074 2.08 6.323-2.375 6.545-2.56.824.339 2.9-2.494 3.853-2.501 1.222 1.672 5.057-2.374 4.46-.347-3.31-5.205 3.416-4.017 5.48-2.298 4.161-.986 10.745-7.004 9.91-3.023.2-8.237 2.94-12.875 1.207-5.107.595-8.222 7.5-4.437 8.883-1.242.408-3.825 8.747-.7 8.774-1.644.371-2.249 2.591-.108 4.171 2.083.267 1.906 2.669 2.367 3.51-1.012 4.543-6.027 5.89-8.383 8.806-.332 1.107 1.314 4.347 2.008 6.583-3.138 4.032-9.382 2.084-13.318 3.19-1.063-1.42-6.626 2.048-3.78-1.78-1.414-.01-7.333-.378-8.544.992-6.31-1.898-2.953-7.874-9.66-8.551-3.686-3.752-7.034-2.333-8.344-7.363-4.102-1.353-4.289-5.59-4.378-8.874-2.323-1.944-3.237-.443-7.102-1.317-2.248-.136-3.02 2.169-2.051 4.254-3.125 1.015-4.215 3.91-7.559 2.991-2.693 5.702-12.742 9.623-16.875 4.152.875-5.891-8.5-4.383-9.934-8.625-5.649-.33-.688-5.879-1.343-9.433-3.065-3.297 2.139-8.113-.195-11.375 1.564-2.05 3.349-1.614 2.562-2.891 2.273-1.773-1.546-4.547.965-6.082-1.681-4.444-6.989-1.635-7.179-5.52 4.04-1.693-4.297-3.06.97-3.883 1.298-2.505 2.496-3.16 5.898-3.34-2.22-3.275-6.33-3.74-7.876-7.336-5.849-4.529 5.787 4.326 1.442-.953-7.804-3.19-15.754-10.623-23.524-11.46.393 4.478-6.133 7.407-4.676 10.906-4.201.497-9.754 1.472-11.41 7.065-.39 2.605.29 3.855-1.88 6.387 4.063 1.657 1.22 3.79-1.305 4.238 3.771 4.07-6.782-.152-5.765 3.677-6.252 2.218-13.135 5.646-18.09 9.222-4.61-2.85-8.297-1.042-13.898-.52-3.619-1.847-5.837-3.636-2.438-6.532.305-4.178-5.624-2.233-8.968-3.25-2.646 1.518-10.415-2.645-7.669 3.136-3.791 2.87-7.291 2.085-13.402.285.52-2.718-2.512-6.582-4.7-8.652-8.015.579-14.24 5.508-20.821 8.417-4.651.78-8.008-4.956-11.356-2.856-4.962-3.394-12.726.82-17.187-3.285-3.395.657-4.496 5.543-10.418 4.18-2.081.84-4.997.97-2.894 2.407-2.144.479-4.2-6.364-7.328-.953-5.681-.587-12.975 1.476-11.441 8.809 1.624 2.75-4.173 1.315-4.047.091.754-4.26-6.531-.022-6.853-4.501-.812 1.09-3.507.247-5.726.223-2.007 3.532-5.372-1.142-2.489 1.7 2.51-2.124 5.402-1.367 7.5-3.501 1.106 3.296 10.94.723 11.649 2.45 1.976 5.48-6.064 11.457-6.887 13.667-4.042-1.787.643 5.41-1.906 5.218 2.191 1.415 1.918 6.423 4.304 8.527-1.134 3.17 3.014 6.458-.554 9.542-2.479 2.954-4.827 6.408-9.106 4.992-3.449 1.788-6.551-2.128-10.89.209-3.437-.746-4.552 3.123-5.852 4.66 1.458 2.374 1.126 4.042.543.797-1.925-2.232 2.15-2.145 1.656-4.293 3.267-1.937 9.02-2.568 11.813-.755 2.6-.622 6.709.738 7.035.531 2.498 1.472 6.635.658 2.848 3.543-2.421 2.497-4.39 8.236-4.09 9.357-4.146 2.548-5.579 5.955-10.32 7.422-.308 2.095 1.404 2.692.84 3.242 4.25.904 5.485 5.447 8.882 6.78 3.232-1.06 4.926 4.484 8.242 5.054 4.14 3.407 12.326.603 13.965 6-5.615 7.617-15.087 9.503-21.156 14.547-5.466.157-12.986 2.853-10.894 8.106-3.069 2.835-11.11.112-7.993 7.203 2.645 4.43-8.573 7.995-5.273 11.07 3.24 2.807 5.313 7.523 6.043 10.332 3.751 3.647 9.09 8.161 8.969 13.899 1.171 1.855.548 5.838-3.16 4.168-2.99-2.08-3.606 4.663.246 4.768 3.006 1.391 6.575 3.422 9.195 2.676.557 2.8 4.338 4.892 3.312 8.668.647 3.588.143 7.239-.574 10.4.939 1.617-4.412 3.499-1.715 5.046.74-.703-1.237 4.324.907 5.649.175 2.97 4.448 6.409.172 8.112-.162 2.373 2.552 5.054 1.105 5.21-3.013 3.483-1.509 8.53 3.66 8.438 3.638 3.798-6.083 6.034-6.629 9.578-2.045 5.754 6.686 7.378 8.36 12.117 3.837 3.27-2.146 7.628-2.899 7.86 4.55 1.05 9.373 3.048 13.531 5.269-2.078 4.739-10.991 8.297-4.984 13.754-1.941 1.768-3.677 3.203-.613 2.851.555-3.374 4.08-2.495 3.82-1.164 3.111-.013 3.705 8.36 6.524 6.977-4.857 4.034-5.02 7.498 1.32 8.561-2.661 2.64 2.672 2.94 2.703 6.691.656 3.822 4.474 2.272 3.813 5.015 2.666 2.81-4.858.507-5.41 3.84-2.09 2.155-.824 4.328-2.497 6.176.412 2.249-4.352-4.42-2.387-2.575.268 2.547-5.003.42-4.02 5.051.111 2.78 1.645 6.913-.71 7.223.417 2.353-.598 3.666-2.387 3.23-2.239 1.502-2.386 4.325-2.316 5.073-3.266 2.68-6.905 4.366-8.715 8.605-1.055 1.503-1.744 6.238-2.988 5.567-.177-3.846-2.025-4.776-.5-.629 1.029 3.84-6.318 4.707-6.274 5.075.428 3.042-3.476 6.708-5.367 9.043 1.728 2.416-6.176 1.993-3.894 6.368-2.824-.352-3.415 1.631-4.192 4.269-.147 1.322 2.27 1.44.817 4.004 1.07 2.045 4.467-1.689 3.402 2.192-.45 2.794 1.893 4.117 3.77 6.276-1.043 3.361 3.086 6.441 2.023 10.07 4.874 2.58 1.532 9.312-2.094 12.253-1.898 3.218-7.694 1.016-7.945 5.601 5.747.913-3.672 8.333-4.629 10.727-3.132 1.343-4.11 1.786-6.816 4.285-4.363-2.188.956 2.011 2.105 1.546-1.563 6.12-1.98 9.778 1.14 14.652 1.38 2.152 2.003 6.146.536 8.972-2.292.956-5.75 2.967-5.625 4.313 5.453 2.04-2.434 6.502-2.992 6.558.403 4.782.568 13.695-5.578 14.09-7.05.576-6.385 9.663-7.114 12.723.394 1.317-3.01 3.53-3.469 3.082 2.21 2.654-3.616 6.415-.718 9.196 4.49.094 2.118 7.18 4.238 10.37-4.43 7.258 13.249 8.975 5.816 14.836-2.922 2.924-2.577 9.538-6.11 12.207-2.427.17-5.93 1.354-1.577.168 4.039-.297.293-1.052 1.789 1.649 3.105.582 5.598 4.535 9.637 3.012 5.74-1.143 6.588 3.467 7.363 7.453 4.629 2.173 6.121 7.723 5.336 11.008-4.217.784.498 2.444-3.61 2.93 3.925 4.492.865 9.259 2.88 14.05-1.26 4.093-3.913 7.107-.934 11.313 1.99 1.473 2.46 3.575 2.3 5.288 1.968-.069 3.1 3.809 6.254.32 4.112-4.425 7.671 1.912 5.867 5.754 2.171 2.501 3.216.097 3.41 2.324 5.313-.608 7.364 3.24 7.438 6.805 7.543 2.365 10.17 12.7 17.367 10.9 1.091 3.16-1.748 2.55-4.035 1.318-1.727.11-5.14-.304-1.285.912 4.253.987-5.395 1.079-1.32 5.945-1.211 2.137-1.237 8.964-2.594 11.801-2.722 2.58-7.58 3.397-9.101 4.004-4.448 3.259-12.444-2.797-13.266 5.145-3.875 2.178-7.709 6.9-11.387 10.394-5.151 1.619-10.057 3.482-12.586 6.227-4.585-.671-16.897.19-19.59-.219 2.739 6.379-3.121 8.193-7.437 7.363-3.448.36-7.243-2.379-7.664 2.363 2.651 4.85 9.862 4.717 12.59 8.719-1.592 5.345 7.508 6.463 9.59 8.538 1.524 3.651-1.454 1.47-3.07 2.513 9.43 1.201-3.834-1.505 1.21.52.894 1.353 2.599 2.095 2.215 5.763-2.607 1.74-4.666 4.639-7.336 6.312-1.23 1.152-6.395 6.105-4.734 10.628-3.885 4.89-1.341 11.206.015 15.455-1.014 2.065 2.616 5.338 1.14 6.064 3.142 2.002 4.673 3.59 1.481 7.199.943 8.407 13.609 2.094 15.454 9.75-.823 4.964-3.436 12.237 3.921 13.25 3.657 5.022 11.07-.69 13.387 7.043 7.292 7.403 14.987 15.17 16.34 25.664 2.367 5.912 3.323 16.516 4.781 20.043-2.805 1.03-5.346 2.86-3.968 3.922-2.456 2.086-9.664 1.249-2.836 5.441 7.878.703 12.722 6.484 17.984 9.352 6.682 4.428 16.58 5.064 23.652 8.637 1.811 4.359-1.47-3.98-4.606-1.79-7.151-2.844-17.629-4.18-22.14-8.87-3.457-2.608-5.795-7.272.73-8.72 5.098-3.9 15.1-7.689 12.176-15.417 2.59-3.924-.324-1.9 1.07-1.27 2.51 3.578 8.115-.575 12.481-.914 2.69-1.665 7.927-1.506 7.75-3.879 4.656 1.76 9.37 7.298 11.395 9.871 2.988-2.393 6.845 5.491 3.81 6.278 4.381-.267 12.594.998 11.34 6.234 3.547 3.991 8.163-.358 12.086 2.492 4.93.234 9.872 1.451 14.094-1.027 3.216.024 2.054 4.128 6.321 3.312 6.42 1.431 14.005-2.606 18.289 1.086 5.206 3.295 13.679 2.679 17.211 3.367 2.313 1.636 6.062-1.338 8.423-.207-.293 3.186 6.322-.029 8.71.094 3.655.043 5.272-1.422 7.48-3.402 2.88-.245 5.394.804 6.055-1.125 3.565-1.557 3.378 3.442 6.55 3.117-1.387 2.498 1.933 2.688 3.868 2.817 1.597.911 3.41 2.809 3.73 3.421 2.274 1.655 2.071 3.169 5.185 2.938 3 .46 6.44.953 7.77 3.797 1.854.528 4.904 5.4 2.82 4.5 3.029 2.52 3.584 6.021 6.718 8.856 1.041-.01 4.358-.169 5.629 2.171 2.08 2.66 2.196 2.063 4.966 1.567"/><g transform="translate(70.08 16.806)"><circle cx="96.151" cy="174.32" r="15" fill="#555"/><text x="121.813" y="180.941" stroke-width=".75" font-family="sans-serif" font-size="24" style="line-height:1.25"><tspan x="121.813" y="180.941">Lyon</tspan></text></g><g transform="translate(518.175 -142.171)"><circle cx="96.151" cy="174.32" r="15" fill="#555"/><text x="121.813" y="180.941" stroke-width=".75" font-family="sans-serif" font-size="24" style="line-height:1.25"><tspan x="121.813" y="180.941">Genève</tspan></text></g><g transform="translate(255.351 866.756)"><circle cx="96.151" cy="174.32" r="15" fill="#da001c"/><text x="121.813" y="180.941" stroke-width=".75" font-family="sans-serif" font-size="24" style="line-height:1.25"><tspan x="121.813" y="180.941">Marseille</tspan></text></g><g transform="matrix(-1 0 0 1 271.169 846.88)"><circle cx="96.151" cy="174.32" r="15" fill="#555"/><text x="-122.997" y="180.941" stroke-width=".75" font-family="sans-serif" font-size="24" style="line-height:1.25" transform="scale(-1 1)"><tspan x="-122.997" y="180.941" text-anchor="end">Port St-Louis</tspan></text></g><g transform="translate(57.283 646.504)"><circle cx="96.151" cy="174.32" r="15" fill="#555"/><text x="121.813" y="180.941" stroke-width=".75" font-family="sans-serif" font-size="24" style="line-height:1.25"><tspan x="121.813" y="180.941">Avignon</tspan></text></g><g transform="translate(33.176 429.699)"><circle cx="96.151" cy="174.32" r="15" fill="#555"/><text x="121.813" y="180.941" stroke-width=".75" font-family="sans-serif" font-size="24" style="line-height:1.25"><tspan x="121.813" y="180.941">Montélimar</tspan></text></g><g transform="translate(88.265 302.923)"><circle cx="96.151" cy="174.32" r="15" fill="#555"/><text x="121.813" y="180.941" stroke-width=".75" font-family="sans-serif" font-size="24" style="line-height:1.25"><tspan x="121.813" y="180.941">Valence</tspan></text></g><g transform="translate(239.482 -37.358)"><circle cx="96.151" cy="174.32" r="15" fill="#555"/><text x="121.813" y="180.941" stroke-width=".75" font-family="sans-serif" font-size="24" style="line-height:1.25"><tspan x="121.813" y="180.941">Lagnieu</tspan></text></g><g transform="translate(-1.595 730.951)"><circle cx="96.151" cy="174.32" r="15" fill="#555"/><text x="121.813" y="180.941" stroke-width=".75" font-family="sans-serif" font-size="24" style="line-height:1.25"><tspan x="121.813" y="180.941">Arles</tspan></text></g><circle cx="96.151" cy="174.32" r="15" fill="#41ba00" transform="matrix(-1 0 0 1 667.805 -159.32)"/></svg>