<svg xmlns="http://www.w3.org/2000/svg" width="16" height="16"><g stroke="#000"><rect width="12" height="12" x="2" y="2" fill="none" stroke-width="1.5" rx="2"/><g stroke-width=".25"><path fill="#4e79a7" d="M6 2v4H2V4a2 2 0 0 1 2-2Z"/><path fill="#f28e2c" d="M6 2h4v4H6Z"/><path fill="#e15759" d="M14 6h-4V2h2a2 2 0 0 1 2 2z"/><path fill="#76b7b2" d="M2 6h4v4H2Z"/><path fill="#59a14f" d="M6 6h4v4H6Z"/><path fill="#edc949" d="M10 6h4v4h-4Z"/><path fill="#af7aa1" d="M2 10h4v4H4a2 2 0 0 1-2-2Z"/><path fill="#ff9da7" d="M6 10h4v4H6Z"/><path fill="#9c755f" d="M10 14v-4h4v2a2 2 0 0 1-2 2z"/></g></g></svg>