<?xml version="1.0" encoding="UTF-8"?>
<svg width="163.15mm" height="85.949mm" version="1.1" viewBox="0 0 163.15457 85.949493" xmlns="http://www.w3.org/2000/svg" xmlns:xlink="http://www.w3.org/1999/xlink"><defs><linearGradient id="a"><stop stop-color="#121212" offset="0"/><stop stop-color="#fbfbfb" offset="1"/></linearGradient><linearGradient id="e" x1="-21.176" x2="78.509" y1="260.2" y2="219.41" gradientTransform="translate(9.5e-5 -.26316)" gradientUnits="userSpaceOnUse" xlink:href="#a"/><linearGradient id="d" x1="78.971" x2="-89.643" y1="248.92" y2="264.21" gradientTransform="translate(-2.6495e-4,-1.6595e-4)" gradientUnits="userSpaceOnUse" xlink:href="#a"/><linearGradient id="c" x1="62.681" x2="156.85" y1="260.07" y2="215.83" gradientTransform="translate(1.91e-4,2.59e-4)" gradientUnits="userSpaceOnUse" xlink:href="#a"/><linearGradient id="b" x1="155.47" x2="7.6083" y1="228.03" y2="302.23" gradientTransform="translate(-5.87e-6,3.128e-5)" gradientUnits="userSpaceOnUse" xlink:href="#a"/></defs><g transform="translate(3.6808 -199.56)" shape-rendering="auto"><path d="m136.6 232.13c0.90659 2.4857 1.3602 5.134 1.3601 7.782 0 5.3197-1.8273 10.639-5.4901 14.629-3.6628 3.9905-9.1606 6.6458-16.469 6.6368-6.6653-8e-3 -12.486-3.8474-18.078-9.5705-2.2007-2.2521-4.3796-4.8295-6.5598-7.5732-0.0973 0.12778-0.19468 0.25364-0.29198 0.38189 3.4152 4.5002 6.7934 8.7976 10.215 12.299 5.5696 5.6997 11.325 9.4819 17.889 9.4899 7.244 9e-3 12.66-2.614 16.273-6.5505 3.6133-3.9365 5.424-9.1923 5.424-14.451 2e-5 -4.6652-1.4285-9.3279-4.2726-13.073z" color="#000000" color-rendering="auto" dominant-baseline="auto" fill="url(#b)" image-rendering="auto" solid-color="#000000" style="font-feature-settings:normal;font-variant-alternates:normal;font-variant-caps:normal;font-variant-ligatures:normal;font-variant-numeric:normal;font-variant-position:normal;isolation:auto;mix-blend-mode:normal;shape-padding:0;text-decoration-color:#000000;text-decoration-line:none;text-decoration-style:solid;text-indent:0;text-orientation:mixed;text-transform:none;white-space:normal"/><path d="m113.24 200.14c-0.16212 0.0116-0.32247 0.0272-0.48369 0.0408 0.16236-0.0137 0.32404-0.0291 0.48731-0.0408-1e-3 9e-5 -2e-3 -8e-5 -4e-3 0zm2.7606 0.16691c-9.888-0.01-18.125 3.7715-25.344 9.4609-5.7715 4.9721-9.8999 9.24-14.173 14.483 0.44633 1.6269 2.1116 2.5893 3.0964 3.8535 0.14536 0.18684 0.30447 0.38175 0.4532 0.56017 4.1896-5.0879 8.6674-9.8971 13.635-13.813 7.2507-5.7148 15.55-9.5273 25.506-9.5172 13.262 0.0135 23.226 5.0021 29.865 12.478 0.49376 0.55606 0.96719 1.1275 1.4242 1.71-1.3361-2.436-2.9353-4.7303-4.7971-6.827-6.5904-7.4217-16.47-12.376-29.666-12.389z" color="#000000" color-rendering="auto" dominant-baseline="auto" fill="url(#c)" image-rendering="auto" solid-color="#000000" style="font-feature-settings:normal;font-variant-alternates:normal;font-variant-caps:normal;font-variant-ligatures:normal;font-variant-numeric:normal;font-variant-position:normal;isolation:auto;mix-blend-mode:normal;shape-padding:0;text-decoration-color:#000000;text-decoration-line:none;text-decoration-style:solid;text-indent:0;text-orientation:mixed;text-transform:none;white-space:normal"/><path d="m64.419 239.97c-0.40521 0.53186-0.80934 1.0604-1.2139 1.5849-0.0013 2e-3 -0.0027 4e-3 -0.0041 6e-3 -2.84 3.6839-5.6631 7.1592-8.5168 10.079-3.3279 3.4057-6.7222 6.1264-10.316 7.7675l-5.29e-4 5.3e-4c-0.16508 0.0754-0.33067 0.14935-0.49661 0.22015-2.3176 0.9982-4.7228 1.5529-7.2497 1.556-7.3082 9e-3 -12.806-2.6462-16.469-6.6368-0.01606-0.0175-0.03051-0.0361-0.04651-0.0537 0.8619 1.8718 1.9977 3.6222 3.4158 5.1671 3.6133 3.9365 9.0294 6.5595 16.273 6.5505 6.5639-8e-3 12.319-3.7902 17.888-9.4899 3.4215-3.5014 6.8017-7.7987 10.217-12.299-1.1573-1.5251-2.3158-3.0158-3.4814-4.4524z" color="#000000" color-rendering="auto" dominant-baseline="auto" fill="url(#d)" image-rendering="auto" solid-color="#000000" style="font-feature-settings:normal;font-variant-alternates:normal;font-variant-caps:normal;font-variant-ligatures:normal;font-variant-numeric:normal;font-variant-position:normal;isolation:auto;mix-blend-mode:normal;shape-padding:0;text-decoration-color:#000000;text-decoration-line:none;text-decoration-style:solid;text-indent:0;text-orientation:mixed;text-transform:none;white-space:normal"/><path d="m36.622 200.05c-13.196 0.0134-23.078 4.9672-29.668 12.389-6.5904 7.4217-9.8888 17.319-9.8888 27.215-2e-6 8.0764 2.1982 16.15 6.5887 22.877-2.4497-5.4908-3.6763-11.538-3.6763-17.586 2e-6 -9.9546 4.2516-19.912 10.89-27.389 6.6388-7.4762 15.666-11.81 28.928-11.824 9.9557-0.0101 18.116 3.3347 25.367 9.0495 3.6988 2.9153 7.1162 6.2228 10.355 9.8748 1.2391 1.4038 2.7768 2.9612 3.9656 4.4204 0.11323-0.13896 0.22586-0.27846 0.33951-0.41703-1.9999-2.4516-2.3407-2.9817-3.6848-4.6664-4.3502-5.3414-8.999-10.404-14.175-14.483-7.2186-5.6895-15.454-9.4709-25.342-9.4609zm-37.688 53.18c-1.5101 21.432-0.75503 10.716 0 0z" color="#000000" color-rendering="auto" dominant-baseline="auto" fill="url(#e)" image-rendering="auto" solid-color="#000000" style="font-feature-settings:normal;font-variant-alternates:normal;font-variant-caps:normal;font-variant-ligatures:normal;font-variant-numeric:normal;font-variant-position:normal;isolation:auto;mix-blend-mode:normal;shape-padding:0;text-decoration-color:#000000;text-decoration-line:none;text-decoration-style:solid;text-indent:0;text-orientation:mixed;text-transform:none;white-space:normal"/><path d="m36.622 200.05c-13.262 0.0135-23.227 5.0005-29.865 12.477-6.6388 7.4762-9.9549 17.436-9.9549 27.391-2e-6 8.673 2.5184 17.345 7.5572 24.375 1.4821 2.9831 3.3388 5.7805 5.5738 8.2951 6.6388 7.4695 16.601 12.447 29.863 12.447 9.9557 0 18.092-3.8191 25.136-9.5374 5.371-4.36 10.11-9.8242 14.552-15.546 4.4417 5.7222 9.181 11.186 14.552 15.546 7.0443 5.7183 15.179 9.5374 25.135 9.5374 13.262 0 23.226-4.9778 29.865-12.447 6.6388-7.4695 9.9555-17.425 9.9555-27.379 0-8.6746-2.5191-17.351-7.5597-24.386-1.4816-2.9828-3.3377-5.7798-5.5712-8.2951-6.6388-7.4762-16.601-12.463-29.863-12.477-9.9557-0.0101-18.257 3.803-25.508 9.5178-5.1848 4.0865-9.8334 9.1459-14.179 14.48-4.3467-5.3338-8.9967-10.393-14.182-14.48-7.2507-5.7148-15.55-9.5279-25.506-9.5178zm39.045 24.788c-3.2384-3.6521-6.6644-7.0639-10.363-9.9792-7.2507-5.7148-15.552-9.5274-25.507-9.5172-13.262 0.0135-23.224 5.0021-29.863 12.478-6.6388 7.4762-9.9549 17.434-9.9549 27.389-1e-6 6.0481 1.2265 12.095 3.6763 17.586-4.3905-6.7269-6.5887-14.8-6.5887-22.877 2e-6 -9.8958 3.2984-19.793 9.8888-27.215 6.5904-7.4217 16.472-12.376 29.668-12.389 9.888-0.01 18.123 3.7715 25.342 9.4609 5.1758 4.0794 9.8245 9.1418 14.175 14.483m39.859-23.944c13.196 0.0134 23.076 4.9672 29.666 12.389 1.8618 2.0967 3.4609 4.391 4.7971 6.827-0.45701-0.58248-0.93044-1.1539-1.4242-1.71-6.6388-7.4762-16.603-12.465-29.865-12.478-9.9557-0.0101-18.255 3.8025-25.506 9.5172-4.9817 3.9264-9.4709 8.7509-13.67 13.854-1.1531-1.4957-2.3205-2.9857-3.5145-4.4555 4.3497-5.3414 8.9976-10.404 14.173-14.483 7.2186-5.6895 15.456-9.471 25.344-9.4609zm-76.201 23.867c7.2299 0 13.313 3.7762 19.006 9.4687 1.8473 1.8473 3.6548 3.9132 5.4446 6.1092-3.2523 4.2703-6.4739 8.3325-9.7353 11.67-5.5696 5.6997-11.325 9.4841-17.889 9.4924-7.244 9e-3 -12.66-2.6145-16.273-6.551-0.20446-0.22276-0.40136-0.45065-0.59428-0.68161-1.1002-2.6783-1.6536-5.5773-1.6536-8.4786-1.5e-5 -5.259 1.8086-10.518 5.4219-14.459 3.6133-3.9412 9.0295-6.5701 16.273-6.5701zm79.375 0c7.244 0 12.66 2.629 16.273 6.5701 0.2035 0.22197 0.39913 0.44997 0.59119 0.68006 1.1021 2.6818 1.6568 5.5841 1.6567 8.4878-3e-5 5.259-1.8086 10.515-5.4219 14.451-3.6133 3.9365-9.0294 6.5602-16.273 6.551-6.5639-8e-3 -12.319-3.7927-17.889-9.4924-2.2051-2.2566-4.3926-4.8454-6.5836-7.6042 2.839-3.718 5.688-7.2228 8.6403-10.175 5.6924-5.6924 11.776-9.4687 19.006-9.4687zm-43.033 0.077c1.1932 1.4697 2.5315 3.1697 3.6845 4.6659-0.11365 0.13857-0.22628 0.27807-0.33951 0.41703-1.1889-1.4592-2.5777-3.0993-3.8168-4.5031m60.929 7.2993c2.8441 3.7452 4.2726 8.4079 4.2726 13.073-1e-5 5.259-1.8107 10.515-5.424 14.451-3.6133 3.9365-9.0294 6.5597-16.273 6.5505-6.5639-8e-3 -12.319-3.7902-17.889-9.4899-3.4214-3.5013-6.7997-7.7988-10.215-12.299 0.0973-0.12825 0.19463-0.25411 0.29197-0.38189 2.1802 2.7436 4.3591 5.3211 6.5598 7.5732 5.5924 5.723 11.413 9.562 18.078 9.5705 7.3082 9e-3 12.806-2.6463 16.469-6.6368 3.6628-3.9906 5.4901-9.3094 5.4901-14.629 2e-5 -2.648-0.45353-5.2963-1.3601-7.782zm-72.176 7.8337c1.1656 1.4366 2.3241 2.9273 3.4814 4.4524-3.4153 4.5003-6.7955 8.7976-10.217 12.299-5.5696 5.6997-11.324 9.4815-17.888 9.4899-7.244 9e-3 -12.66-2.614-16.273-6.5505-1.4181-1.545-2.5539-3.2953-3.4158-5.1671 0.016 0.0176 0.03044 0.0362 0.04651 0.0537 3.6628 3.9906 9.1606 6.6461 16.469 6.6368 6.6653-8e-3 12.486-3.8474 18.078-9.5705 3.2623-3.3385 6.4782-7.3888 9.7198-11.644z" color="#000000" color-rendering="auto" dominant-baseline="auto" image-rendering="auto" solid-color="#000000" stroke="#000" stroke-width=".965" style="font-feature-settings:normal;font-variant-alternates:normal;font-variant-caps:normal;font-variant-ligatures:normal;font-variant-numeric:normal;font-variant-position:normal;isolation:auto;mix-blend-mode:normal;shape-padding:0;text-decoration-color:#000000;text-decoration-line:none;text-decoration-style:solid;text-indent:0;text-orientation:mixed;text-transform:none;white-space:normal"/></g></svg>
