<svg xmlns="http://www.w3.org/2000/svg" xmlns:xlink="http://www.w3.org/1999/xlink" width="616.63" height="324.847" viewBox="0 0 163.155 85.949"><defs><linearGradient id="a"><stop offset="0" stop-color="#121212"/><stop offset="1" stop-color="#fbfbfb"/></linearGradient><linearGradient xlink:href="#a" id="b" x1="155.47" x2="7.608" y1="228.03" y2="302.23" gradientUnits="userSpaceOnUse"/><linearGradient xlink:href="#a" id="c" x1="62.681" x2="156.85" y1="260.07" y2="215.83" gradientUnits="userSpaceOnUse"/><linearGradient xlink:href="#a" id="d" x1="78.971" x2="-89.643" y1="248.92" y2="264.21" gradientUnits="userSpaceOnUse"/><linearGradient xlink:href="#a" id="e" x1="-21.176" x2="78.509" y1="260.2" y2="219.41" gradientTransform="translate(0 -.263)" gradientUnits="userSpaceOnUse"/></defs><g color="#000"><path fill="url(#b)" d="M136.6 232.13a22.8 22.8 0 0 1 1.36 7.782c0 5.32-1.827 10.639-5.49 14.629s-9.16 6.646-16.469 6.637c-6.665-.008-12.486-3.848-18.078-9.57-2.2-2.253-4.38-4.83-6.56-7.574l-.292.382c3.415 4.5 6.794 8.798 10.215 12.299 5.57 5.7 11.325 9.482 17.89 9.49 7.243.009 12.66-2.614 16.272-6.55 3.614-3.937 5.424-9.193 5.424-14.452 0-4.665-1.428-9.328-4.272-13.073" transform="translate(3.68 -199.56)"/><path fill="url(#c)" d="m113.24 200.14-.484.04.488-.04zm2.76.167c-9.887-.01-18.124 3.771-25.343 9.46-5.772 4.973-9.9 9.24-14.173 14.484.446 1.627 2.111 2.59 3.096 3.853.145.187.304.382.453.56 4.19-5.087 8.668-9.897 13.635-13.813 7.25-5.714 15.55-9.527 25.506-9.517 13.262.014 23.226 5.002 29.865 12.478q.74.835 1.424 1.71a37.2 37.2 0 0 0-4.797-6.827c-6.59-7.421-16.47-12.376-29.666-12.389z" transform="translate(3.68 -199.56)"/><path fill="url(#d)" d="M64.419 239.97q-.608.798-1.214 1.585l-.004.006c-2.84 3.684-5.663 7.16-8.517 10.079-3.328 3.406-6.722 6.126-10.316 7.767a22 22 0 0 1-.497.221c-2.318.998-4.723 1.553-7.25 1.556-7.308.01-12.806-2.646-16.469-6.637l-.046-.053a20 20 0 0 0 3.416 5.167c3.613 3.936 9.03 6.56 16.273 6.55 6.564-.008 12.319-3.79 17.888-9.49 3.421-3.501 6.801-7.798 10.217-12.299a174 174 0 0 0-3.482-4.452z" transform="translate(3.68 -199.56)"/><path fill="url(#e)" d="M36.622 200.05c-13.196.013-23.078 4.967-29.668 12.389s-9.889 17.319-9.889 27.215c0 8.076 2.198 16.15 6.589 22.877-2.45-5.49-3.676-11.538-3.676-17.586 0-9.955 4.251-19.912 10.89-27.389 6.638-7.476 15.666-11.81 28.928-11.824 9.955-.01 18.116 3.335 25.367 9.05 3.698 2.915 7.116 6.222 10.355 9.874 1.239 1.404 2.776 2.961 3.965 4.42l.34-.416c-2-2.452-2.341-2.982-3.685-4.667-4.35-5.341-9-10.404-14.175-14.483-7.219-5.69-15.454-9.47-25.342-9.46zm-37.688 53.18c-1.51 21.432-.755 10.716 0 0" transform="translate(3.68 -199.56)"/><path stroke="#000" stroke-width=".965" d="M40.302.49c-13.262.014-23.227 5-29.865 12.477C3.798 20.443.482 30.403.482 40.358c0 8.673 2.519 17.345 7.557 24.375a37.7 37.7 0 0 0 5.574 8.295c6.639 7.47 16.601 12.447 29.863 12.447 9.956 0 18.092-3.819 25.136-9.537 5.371-4.36 10.11-9.824 14.552-15.546 4.442 5.722 9.181 11.186 14.552 15.546 7.044 5.718 15.18 9.537 25.135 9.537 13.262 0 23.226-4.978 29.865-12.447 6.639-7.47 9.956-17.425 9.956-27.379 0-8.674-2.52-17.35-7.56-24.386a37.8 37.8 0 0 0-5.571-8.295C142.901 5.492 132.94.505 119.678.491c-9.956-.01-18.257 3.803-25.508 9.518-5.185 4.086-9.834 9.146-14.18 14.48-4.346-5.334-8.996-10.393-14.181-14.48C58.558 4.294 50.259.481 40.303.491zm39.045 24.788c-3.238-3.652-6.664-7.064-10.363-9.98-7.25-5.714-15.552-9.527-25.507-9.516-13.262.013-23.224 5.002-29.863 12.478S3.659 35.694 3.659 45.649c0 6.048 1.227 12.095 3.676 17.586-4.39-6.727-6.588-14.8-6.588-22.877 0-9.896 3.298-19.793 9.888-27.215S27.107.767 40.303.753c9.888-.01 18.123 3.772 25.342 9.462 5.176 4.079 9.825 9.141 14.175 14.483M119.68.754c13.195.013 23.075 4.967 29.665 12.389a37.2 37.2 0 0 1 4.798 6.827 37 37 0 0 0-1.425-1.71c-6.638-7.477-16.603-12.465-29.865-12.478-9.955-.01-18.255 3.802-25.506 9.517-4.981 3.926-9.47 8.75-13.67 13.854a223 223 0 0 0-3.514-4.456c4.35-5.341 8.997-10.404 14.173-14.483 7.218-5.69 15.456-9.47 25.344-9.46zM43.477 24.62c7.23 0 13.313 3.776 19.006 9.468 1.848 1.848 3.655 3.913 5.445 6.11-3.252 4.27-6.474 8.332-9.735 11.67-5.57 5.7-11.325 9.484-17.89 9.492-7.243.009-12.66-2.615-16.272-6.551q-.307-.334-.594-.682a22.4 22.4 0 0 1-1.654-8.478c0-5.26 1.809-10.518 5.422-14.46 3.613-3.94 9.03-6.57 16.273-6.57zm79.375 0c7.244 0 12.66 2.629 16.273 6.57q.305.334.592.68a22.4 22.4 0 0 1 1.656 8.487c0 5.26-1.808 10.515-5.422 14.451s-9.029 6.56-16.273 6.551c-6.563-.008-12.319-3.792-17.889-9.492-2.205-2.257-4.392-4.845-6.583-7.604 2.839-3.718 5.688-7.223 8.64-10.175 5.693-5.693 11.776-9.469 19.006-9.469zm-43.033.077a246 246 0 0 1 3.685 4.665l-.34.417a156 156 0 0 0-3.816-4.503m60.929 7.3c2.844 3.745 4.272 8.408 4.272 13.073 0 5.259-1.81 10.515-5.424 14.45-3.613 3.937-9.03 6.56-16.273 6.551-6.564-.008-12.319-3.79-17.889-9.49-3.421-3.501-6.8-7.799-10.215-12.299l.292-.382c2.18 2.744 4.36 5.321 6.56 7.574 5.592 5.723 11.413 9.562 18.078 9.57 7.308.009 12.806-2.646 16.47-6.637 3.662-3.99 5.49-9.31 5.49-14.629a22.8 22.8 0 0 0-1.36-7.782zm-72.176 7.833a174 174 0 0 1 3.481 4.453c-3.415 4.5-6.795 8.797-10.217 12.299-5.57 5.7-11.324 9.481-17.888 9.49-7.244.009-12.66-2.614-16.273-6.55a20 20 0 0 1-3.416-5.168l.047.054c3.663 3.99 9.16 6.646 16.469 6.637 6.665-.008 12.486-3.848 18.078-9.571 3.262-3.338 6.478-7.389 9.72-11.644z"/></g></svg>