<svg xmlns="http://www.w3.org/2000/svg" viewBox="0 0 460 446.667"><path d="M162.581.005C72.935.005 0 72.44 0 161.48c0 13.349 1.638 26.609 4.881 39.444.341 1.353.81 2.641 1.184 3.984l-.082.01 40.754 144.885 9.98-2.775L31.31 256.7c29.89 40.666 78.027 66.244 131.266 66.244 26.685 0 51.875-6.454 74.119-17.828L106.746 446.66h14.025l161.933-176.39-.05-.051c21.95-23.88 36.737-54.324 41.111-87.974l62.183 264.422h10.644l-75.701-321.92-.03.004C308.46 71.985 269.957 29.09 219.633 10.288H460V0M314.807 161.484c0 83.365-68.29 151.184-152.226 151.184-69.925 0-130.64-46.977-147.651-114.24a151.086 151.086 0 01-4.572-36.937c0-83.36 68.285-151.186 152.223-151.186 83.936 0 152.226 67.82 152.226 151.186M79.954 208.173l.034-3.554-10.359-.223-.042 3.777c0 13.352 1.641 26.622 4.89 39.451 3.625 14.341 9.188 27.783 16.24 40.179 5.68 3.18 11.597 5.944 17.697 8.349-10.85-15.057-19.134-32.215-23.895-51.04a151.042 151.042 0 01-4.571-36.939m287.815 88.983c13.24-19.828 22.122-42.719 25.464-67.337l.704.097L420.04 44.58l-10.268-1.428-18.561 131.775c-10.943-51.7-46.813-94.388-94.563-114.955a165.722 165.722 0 0111.74 17.419c45.395 26.197 76.008 74.99 76.008 130.782 0 27.179-7.297 52.682-19.988 74.739l3.354 14.244zm-135.588 62.203c-7.267 0-14.395-.626-21.43-1.611l-8.364 9.119c9.698 1.782 19.647 2.778 29.8 2.778 46.208 0 87.938-19.265 117.568-50.104l-2.857-12.141c-27.923 31.796-68.983 51.959-114.71 51.959m-128.847-249.69l13.158.103c16.502-21.267 58.86-52.788 115.676-52.788 12.359 0 24.362 1.501 35.871 4.277a146.283 146.283 0 00-14.453-13.126c-7.006-.919-14.146-1.447-21.412-1.447-50.814 0-97.778 22.953-128.835 62.976m35.017 217.672c-6.92-.992-13.708-2.43-20.357-4.236 16.836 16.486 37.145 29.304 59.685 37.243l7.676-8.358c-17.117-5.473-33.037-13.802-47.004-24.636m60.856-144.534l-22.112-25.092c10.731-1.248 22.112-6.895 22.112-18.187 0-9.403-7.577-14.423-24-14.423h-27.16v65.863c1.894-.623 3.156-.623 5.056-.623 1.258 0 3.151 0 4.416.623v-31.99h8.836l8.214 8.78 12.621 14.423c2.53 3.136 4.421 5.647 6.95 8.778 1.886-.626 3.78-.626 6.314-.626 1.888 0 3.78 0 5.679.626l-1.892-2.502-5.034-5.65zm-42.324-27.602v-26.346c4.416 0 16.42-.619 20.212 0 8.208 1.256 12 5.648 12 11.912 0 7.526-5.68 12.548-13.888 13.805-5.054 1.248-16.425.616-18.317.616m-72.642 25.11c-1.887 1.874-10.736 7.526-22.74 7.526-16.415 0-28.415-11.288-28.415-30.113 0-15.676 9.466-30.111 29.05-30.111 11.363 0 18.941 6.27 20.84 8.157h.63c.628-2.512 1.259-5.022 1.894-7.526-6.945-2.512-15.157-4.391-22.736-4.391-22.74 0-40.425 12.548-40.425 33.877 0 20.7 14.523 33.867 37.898 33.867 8.202 0 17.048-1.243 23.362-5.016zM216.268 125.1h-3.797v65.866c.634-.626 1.893-.626 3.164-.626.634 0 1.892 0 2.514.626v-52.068h1.266l46.104 45.796c2.516 2.498 4.414 4.384 5.682 6.265h3.164v-65.864c-1.269 0-1.897.625-3.164.625-1.262 0-1.892-.625-3.161-.625v49.555h-.617l-51.154-49.55zm-88.427 60.224c-6.314.626-17.685.626-23.999.626v-28.228h21.47c3.158 0 6.314.626 9.472.626 0-.626-.63-1.88-.63-2.512 0-.624.63-1.873.63-2.51-3.158 0-6.314.63-9.471.63h-21.47v-24.465h13.263l10.735.63c3.157 0 6.314.62 9.471.62 0-.62-.635-1.88-.635-2.5 0-1.255.635-1.88.635-3.135H94.359v65.246h43.582c0-.632-.629-1.876-.629-2.512 0-1.256.63-1.881.63-3.136-3.158.626-6.944.626-10.1.626" fill="#1950a4"/></svg>