<svg xmlns="http://www.w3.org/2000/svg" viewBox="0 0 365 354.57"><path d="M180.898 11.89l-.066-3.394-1.7-.066c-1.593-.067-1.706-.11-1.812-.657V6.602c.106-.547.22-.59 1.813-.653l1.699-.07.14-3.453h2.36v3.55l3.453.141v2.145l-1.726.066-1.727.07v6.887h-2.367zm4.579 7.758c-2.254-.226-2.383-.285-2.383-1.109 0-.644.125-.816.746-1.05.894-.34 1.285-.169 2.316 1.007.79.899.946 1.336.45 1.274zm-7.903-.632l1.14-1.258c.641-.5.833-.535 1.49-.309.64.223.75.38.75 1.059 0 .86-.032.87-2.903 1.125l-.875.074zm7.903 4.898l-.36-1.336-.355-.68.894.157c1.922.343 1.938.355 1.38 1.687-.266.637-.485.828-.95.828zm-8.297.05l-.274-1.179c0-.492.145-.59 1.082-.73.594-.09 1.133-.11 1.196-.047l-.13.758-.245 1.222-.676.582zm4.007.595c-.335-.622-.101-1.352.493-1.54 1.101-.351 1.941.567 1.422 1.54-.356.66-1.563.66-1.915 0zm10.903 1.539c-.387-.856.008-1.41 1.004-1.41.578 0 .828.132.969.507.464 1.266-1.415 2.125-1.973.903zm-21.973.136c-.637-.703-.16-1.664.82-1.664 1.06 0 1.551 1.047.833 1.77-.508.508-1.133.469-1.653-.106zm29.223 2.489c-.63-.442-.711-1.559-.156-2.114.554-.554 1.671-.472 2.113.157.512.73.465 1.203-.18 1.808-.656.613-1.062.649-1.777.149zm-36.485-.106c-.593-.594-.609-1.469-.039-1.988.91-.824 2.422-.203 2.422.996 0 .648-.797 1.469-1.43 1.469zm18.141.942c-.754-.704-.703-1.954.11-2.59l1.039-.496c.785 0 1.664.933 1.664 1.761 0 1.528-1.723 2.34-2.813 1.325zm24.336 2.789c-.758-.653-.844-1.84-.191-2.563.636-.707 2.082-.61 2.699.176.562.715.601 1.016.23 1.832-.261.574-1.113 1.11-1.757 1.11zm-49.031-.032c-.715-.71-.746-1.527-.094-2.355.617-.79 1.895-.863 2.602-.152.71.707.636 1.98-.153 2.601-.832.653-1.644.621-2.355-.094zm63.508 4.11l.152-1.7 1.55.04c.786.87.348 1.945-.796 1.945zm-38.75-.047c-2.207-.965-1.977-4.23.347-4.926.758-.226 1.051-.203 1.785.145 2.047.972 2.082 3.765.055 4.726-.973.461-1.234.469-2.187.055zm-38.664-.008c-.903-1.086.605-2.629 1.644-1.687l.2 1.742zm68.675 1.969c-.867-.477-1.297-1.235-1.304-2.3-.004-1.438.96-2.423 2.382-2.423 1.364 0 2.614 1.196 2.614 2.5 0 1.77-2.157 3.067-3.692 2.223zm-60.566-.055c-.762-.422-1.2-1.265-1.211-2.328-.012-1.195 1.105-2.34 2.285-2.34 1.656 0 2.707 1.031 2.707 2.653 0 1.05-1.344 2.351-2.418 2.34zm66.059.356l.34-.094.136.308zm10.5 1.445c-1.372-1.516.785-3.598 2.18-2.11l.519 1.075c0 1.234-1.871 1.953-2.7 1.035zm-92.383 0c-.868-.957-.13-2.66 1.152-2.66 1.305 0 2.063 1.844 1.113 2.703-.578.523-1.773.5-2.265-.043zm45.629 4.254c-2.871-1.75-1.555-6.195 1.836-6.195 2.003 0 3.332 1.343 3.332 3.378-.004 2.622-2.899 4.204-5.168 2.817zm53.793 1.262c-.512-.207-1.028-1.461-.868-2.106.188-.746 1.172-1.547 1.903-1.547l1.207.567c.867.746.922 2.14.105 2.8-.515.418-1.668.559-2.347.286zm-106.704-.47c-.691-.878-.62-1.663.23-2.515.606-.605.849-.699 1.49-.574.984.187 1.597.941 1.597 1.957 0 1.11-.7 1.762-1.887 1.762-.726 0-1.047-.14-1.43-.63zm87.204 1.798c-.84-.246-1.907-1.38-2.13-2.262-.613-2.45 2.188-4.676 4.415-3.504 1.191.625 1.765 1.527 1.765 2.781 0 2.18-1.933 3.606-4.05 2.985zm-67.141 0c-.95-.278-1.918-1.41-2.117-2.477-.313-1.656 1.402-3.691 3.11-3.691 1.655 0 3.355 1.93 3.116 3.535-.3 2.004-2.168 3.2-4.11 2.633zm37.078 6.191c-1.277-.687-2.703-.812-4.008-.351-.617.218-1.312.457-1.543.53-.312.098-.508-.081-.773-.718-1.297-3.102 1.187-6.473 4.45-6.035 2.003.266 3.773 2.258 3.757 4.226-.004.7-.781 2.903-.992 2.817zm54.957.856c-1.516-.829-1.89-2.907-.746-4.168 2.254-2.489 6.004.12 4.46 3.101-.66 1.278-2.401 1.778-3.714 1.067zm-117.754-.11c-.96-.586-1.265-1.16-1.265-2.375 0-2.515 3.214-3.617 4.859-1.664 1.98 2.352-.953 5.649-3.594 4.04zm93.434 3.098c-.895-.918-2.567-1.68-3.7-1.68-.562 0-.578-.043-.484-1.5.113-1.777.73-2.8 2.113-3.508 1.73-.882 3.856-.488 5.055.938 1.254 1.488 1.406 3.336.414 4.965-.453.738-1.758 1.73-2.265 1.715zm-68.418.484c-2.164-1.32-2.64-4.238-.996-6.11.98-1.12 1.84-1.53 3.191-1.53 2.344 0 4.242 1.953 4.098 4.203l-.074 1.12-1.211.27c-1.422.32-2.828 1.13-3.352 1.934-.45.684-.691.7-1.656.113zm97.172 7.332c-.918-.367-2.02-.672-2.45-.68-.613-.007-.828-.136-1.011-.62-1.074-2.825 1.62-5.762 4.5-4.903l1.687 1.102c.696.715.828 1.035.91 2.207.079 1.148.004 1.508-.46 2.183-.97 1.403-1.286 1.473-3.176.711zm-63.618.274c-1.117-.676-1.593-1.547-1.593-2.895 0-2.601 2.691-4.187 5.043-2.972 2.246 1.164 2.293 4.816.07 5.964-.984.512-2.598.465-3.52-.097zm-62.921-.36c-.7-.718-.829-1.03-.914-2.254-.133-1.804.449-2.847 2-3.597 2.328-1.13 4.918.261 5.261 2.824.192 1.43-.277 2.426-1.14 2.426-.567 0-1.977.453-4.035 1.289zm91.718 3.293c-1.086-.535-1.804-1.797-1.785-3.125.028-1.86 1.488-3.27 3.39-3.27a3.365 3.365 0 012.891 5.18c-.914 1.48-2.878 2.012-4.496 1.215zM152 68.051c-1.586-.719-2.316-2.68-1.633-4.387.953-2.387 3.895-2.887 5.727-.977.617.645.691.887.691 2.25 0 1.442-.05 1.579-.87 2.399-.716.715-1.075.887-2.024.96-.672.056-1.461-.05-1.891-.245zm48.863 6.129c-1.957-.602-3.316-1.653-4.66-3.61l-.535-.785-1.176 1.102c-1.457 1.36-2.96 2.043-4.836 2.191-1.82.145-3.101-.2-4.246-1.144-1.191-.985-1.863-2.364-2.015-4.133l-.122-1.446.864.993c2.52 2.886 6.957 2.597 8.867-.582.89-1.485 1.105-2.602.785-4.075-.52-2.363-2.824-4.312-5.101-4.312-.989 0-1.02-.024-1.118-.852-.09-.78-.02-.898.809-1.37l.902-.516v-2.5c.004-8.047-1.578-19.871-3.23-24.133-.16-.422-.063-.438 1.832-.27 4.644.41 9.953 1.926 12.992 3.707 1.805 1.059 5.031 4.27 5.965 5.934 1.289 2.297 1.765 4.117 1.906 7.285.14 3.223-.125 5.238-1.035 7.883-.555 1.613-.566 1.762-.215 2.441l.133.727c-.348 0-1.672 2.402-1.676 3.043l-.46.297c-.583-.313-2.036-.317-3.095-.016-1.3.375-2.527 1.371-3.171 2.574-.848 1.594-.993 2.692-.543 4.23 1.16 3.993 5.984 5.34 9.015 2.52l.672-.629-.172.954c-.265 1.492-.496 1.945-1.554 3.093-.715.774-1.329 1.172-2.196 1.43-1.465.437-2.082.43-3.586-.031zm-41.367.062c-1.91-.683-3.316-2.312-3.672-4.262l-.168-.902 1.196.742c1.582.985 2.726 1.23 4.261.922 1.676-.336 2.969-1.328 3.735-2.863 1.46-2.93.355-6.14-2.575-7.508-1.27-.59-2.941-.734-3.718-.316l-.461-.25c0-.653-.617-1.864-1.356-2.653-.562-.597-.57-.66-.207-1.218.364-.551.348-.707-.316-2.7-1.746-5.27-1.352-10.976 1.039-14.941 2.512-4.172 6.453-6.855 12.39-8.434 2.079-.55 6.442-1.242 7.852-1.242.75 0 .863.063.719.418-.492 1.219-1.602 6.203-2.024 9.098-.504 3.465-1.046 9.316-1.312 14.219l-.156 2.902.964.61c.891.562.965.683.915 1.562l-.055.953-1.07.004c-2.872.015-5.247 2.523-5.235 5.523.016 3.059 2.434 5.434 5.524 5.418 1.609-.004 2.93-.61 4.054-1.86l.895-.991v1.011c-.004 1.614-.442 2.774-1.465 3.883-1.281 1.387-2.594 1.871-4.664 1.719-1.969-.145-3.465-.816-5.11-2.297-.706-.633-1.261-.98-1.316-.816-.242.718-1.816 2.465-2.84 3.14-2 1.328-4.117 1.739-5.824 1.13zm77.719 2.735a3.443 3.443 0 011.457-6.395c1.14-.129 2.07.258 2.98 1.23.442.473.606.958.684 2.028.098 1.363.07 1.433-.844 2.414-.84.902-1.074 1.02-2.226 1.101-.996.075-1.461-.011-2.051-.378zm-113.91-.13c-.77-.523-1.04-.949-1.5-2.363-.246-.757.293-2.16 1.144-2.984 2.68-2.594 6.938.445 5.426 3.867-.895 2.016-3.262 2.707-5.07 1.48zm105.343 4.173c-2.41-.614-4.46-2.657-5.93-5.918-.015-.036-.64.304-1.382.753-1.703 1.024-3.36 1.426-5.238 1.278-3.88-.313-6.008-3.195-5.23-7.082l.155-.77.286.68c1.808 4.297 7.89 4.469 9.976.281 1.54-3.09 0-6.715-3.277-7.699-.582-.176-1.11-.27-1.172-.203-.063.058-.059-.403.012-1.031.07-.63.203-1.176.297-1.211.093-.04.656-.375 1.246-.75 3.558-2.258 4.078-6.88 1.117-9.91l-.946-.965.633-.582c.825-.762 1.75-2.75 1.754-3.77l-.277-1.738c-.313-1.055-1.863-2.946-2.602-3.18l-.394-.246c.16-.156 3.57 1.23 5.926 2.41 5.863 2.938 10.27 7.063 12.445 11.649 1.152 2.43 1.586 4.265 1.812 7.656.106 1.59.305 3.101.446 3.367.218.41.132.555-.645 1.07-.492.329-1.148 1.07-1.46 1.657l-.563 1.062-1.153-.437c-1.785-.68-3.902-.59-5.464.226-3.16 1.649-3.583 6.387-.79 8.84 1.446 1.27 4.11 1.719 5.61.945l.773.23c.364.403.344.497-.304 1.391-1.141 1.575-3.727 2.489-5.657 1.997zm-96.03.007c-1.173-.382-2.083-.968-2.84-1.836-.758-.863-.766-.882-.317-1.332.398-.398.59-.421 1.559-.207 2.406.54 4.859-.64 5.972-2.87 1.453-2.915.242-6.407-2.597-7.493-1.29-.488-4.125-.379-5.262.211-.746.387-.746.387-1.043-.324-.164-.395-.793-1.168-1.399-1.719l-1.101-1.008.281-1.07c.152-.59.29-1.938.3-2.996.083-8.29 6.25-15.715 16.782-20.2 3.274-1.394 3.836-1.55 2.645-.73-1.137.785-1.434 1.133-2.036 2.379-.875 1.816-.511 3.992.934 5.625l.922 1.035-.871.848c-1.188 1.148-1.762 2.441-1.883 4.226-.176 2.582 1.277 5.11 3.52 6.121.836.376.96.532.96 1.208l.13 1.117-.575.363-1.617.488c-1.902.98-2.973 2.75-2.973 4.922 0 3.13 2.274 5.434 5.395 5.461 2.027.02 3.535-.781 4.64-2.457l.833-1.262.207.953c.488 2.227-.614 4.73-2.579 5.883-2.156 1.262-6.02.965-8.222-.629l-1.028-.687c-.042 0-.332.562-.644 1.25-.695 1.543-2.723 3.613-4.16 4.25-1.23.543-3.059.766-3.934.48zm4.69 3.215c9.098-3.656 20.993-6.472 32.337-7.652 5.074-.531 14.843-.711 19.878-.371 12.5.844 25.196 3.48 35.239 7.32 4.992 1.91 4.988 1.91 6.496 1.438 1.734-.551 3.312-1.633 5.246-3.606 1.539-1.566 1.691-1.66 2.824-1.726 3.875-.23 6.324-4.094 4.914-7.75-.234-.61-.129-.793 1.504-2.704 3.274-3.824 3.543-4.199 3.918-5.496 1.043-3.586-1.746-7.406-5.437-7.449-1.079-.012-1.122-.226-.18-.922 1.531-1.136 2.18-3.851 1.375-5.754-.984-2.316-3.758-3.593-6.067-2.793l-1.097.258c-.051-.055.16-.594.469-1.2.886-1.753.687-3.323-.586-4.687-1.582-1.695-4.157-1.796-5.793-.234-.743.707-1.02.441-.649-.617.36-1.031.14-2.676-.472-3.535-1.438-2.016-4.875-1.942-6.168.136l-.809.582c-.328-.066-.371-.304-.266-1.476.106-1.156.04-1.54-.386-2.223-1.32-2.14-4.563-2.082-5.813.106l-.762.91-.73-1.012c-.723-1.469-2.27-2.36-4.176-2.398l-1.469-.032-.289-1.14c-.355-1.395-1.28-2.406-2.687-2.945-1.07-.41-1.305-.387-3.445.316l-.418-.383c0-1.348-1.54-2.965-3.07-3.226-1.126-.188-2.927.5-3.344 1.285-.387.722-.883.61-1.055-.239-.223-1.12-.992-2.023-2.102-2.468-1.656-.664-3.3-.04-4.129 1.558-.488.942-.847.895-.57-.078.332-1.156.27-3.562-.125-4.676-.504-1.425-1.61-2.93-2.726-3.703l-.973-.676v-4.218h1.027c1.633 0 2.543-1.282 2.543-3.575 0-2.289-.91-3.57-2.543-3.57h-1.027V2.72c0-1.727-1.309-2.723-3.578-2.723-2.407 0-3.805 1.11-3.805 3.02 0 .523-.102.601-.812.601-1.168 0-1.493.18-2.086 1.145-1.051 1.695-.493 5.32.902 5.855l1.184.145h.812v2.261c0 1.38-.094 2.262-.242 2.262l-1.278.953c-1.957 1.801-2.824 4.82-2.214 7.703.238 1.114-.059 1.086-.836-.086-1.223-1.84-3.594-2.12-5.106-.609l-.926 1.637c-.199 1.062-.414 1.09-1.332.168-.914-.914-2.285-1.297-3.492-.973-1.312.356-2.668 1.926-2.668 3.094 0 .594-.148.605-1.328.113-2.277-.953-4.91.645-5.332 3.235l-.133.835-1.441.032c-2.129.043-3.566.867-4.414 2.527l-.668.895-.66-.871c-.852-1.641-3.168-2.254-4.79-1.266-1.128.687-1.835 2.351-1.519 3.594.195.77.168.964-.148 1.14-.293.164-.508.035-.914-.562-1.426-2.102-4.746-2.043-6.211.105-.586.86-.739 2.75-.29 3.594.387.723.024 1.043-.57.5-2.906-2.652-7.3-.621-6.996 3.234.059.782.29 1.52.602 1.938l.375.808-1.121-.226c-2.07-.746-4.63.242-5.801 2.238-1.195 2.043-.715 4.785 1.11 6.32l.726.747-1.024.132c-1.332 0-3.285.977-4.222 2.106-.93 1.12-1.52 3.113-1.332 4.48.199 1.457.87 2.66 2.539 4.532a68.885 68.885 0 012.41 2.867l.96 1.242-.292 1.152c-.805 3.137 1.234 6.34 4.418 6.934.648.121 1.254.172 1.348.113.093-.055 1.003.742 2.027 1.774 2.383 2.402 4.781 3.808 6.539 3.84.344.003 1.797-.458 3.223-1.032zm42.758.137c-1.078-.617-1.96-1.172-1.964-1.238l4.23-2.34c.797.347 3.86 2.168 3.856 2.297l-4.079 2.41c-.047-.008-.964-.516-2.043-1.13zm23.875 2.691c-2.593-.59-3.226-1.043-3.226-2.308 0-.867 1.148-2.102 1.945-2.086.305.008 1.676.261 3.043.57 2.723.61 3.344 1.043 3.344 2.32 0 .954-1.149 2.11-2.063 2.07-.37-.015-1.742-.269-3.043-.566zm-48.007-.101c-.813-.813-.914-1.836-.27-2.637.32-.39 1.07-.672 2.918-1.086 1.367-.308 2.738-.562 3.043-.57.797-.016 1.945 1.219 1.945 2.086 0 1.281-.62 1.71-3.343 2.324-3.215.719-3.461.715-4.293-.117zm67.53 4.629c-.612-.72-1.058-1.403-.984-1.52.07-.113.692-.281 1.383-.371.692-.09 1.473-.219 1.739-.281.406-.102.558.082.921 1.094.243.668.399 1.246.348 1.28l-2.05 1.102c-.13 0-.743-.586-1.356-1.304zm-85.132.78l-.91-.57c-.043-.027.117-.601.36-1.277.359-1.011.515-1.203.91-1.105.261.062 1.038.191 1.73.281.691.09 1.312.258 1.387.371l-2.375 2.82zm2.707 2.333c.832-1.016 1.004-1.098 5.207-2.48 9.7-3.196 19.766-5.051 30.54-5.63l2.62-.14 1.406.812 1.407.809 1.414-.828 1.418-.832 4.32.277c10.254.66 19.516 2.418 29.082 5.512 3.477 1.125 3.602 1.187 4.668 2.383l1.098 1.222 2.652-1.476c1.457-.813 2.656-1.55 2.656-1.637.004-.086-.453-1.414-1.011-2.95l-1.016-2.792-1.191.129c-1.008.11-1.664-.04-4.286-.977-10.285-3.668-22.652-6.066-33.324-6.468-3.8-.145-4.11-.192-5.289-.813l-1.254-.656-1.258.691c-1.136.63-1.468.695-3.53.7-1.255 0-4.04.167-6.192.37-10.02.946-18.836 2.844-28.2 6.075-3.992 1.379-3.663 1.308-5.12 1.09l-1.07-.16-1.048 2.867c-.574 1.578-.972 2.937-.886 3.027l5.18 2.914c.081.008.534-.46 1.007-1.04zm4.492 4.492c23.301-7.984 49.535-7.988 73.235-.012 3.445 1.16 4.18 1.168 4.46.051.254-1.004-.242-1.492-2.21-2.164-9.125-3.121-16.739-4.851-26.43-6.004-5.031-.601-19.856-.601-24.887 0-8.77 1.043-16.3 2.676-23.883 5.176-4.242 1.395-4.863 1.73-4.863 2.602l1.293 1.433c.07 0 1.55-.488 3.285-1.082zm132.68 15.664c1.101-2.074.676-3.8-1.156-4.672-1.22-.578-2.446-.476-5.387.446-2.953.925-3.531.988-4.496.492-1.438-.742-1.414-.942.289-2.746 1.96-2.082 2.309-3.078 1.613-4.649-.949-2.144-2.98-2.574-6.168-1.297-1 .399-1.93.813-2.062.918-.559.438-3.067 1.211-3.93 1.211-1.184 0-2.281-.886-2.66-2.152-.367-1.234-.156-1.457 2.258-2.39 2.855-1.102 3.675-1.575 4.078-2.352.808-1.567.176-3.934-1.363-5.094-.938-.707-2.082-1.043-4.524-1.324-2.89-.332-4.2-1.38-4.402-3.516-.281-2.992 2.379-6.281 5.054-6.262.864.008 2.426.88 3.04 1.696.332.437.933 1.465 1.34 2.277 1.437 2.875 3.109 4.117 5.546 4.117 1.403 0 2.29-.465 2.867-1.507.157-.286.348-1.883.426-3.555.078-1.684.258-3.153.403-3.297.402-.402 2.644.348 3.73 1.25 1.727 1.426 2.012 3.437.98 6.887-.332 1.101-.667 2.566-.75 3.254-.265 2.285 1.004 4.367 2.883 4.718 1.47.278 2.29-.097 4.11-1.863l1.718-1.668.82.82c1.567 1.57 1.598 2.996.141 6.746-1.113 2.864-.972 4.872.43 6.137.774.7 1.727.852 3.117.496.696-.18 1.367-.265 1.485-.191.66.406-.153 2.683-1.524 4.27l-.777.902-2.13-2.711c-4.386-5.582-8.472-9.606-15.335-15.086-4.348-3.473-11.55-8.7-11.992-8.7l-.754.985c.07.18.691.715 1.371 1.191 1.719 1.2 6.46 5.293 11.09 9.575 4.496 4.16 8.484 8.382 12.476 13.203l2.801 3.39-.66.258c-1.89.739-2.598.922-3.55.922h-1.048zm2.996 4.324c.711-.207 1.906-.648 2.656-.98l1.364-.606.847.743c.957.84.934.836 1.563.5.547-.293.597-1.176.12-2.094-.32-.625-.288-.703.845-2.07.648-.786 1.523-2.118 1.945-2.97.64-1.292.762-1.812.762-3.214 0-1.941-.489-3.004-1.797-3.89-.684-.465-1.04-.54-2.13-.454-.722.063-1.5.192-1.73.29l-.312-.15c.058-.175.476-1.339.93-2.585 1.058-2.91 1.23-4.254.765-6.016-1.043-3.93-4.523-6.234-7.273-4.82-.457.234-1.395 1.027-2.078 1.762-1.125 1.203-1.25 1.277-1.25.754-.004-.325.328-1.762.738-3.204 1.308-4.62.758-7.746-1.77-10.074-1.304-1.203-2.562-1.863-4.468-2.351-1.864-.48-3.098-.274-4.204.699-1.203 1.055-1.535 2.043-1.675 4.977-.067 1.41-.192 2.558-.274 2.558-.492 0-1.219-.89-2.035-2.5-.512-1.008-1.383-2.336-1.933-2.95-2.981-3.312-7.934-3.394-11.145-.183-1.926 1.926-3.184 5.215-2.934 7.653.278 2.687 1.965 5.054 4.364 6.113.586.262 2.03.57 3.21.695 3.305.34 3.915.86 1.825 1.547-1.598.527-3.485 1.426-4.149 1.98-1.605 1.34-1.941 3.489-.894 5.743 1.105 2.383 2.879 3.738 5.222 3.98 1.692.172 3.329-.25 6.329-1.629 1.382-.64 2.605-1.16 2.71-1.16.11 0-.398.625-1.128 1.39-2.317 2.427-2.368 4.38-.164 6.516 2.125 2.059 4.32 2.297 8.425.907 1.172-.395 2.22-.72 2.329-.72l-.286.942c-.964 1.899-.332 3.711 1.657 4.715 1.28.645 3.144.703 5.023.156zm-198.102-3.687c-.714-.258-1.382-.543-1.484-.645-.254-.254 5.547-7.18 9.106-10.863 4.812-4.984 13.492-12.848 17.082-15.469.941-.687 1.246-1.05 1.191-1.43-.148-1.038-.98-.671-4.832 2.137-11.227 8.18-17.309 13.653-22.73 20.454-1.36 1.703-2.543 3.097-2.633 3.097-.262 0-1.317-1.344-1.871-2.379-.508-.957-.696-2.742-.282-2.742l.871.246c1.032.395 2.637.336 3.329-.117.343-.223.84-.898 1.105-1.5.625-1.41.484-2.871-.516-5.383-1.32-3.32-1.214-4.937.41-6.367l.868-.762 1.199 1.324c2.125 2.348 3.625 2.836 5.46 1.782 1.919-1.098 2.306-3.414 1.208-7.207-1.172-4.047-1.04-5.364.707-6.973 1.18-1.09 3.617-2 3.941-1.473.098.157.23 1.536.293 3.067.172 4.203.887 5.27 3.532 5.27 2.34 0 3.941-1.255 5.457-4.27 2.004-3.989 4.921-4.899 7.55-2.356 1.645 1.59 2.317 4.746 1.36 6.368-.723 1.234-1.719 1.683-4.516 2.05-1.812.239-2.812.496-3.52.91-1.71 1.004-2.734 3.614-1.988 5.059.578 1.113 1.192 1.52 3.782 2.504 3.156 1.195 3.25 1.293 2.707 2.715-.934 2.449-2.809 2.59-7.11.547-2.465-1.172-2.793-1.266-4.406-1.266-1.707 0-1.762.02-2.55.883-1.61 1.75-1.43 3.058.73 5.418.847.922 1.539 1.773 1.539 1.894 0 .442-1.485 1.446-2.14 1.446-.372 0-1.872-.375-3.337-.832-4.008-1.258-5.73-1.036-6.902.89-.617 1.008-.598 1.461.12 3.004.325.7.595 1.317.595 1.367 0 .266-2.188.004-3.325-.398zm5.055 3.488c1.84-.89 2.485-2.984 1.5-4.875-.332-.633-.347-.777-.082-.676 2.43.93 4.563 1.442 6.137 1.461 1.578.024 1.937-.062 3.094-.71 1.722-.965 2.859-2.579 2.859-4.067 0-1.3-.45-2.195-1.844-3.688-.594-.632-1.004-1.152-.91-1.152.094 0 1.313.528 2.711 1.176 3.727 1.73 5.563 2.043 7.71 1.309 2.86-.973 5.075-4.825 4.24-7.364-.59-1.785-1.821-2.683-5.54-4.035-1.914-.695-1.3-1.219 1.8-1.531 2.145-.219 4.032-.934 5.294-2 .95-.8 1.96-2.684 2.242-4.18.695-3.656-1.91-8.527-5.398-10.086-1.762-.789-4.313-.742-6.063.114-1.808.886-3.11 2.242-4.258 4.453-1.011 1.945-1.925 3.011-2.347 2.75-.153-.094-.258-1.047-.258-2.348-.004-2.711-.309-3.852-1.29-4.832-1.573-1.578-3.984-1.547-7.116.086-3.993 2.082-5.258 6.012-3.657 11.336.348 1.16.633 2.433.633 2.836v.722l-1.504-1.445c-1.734-1.664-2.922-2.137-4.394-1.738-2.489.672-4.543 3.457-4.758 6.46-.102 1.384 0 1.903.867 4.423.54 1.57.98 2.918.98 2.996l-.882-.102c-2.996-.824-5.219 1.188-5.028 4.555.106 1.91.848 3.539 2.594 5.707l1.23 1.52-.386.808c-.508 1.066-.484 1.406.129 1.836.566.398 1.082.238 2.043-.637l.531-.484 1.613.742c.883.41 2.04.852 2.563.98 1.406.344 3.902.184 4.945-.32zm-25.512-3.078c-.445-.535-.98-2.465-.98-3.531 0-1.004.559-2.567 1.02-2.86.605-.386 1.394-.16 2.296.657 1.063.96 1.805 2.36 2.04 3.86l.163 1.015-1.148.507c-1.555.684-2.988.836-3.39.352zm.684 3.848c-.832-.266-.832-.266 1.102-.653 1.062-.21 2.593-.734 3.402-1.156 1.121-.59 1.418-.672 1.242-.351-.918 1.707-3.785 2.785-5.746 2.16zm7.008 4.433c.558-.558.46-1.601-.207-2.23l-.578-.547.71-.598c2.5-2.105 2.676-6.77.294-7.918-.547-.261-.907-.738-1.38-1.82-.734-1.68-1.913-3.156-3.117-3.898-.84-.52-2.937-1.176-3.769-1.184-.543-.004-2.14 1.68-2.828 2.973-.598 1.132-.856 4.484-.453 5.93.199.726.18 1.062-.094 1.59-.973 1.886.207 4.48 2.629 5.773.766.406 1.371.507 3.066.511l2.114.008.894.89c.984.985 2.05 1.188 2.719.52zm228.945-8.18l-1.398-.597c-.77-.398-.797-.457-.66-1.465.199-1.437.886-2.7 2.043-3.746 1.535-1.387 2.617-1.027 3.113 1.031.32 1.336.183 2.469-.485 3.985-.394.906-.527 1.011-1.23.992zm-1.57 3.602c-1.215-.504-1.809-.949-2.317-1.73l-.394-.61 1.605.797c.918.453 2.368.922 3.391 1.098l1.785.3-.808.286c-1.09.387-2.09.344-3.262-.14zm-1.852 4.695l1.145-.98c.297-.426.613-.488 2.578-.516 2.047-.03 2.336-.093 3.402-.754 2.207-1.363 3.215-3.656 2.38-5.414-.329-.687-.356-1.015-.15-1.761.376-1.352.294-3.852-.167-5.14-.453-1.259-1.793-3.087-2.586-3.52-.703-.387-3.211.253-4.485 1.148-1.207.848-2.64 2.719-3.14 4.102-.27.75-.602 1.175-1.11 1.425-1.28.633-1.707 1.485-1.699 3.41.004 1.938.38 2.852 1.73 4.266l.852.89-.484.54c-.746.828-.817 1.043-.563 1.715.192.5.805.968 1.407 1.07zm-19.316 6.122c-1.637-.77-2.176-1.407-1.887-2.235.274-.77 1.488-1.633 2.817-1.988.949-.258 3.37-.16 3.68.148.085.086.152 1.063.152 2.168 0 2.371-.079 2.461-2.141 2.465-1.008 0-1.781-.164-2.621-.558zm7.36 1.445c.609-1.934.62-5.477.015-6.656l.453.359c.582.633 1.098 1.977 1.102 2.871 0 .942-.543 2.5-1.11 3.16zm.738 3.195c1.738-.797 3.253-2.89 3.585-4.949.13-.813.282-.977 1.368-1.508 1.48-.722 1.894-1.527 1.27-2.48-.446-.684-1.481-.828-2.29-.325l-.531.176c-.04-.058-.348-.644-.688-1.3-.8-1.536-2.222-2.626-3.879-2.97-1.457-.304-2.511-.011-3.34.915-.359.402-.73.508-1.785.512-1.425.007-3.433.703-4.757 1.644-.953.68-2.407 2.813-2.407 3.531 0 .88 1.426 3.149 2.442 3.887 1.168.844 3.086 1.574 4.695 1.79.895.116 1.406.347 1.906.843.594.597.856.68 2.07.676.829 0 1.77-.18 2.34-.442zM83.085 130.5c-.35-.652-.401-3.71-.065-4.047.453-.453 2.57-.523 3.925-.133 1.743.508 2.578 1.184 2.578 2.075 0 1.398-1.691 2.398-4.32 2.554-1.719.102-1.84.074-2.117-.449zm-3.265 1.152c-1.129-1.203-1.36-3.593-.511-5.34.609-1.265.949-1.332.671-.136-.304 1.32-.261 3.36.106 4.77.176.683.3 1.242.277 1.242zm3.735 3.52l.8-.684c.079-.203.672-.402 1.516-.508 3.106-.386 5.32-1.816 6.621-4.273l.707-1.336-.586-1.105c-1.297-2.438-3.57-3.868-6.484-4.075-1.422-.101-1.785-.214-2.145-.671-.855-1.086-3.054-1.184-4.918-.22-.863.442-2.214 1.962-2.617 2.938-.242.582-.426.742-.71.617-1.481-.648-2.645-.175-2.645 1.075 0 .757.414 1.183 1.847 1.902.817.41 1.012.633 1.012 1.16 0 .852 1.207 3.363 1.945 4.04 1.504 1.382 4.157 1.917 5.657 1.14zm222.953 38.324c-.805-.172-1.758-.508-2.113-.742l-.649-.426.54-.367c1.1-.746 2.12-1.856 2.276-2.484.231-.918-.5-2.657-1.406-3.344-.785-.594-2.094-1.016-5.265-1.692-1.547-.328-2.047-.55-2.7-1.203-1.28-1.281-1.039-1.754 1.278-2.504 2.5-.808 3.09-1.218 3.578-2.5.523-1.375.191-2.605-.973-3.629-1.066-.94-2-1.183-5.531-1.46-3.129-.247-4.156-.551-5.027-1.497-.657-.71-.903-2.16-.532-3.12.262-.676.278-.68 1.746-.532.817.086 2.399.219 3.516.293 1.942.137 2.067.113 2.77-.473 1.015-.855 1.347-1.793 1.226-3.464-.137-1.903-.945-3.082-3.047-4.438-.902-.582-1.86-1.34-2.129-1.684-.52-.66-1-2.082-.855-2.546l.23-.95c.192-.87 1.883-2.695 3.051-3.293 2.324-1.183 4.758-.586 5.867 1.438.516.941.579 1.363.61 4.082.031 2.726.094 3.148.629 4.187.703 1.368 2.129 2.454 3.445 2.625.723.094 1.121-.003 1.766-.437.804-.543 1.222-1.11 3.148-4.234.488-.79 1.016-1.438 1.176-1.438.156 0 .789.52 1.394 1.149 1.68 1.742 2.02 3.652 1.004 5.636-.203.395-1.316 1.7-2.476 2.899-2.996 3.101-3.61 4.722-2.57 6.765.94 1.84 2.628 2.301 5.167 1.41 2.059-.722 2.328-.664 2.68.582.59 2.114-.148 3.422-3.445 6.098-1.797 1.457-2.504 2.625-2.504 4.137 0 1.976.898 2.937 3.152 3.355.617.114.895.29.895.567 0 .61-1.387 1.824-2.86 2.504-1.586.734-1.394 1.074-2.254-3.977-.777-4.531-1.707-8.273-3.105-12.453-2.68-8.027-8.117-20.125-9.2-20.469-1.21-.383-1.195.617.06 3.758 4.632 11.602 7.445 20.684 9.019 29.11.418 2.226.812 4.288.883 4.585.152.64-.22.668-2.465.176zm5.625 5.613l.25-1.25c.004-.761.062-.812 1.738-1.441 3.563-1.332 5.617-3.445 5.828-5.992.184-2.219-.758-3.485-3.023-4.063l-1.074-.273 2.09-1.77c1.148-.972 2.41-2.254 2.796-2.84 1.582-2.382 1.762-5.101.508-7.625-1.172-2.359-3.082-2.953-6.129-1.906-.758.262-1.418.477-1.465.477-.382 0 .258-.832 2.192-2.856 2.937-3.07 3.793-4.746 3.777-7.386-.016-2.262-.75-3.98-2.492-5.82-2.05-2.173-3.848-2.739-5.688-1.802-1.125.575-2.05 1.668-3.238 3.833-.496.91-.98 1.652-1.074 1.652-.39 0-.547-.984-.586-3.692-.035-2.3-.145-3.12-.563-4.203-1.5-3.875-5.617-5.824-9.511-4.504-6.356 2.153-8.817 8.73-4.895 13.09.586.653 1.461 1.422 1.95 1.711 1.195.715 2.19 1.66 2.19 2.078 0 .27-.218.309-1.01.188-4.227-.645-5.942-.371-7.294 1.164-1.433 1.637-1.547 4.941-.246 7.226 1.219 2.125 3.586 3.274 7.242 3.508 1.047.067 2.383.18 2.973.254l1.07.13-1.668.526c-2.125.676-2.886 1.184-3.46 2.313-.618 1.21-.583 2.684.1 4.137 1.099 2.34 2.759 3.39 6.571 4.156 1.344.27 2.496.488 2.57.488l-.878.73c-1.157.837-1.786 2.098-1.582 3.176.496 2.622 3.507 4.438 7.98 4.813 1.848.152 1.871.164 2.016.875l.41 1.039zm-256.895-5.543c0-.586 1.715-9.191 2.293-11.496 1.387-5.554 3.801-12.746 7.137-21.273.836-2.14 1.523-4.086 1.523-4.328L64.88 136c-.492.406-3.64 6.914-5.45 11.254-3.472 8.348-5.304 14.355-6.593 21.668-.895 5.05-.664 4.777-2.953 3.516-1.043-.575-2.266-1.872-2.266-2.407l1.016-.351c2.824-.47 3.96-2.496 2.816-5.02-.3-.664-1.18-1.61-2.703-2.914-2.918-2.496-3.523-3.793-2.77-5.95.31-.89.598-.921 2.477-.273.762.262 1.754.473 2.203.473 2.809 0 4.344-2.953 2.946-5.664-.29-.562-1.493-2.035-2.672-3.273-1.18-1.239-2.301-2.621-2.489-3.079-.757-1.808-.199-3.812 1.528-5.468l.976-.938.563.531c.308.29.98 1.293 1.492 2.235 1.7 3.117 3.172 4.023 5.117 3.148 1.219-.55 2.496-1.968 2.817-3.129.14-.5.254-1.98.257-3.289 0-1.308.114-2.785.25-3.28.332-1.192 1.473-2.458 2.528-2.806 3.09-1.02 7.23 2.121 6.93 5.258-.141 1.446-.669 2.149-2.598 3.434-1.903 1.273-2.918 2.453-3.305 3.84-.508 1.812.156 3.847 1.484 4.535.633.328 1.125.36 2.915.207a68.99 68.99 0 013.46-.211l1.313-.024.07 1.391c.137 2.617-1.082 3.402-5.797 3.738-4.59.325-6.257 1.293-6.468 3.77-.172 1.992.832 2.973 3.949 3.863.851.242 1.64.535 1.758.653.328.332-.395 1.792-1.121 2.269-.356.234-1.883.688-3.387 1.004-2.953.629-3.727.937-4.512 1.8-1.605 1.774-1.363 3.759.606 4.962l.972.765c0 .38-1.316 1.008-2.707 1.301-1.836.387-2.293.39-2.293.027zm-1.215 4.922l.332-.965 2.32-.277c3.571-.43 5.735-1.473 6.79-3.273 1.039-1.77.62-3.66-1.035-4.684l-.7-.578c.047-.047 1.153-.305 2.454-.57 4.125-.844 6.144-2.29 6.914-4.942.855-2.933-.535-4.902-4.102-5.808-1.039-.262-1.098-.313-.566-.461.328-.094 1.297-.18 2.156-.196 6.008-.09 9.262-2.59 9.27-7.113.003-2.644-.708-4.02-2.5-4.844-1.114-.511-2.399-.554-4.938-.168-1.016.153-1.906.22-1.984.141-.32-.32.507-1.219 2.015-2.188 1.938-1.242 2.961-2.425 3.63-4.183 1.433-3.805-.802-8.234-5.208-10.305-2.11-.988-4.734-1.078-6.61-.219-1.624.747-3.046 2.207-3.84 3.95-.581 1.28-.679 1.828-.792 4.597-.074 1.778-.242 3.258-.39 3.403-.188.187-.622-.356-1.571-1.953-1.969-3.329-3.703-4.301-6.05-3.407-1.43.547-3.423 2.555-4.29 4.325-.594 1.207-.683 1.671-.683 3.421 0 2.797.8 4.422 3.546 7.204 1.914 1.933 2.762 3.03 2.344 3.03-.105 0-.805-.214-1.55-.476-1.598-.562-3.266-.613-4.208-.125-2.238 1.156-3.297 5.047-2.175 7.996.628 1.657 1.363 2.551 3.738 4.547l2.035 1.719-1.07.27c-2.13.539-3.114 1.73-3.086 3.738.031 2.765 2.55 5.308 6.535 6.597.777.25.894.395 1.039 1.286.21 1.27.512 1.632 1.281 1.546.48-.058.692-.285.95-1.035zm180.262 11.203l-.535-.695c-.297-.059-1.395-.266-2.441-.46-2.649-.493-4.454-1.22-5.38-2.173-1.456-1.488-1.488-1.715-1.59-11.617l-.089-8.984h27.68l-.07 9.222c-.075 9.036-.087 9.25-.606 10.227-.961 1.793-2.824 2.766-6.524 3.394-2.582.442-2.585.446-2.585 1.086v.594h25.949v-.594l-.535-.687c-5.301-.992-7.004-1.856-7.907-4.016-.754-1.804-.879-5.25-.785-21.855.078-14.738.13-16.422.504-17.567.848-2.566 2.598-3.73 6.774-4.504 1.91-.355 1.972-.386 1.902-.992l-.07-.62-12.918-.06-12.914-.062v.676c0 .668.02.676 2.66 1.2 3.082.605 4.523 1.183 5.617 2.241 1.371 1.325 1.484 2.164 1.484 11.047v7.934h-27.652l.094-8.153c.062-5.609.183-8.441.386-9.062.688-2.117 2.7-3.262 7.164-4.09 2.184-.402 2.477-.555 2.348-1.23-.082-.422-.637-.442-13-.5l-12.914-.063v.68c0 .664.047.687 2.086 1.078 2.602.5 4.984 1.644 5.71 2.742 1.118 1.688 1.114 1.578 1.196 20.145.078 17.754.004 19.797-.773 21.304-.863 1.672-2.703 2.743-5.719 3.32-2.578.497-2.5.465-2.5 1.094v.594h25.953zm-42.617.008c0-.492-.145-.605-.895-.726-2-.325-4.511-.903-5.296-1.227-2.34-.96-3.594-2.613-4.032-5.328-.16-.984-.254-8.559-.254-21.004V141.95h3.79c6.335 0 8.94.766 11.527 3.39 1.664 1.684 2.512 3.13 3.5 5.966.594 1.699.762 1.965 1.289 2.03.582.071.605.024.586-1.07-.012-.632-.2-3.773-.414-6.98l-.399-5.836-23.351-.058-23.356-.063-.285 4.703c-.156 2.59-.351 5.758-.433 7.047l-.149 2.34.649-.078c.574-.07.714-.281 1.246-1.863.843-2.524 1.91-4.41 3.382-6 2.446-2.645 5.375-3.528 11.723-3.528h3.79v19.465c-.005 19.93-.075 21.68-.942 23.363-1.2 2.328-3.27 3.332-8.64 4.196-.75.12-.895.238-.895.726v.586h27.859zm-67.621-.008l-.535-.691c-5.313-1.012-6.492-1.441-7.649-2.793-1.484-1.738-1.433-1.035-1.52-20.445-.054-12.098.005-18.235.184-19.293.528-3.153 1.856-4.446 5.43-5.301 2.098-.5 2.203-.555 2.137-1.121l-.07-.598h-23.81l-.073.621c-.067.606-.008.637 1.906.993 4.254.789 5.96 1.953 6.789 4.628.394 1.274.426 2.75.426 19.235 0 16.37-.035 17.972-.418 19.21-.516 1.669-1.332 2.669-2.77 3.391-1.129.567-3.836 1.328-4.726 1.328-.86 0-1.254.27-1.254.86v.57h25.953zm198.902-5.93l-1.394-1.648-.45-.836.645-.847c1.008-1.325 2.637-2.164 4.195-2.168 1.172 0 1.332.062 1.606.62.629 1.302-.996 4.403-2.801 5.337l-.766.351zm-1.758 3.4c-1.472-.587-3.097-2.849-3.093-4.31l.004-.78.695 1.19c.91 1.552 1.547 2.266 2.95 3.31.956.714 1.054.855.593.84zm4.051 2.644c1.512-.77 2.324-2.004 2.156-3.274-.023-.168.383-.808.899-1.43 2.101-2.523 2.77-4.949 2.082-7.538-.41-1.543-.52-1.665-1.926-2.094-2.426-.746-5.07-.184-7.496 1.597-.863.633-1.375.836-2.113.836-1.211 0-2.516 1.059-3.192 2.59-.515 1.16-.609 3.32-.195 4.395.324.836.219 1.011-.691 1.195-1.454.29-1.524 2.324-.094 2.684.351.086 1.144.03 1.762-.125 1.07-.278 1.171-.258 2.164.398 1.007.664 1.953 1.09 2.949 1.332.828.203 2.773-.094 3.695-.566zm-286.66-6.32c-1.82-1.704-2.64-3.934-1.793-4.872.566-.629 2.043-.62 3.356.016 1 .484 2.949 2.367 2.949 2.848l-3.055 3.093c-.164 0-.82-.488-1.457-1.086zm3.574 3.257a9.526 9.526 0 003.157-3.328c.675-1.195.957-1.027.605.367-.465 1.82-2.55 3.645-4.168 3.645-.617 0-.594-.04.406-.684zm1.086 3.43c.653-.195 1.688-.688 2.305-1.098 1.004-.664 1.2-.715 1.871-.48 1.719.601 3.059.09 3.059-1.168 0-.73-.547-1.297-1.461-1.512l-.63-.148.356-1.016c.762-2.184-.183-5.328-1.914-6.387l-1.664-.46c-.644 0-1.16-.204-1.785-.704-1.176-.937-3.285-1.879-4.633-2.062-1.445-.2-4.14.508-4.578 1.199-.39.617-.676 2.305-.625 3.707.047 1.332 1.121 3.676 2.262 4.941.547.606.863 1.192.863 1.602 0 1.555 1.285 3.004 3.195 3.601 1.297.407 1.969.403 3.38-.015zm108.602.672c1.168-.14 1.25-.196 1.25-.801 0-.606-.086-.66-1.235-.813-3.297-.437-5.28-1.68-9.933-6.203-3.317-3.23-20.258-21.812-20.258-22.222 0-.387 12.91-13.387 14.762-14.868 3.41-2.726 6.687-4.386 9.84-4.984 1.503-.285 1.585-.336 1.585-.96v-.661h-19.523v.664c0 .621.098.688 1.39.953 2.59.535 3.098 1.903 1.743 4.653-1.059 2.14-3.453 5.007-10.274 12.293-3.34 3.566-6.074 6.574-6.074 6.683 0 .254 16.586 18.3 19.086 20.766 4.399 4.336 7.395 5.605 13.297 5.633 1.703.011 3.656-.051 4.344-.133zm-88.375-4.961l-1.086-1.844c-.426-.95-.426-1.035-.047-1.453 1.144-1.266 3.969-2.149 5.578-1.742.746.187 1.113 1.02.86 1.965-.278 1.03-1.919 2.82-3.137 3.406-1.344.652-1.422.64-2.168-.332zm-1.801 3.183c-1.836-.73-3.387-3.562-2.906-5.308l.187-.692.317 1.051c.484 1.63 1.16 2.797 2.336 4.059 1.105 1.18 1.113 1.304.066.89zm3.504 2.657c1.035-.47 1.957-1.637 1.984-2.512.008-.297.43-.742 1.125-1.188 1.32-.847 2.762-2.683 3.262-4.152.488-1.426.48-3.91-.016-4.406-.562-.563-2.707-1.52-3.797-1.692-1.27-.203-3.511.23-5.023.97-1.004.487-1.34.554-1.871.35-.973-.37-2.371.106-3.438 1.177-1.14 1.136-1.757 2.886-1.644 4.664l.078 1.304h-.879c-1.453-.004-2.113 1.407-1.129 2.395.403.402.75.48 1.871.437 1.336-.054 1.403-.03 2.262.922 1.863 2.063 4.887 2.785 7.215 1.73zm233.52-5.407c-1.934-1.011-3.75-3.605-3.22-4.593.758-1.418 3.563-1.246 5.766.355 1.114.809 1.121.82.836 1.637-.43 1.222-1.765 3-2.25 2.988zm3.972 2.016c.992-1.074 2.563-3.98 2.594-4.805l.242.207c.492 1.61-.883 4.328-2.656 5.246-1.11.575-1.156.407-.18-.648zm1.414 3.344c.633-.27 1.582-.965 2.113-1.54.93-1.007 1.008-1.042 2.383-1.042 1.11 0 1.531-.106 1.903-.477.96-.96.214-2.383-1.25-2.383l-.774.004.082-1.336a5.89 5.89 0 00-1.457-4.297c-1.035-1.183-1.867-1.539-3.453-1.48-1.035.035-1.723-.105-2.86-.602-2.171-.937-4.476-.918-6.413.063-.774.387-1.543.879-1.72 1.086-.495.598-.218 3.82.442 5.101.645 1.254 2.168 2.946 3.266 3.625l.805 1.04c0 1.074 1.437 2.32 3.21 2.777.98.25 2.348.055 3.723-.54zm-45.746 21.617v-2.297h1.64c2.208 0 2.766.43 2.766 2.117 0 1.735-.531 2.196-2.715 2.352l-1.691.12zm0 8.574v-3.18l2.156-.152c2.535-.18 4.196-.805 5.215-1.965 1.766-2.011 1.547-5.629-.441-7.3-1.274-1.075-2.774-1.368-6.973-1.368h-3.766v17.145h3.809zm-17.66-6.699c.613-1.77 1.172-3.215 1.242-3.215.102-.004 1.445 3.918 2.012 5.89.152.528.125.536-2.11.536h-2.261zm-2.774 8.152l.61-1.726 6.64-.133 1.125 3.586h1.985c1.09 0 1.976-.027 1.972-.063-.003-.03-1.332-3.863-2.953-8.511l-2.941-8.45h-4.625l-3.063 8.45c-1.687 4.648-3.066 8.48-3.07 8.511-.004.036.832.063 1.856.063h1.863zm-17.367-2.37l.063-4.098 2.738 4.007c1.508 2.203 2.856 4.051 2.996 4.106.14.055 1.234.07 2.43.031l2.176-.07-3.336-4.617c-1.836-2.536-3.29-4.735-3.227-4.88.059-.144 1.402-1.84 2.988-3.765 1.582-1.926 2.88-3.559 2.88-3.629 0-.074-.993-.129-2.204-.125l-2.203.004-2.617 3.441-2.621 3.442-.067-3.445-.062-3.45h-4.035v17.145h4.035zm-40.476-2.626l.062-6.719 3.196 6.72 3.195 6.722h5.398v-17.145h-3.566l-.125 13-3.113-6.441-3.114-6.438-2.898-.07-2.899-.066v17.16h3.801zm-10.34 5.235l-.07-1.489-7.977-.132v-4.274h7.14v-3.094h-7.14v-3.574h7.617v-3.094h-11.43v17.145h11.93zm-21.86-5.528v-7.015l2.442-.07 2.441-.067.14-2.977h-14.093l.074 1.489.07 1.488 2.438.066 2.442.07v14.032h4.046zM134 223.56l-.07-1.489-7.977-.132v-4.274h7.14v-3.094h-7.14v-3.574h7.617v-3.094h-11.425v17.145h11.925zm-20.063-6.88c1.7-4.6 3.126-8.464 3.168-8.581.047-.121-.78-.184-1.89-.145l-1.973.07-2.156 6.516-2.152 6.516-4.29-13.14-2.085-.005c-1.145-.004-2.082.05-2.082.121 0 .098 5.304 14.57 6.097 16.645.114.297.567.37 2.211.37h2.067zm93.102 8.235c2.586-.71 4.152-2.625 4.152-5.074 0-2.723-1.664-4.028-6.578-5.168-1.883-.434-2.37-.723-2.73-1.582v-1.324c.816-1.973 4.281-1.84 4.933.183l.27.836 1.848.07 1.843.07-.12-1.085c-.298-2.633-2.59-4.3-5.895-4.281-.98.007-2.223.136-2.75.293-4.16 1.218-5.801 5.835-2.938 8.253 1.031.872 1.977 1.27 4.574 1.942 1.157.297 2.364.71 2.676.914 1.16.762.953 2.488-.379 3.16-.324.164-1.199.3-1.945.3-1.695.005-2.555-.62-2.781-2.03l-.153-.942-1.996-.066-1.996-.07.14 1.187c.145 1.219.645 2.426 1.325 3.203 1.402 1.594 5.149 2.129 8.5 1.211zm99.211 14.262l-.535-.25c0-.07.586-1.711 1.3-3.64 2.77-7.474 4.477-16.032 5.485-27.5.379-4.31.45-6.75.215-7.364l-1.227-.078c-.133.164-.472 1.902-.758 3.867-1.906 13.137-3.488 20.383-6.253 28.625l-1.696 5.05-.699-.41c-1.004-.585-2.945-2.542-3.098-3.124-.12-.457-.03-.497 1.121-.497 2.43 0 3.836-1.785 3.22-4.085-.286-1.051-.825-1.665-4.208-4.747-1.508-1.375-1.98-2.402-1.625-3.527.192-.594.707-.625 2.508-.14 1.762.472 2.7.445 3.785-.11 1.723-.879 2.195-3.3.973-5.016-.559-.785-2.223-2.062-4.735-3.64-2.75-1.719-3.39-3.434-2.02-5.371l.99-.977c.362-.008 1.589.79 3.46 2.242 1.906 1.48 2.973 1.743 4.352 1.075.742-.36 1.25-.84 1.699-1.602.95-1.621.851-3.11-.379-5.676-1.148-2.39-1.36-3.351-.988-4.476 1.148-3.489 7.828-4.043 9.375-.782.824 1.743.523 2.989-1.617 6.668-.989 1.704-1.102 3.73-.301 5.477 1.234 2.695 3.047 2.77 6.937.281 2.301-1.472 2.82-1.351 3.215.742.344 1.825-.082 3.34-1.266 4.52-.984.98-1.714 1.316-4.789 2.219-3.601 1.058-5.351 2.804-5.05 5.047.254 1.89 1.46 2.824 4.3 3.32l1.582.273v.82c0 .962-.441 1.903-1.226 2.614-.871.789-1.367.976-3.988 1.504-2.93.586-3.899 1.012-4.7 2.062-1.187 1.559-.976 3.22.61 4.723.875.832.91 1.102.203 1.539-.54.34-3.2.559-4.172.344zm-2.73 4.324l.648-1.066 1.07.175c.59.094 2 .168 3.133.164 1.805-.011 2.234-.101 3.445-.718 2.375-1.215 3.508-3.567 2.579-5.36l-1.122-1.465c-.82-.765-.914-.71 2.27-1.351 2.832-.566 4.254-1.223 5.57-2.578 1.903-1.961 2.625-5.692 1.446-7.469-.649-.977-2.235-1.82-3.801-2.031-.633-.082-1.203-.238-1.27-.348-.183-.293.973-.812 3.078-1.387 3.563-.972 5.786-2.539 7.008-4.933 1.656-3.246.742-8.29-1.773-9.762-1.832-1.074-3.656-.617-7.446 1.856l-.808.53.125-1.058c.078-.637.52-1.722 1.113-2.726 1.746-2.946 2.121-5.375 1.211-7.805-.68-1.82-1.879-3.106-3.75-4.027-1.465-.723-1.777-.786-3.86-.786-4.566 0-7.636 2.043-8.738 5.82-.503 1.72-.199 3.673.95 6.048 1.023 2.129 1.113 2.394.902 2.738-.113.18-.785-.2-1.992-1.125-1.992-1.527-3.34-2.176-4.524-2.164-1.175.008-2.62.777-3.468 1.848-2.387 3.011-2.368 6.355.046 9.03.86.95 1.133 1.153 4.391 3.274.957.621 1.703 1.168 1.656 1.215-.046.047-.668-.07-1.382-.262-3.215-.855-5.227-.004-6.082 2.578-.93 2.79.085 5.23 3.328 8.024l2.074 1.785-1.145.262c-.629.14-1.37.398-1.648.574-1.387.863-1.75 3.055-.848 5.078.606 1.356 2.774 3.543 4.52 4.563.793.46 1.191.84 1.129 1.07-.38 1.367-.383 2.094-.008 2.465.68.68 1.277.476 1.973-.676zm-249.145-4.414c-1.406-.434-1.453-.816-.25-1.988 1.39-1.352 1.61-2.317.879-3.832-.711-1.465-1.899-2.118-5-2.735-2.91-.582-3.969-1.062-4.7-2.14-.609-.895-.945-2.325-.62-2.649.12-.12.851-.336 1.625-.476 3.093-.575 4.168-1.516 4.168-3.653 0-2.468-1.606-3.816-5.954-5.008-2.84-.777-4.421-1.976-5-3.792-.511-1.602.094-4.434.946-4.434.215 0 1.027.387 1.808.855 2.528 1.532 3.625 2 4.657 2 .847 0 1.129-.136 1.87-.918 1.673-1.754 1.833-4.199.446-6.671-1.762-3.133-1.867-3.41-1.867-4.793 0-1.696.64-2.747 2.144-3.528 1.43-.738 3.934-.64 5.489.219 2.39 1.32 2.754 3.328 1.172 6.508-1.215 2.437-1.426 3.937-.77 5.422.621 1.398 1.918 2.402 3.102 2.39 1.257-.008 1.804-.277 4.18-2.054 1.16-.864 2.257-1.575 2.44-1.575.61 0 1.766 1.895 1.766 2.899 0 1.21-1.347 2.703-3.68 4.082-2.25 1.332-4.054 3.11-4.421 4.355-.25.856-.227 1.11.195 2.063.262.597.777 1.281 1.145 1.523.82.54 2.699.574 4.789.09.816-.187 1.55-.27 1.636-.184l.184 1.106c.027 1.195-.414 1.805-2.848 3.918-2.312 2.008-2.976 2.91-3.129 4.27-.238 2.132 1.07 3.5 3.368 3.5.812 0 1.093.09 1.093.355 0 .484-1.535 2.148-2.758 2.992l-1 .688-1.21-3.387c-1.512-4.227-1.942-5.64-2.985-9.816-1.355-5.418-2.758-12.961-3.851-20.715-.504-3.559-.649-3.985-1.352-3.883-.5.07-.539.21-.613 2.097-.153 4.004.988 14.215 2.355 21.075.906 4.547 2.004 8.437 3.524 12.488.664 1.762 1.16 3.246 1.105 3.305-.223.222-3.379.25-4.078.03zm8.098 5.32c.398-.113.433-.297.312-1.597l-.137-1.47 1.118-.698c1.78-1.114 3.867-3.22 4.48-4.524.692-1.476.73-3.054.098-4.094-.528-.867-1.117-1.23-2.602-1.609l-1.047-.266 1.72-1.488c3.003-2.59 3.905-4.055 3.905-6.351.004-3.825-2.453-5.575-6.39-4.563l-1.43.367.715-.586c.39-.32 1.426-1.007 2.293-1.527 5.344-3.191 6.472-7.727 2.906-11.68-2.129-2.36-4.121-2.203-7.867.621-.95.711-1.777 1.293-1.848 1.293-.363 0-.02-1.183.883-3.039.871-1.785 1.023-2.336 1.098-3.898.07-1.574-.004-2.016-.555-3.246-1.746-3.89-6.574-5.75-11.215-4.317-1.332.41-1.847.735-2.957 1.844-1.617 1.621-2.144 2.95-2.137 5.379.004 1.867.57 3.54 1.88 5.582.859 1.34 1.238 2.89.706 2.887l-1.047-.496c-1.527-1.059-4.039-2.121-4.996-2.121-2.058 0-3.625 1.554-4.312 4.28-1.024 4.067.777 8.06 4.441 9.84.715.344 2.25.903 3.41 1.239 1.164.332 2.317.715 2.567.852.562.296.355.69-.363.69-1.063 0-3.028.75-3.84 1.462-2.582 2.266-.934 7.734 2.925 9.703.504.262 2.09.71 3.52 1.008 1.434.293 2.648.566 2.703.613l-.625.852c-.969 1.027-1.262 1.64-1.262 2.668 0 1.812 1.106 3.261 3.215 4.203 1.29.578 4.168.75 6.336.375 1.07-.184 1.106-.168 1.399.543.265.64.25.793-.145 1.23l-.445.5 1.07-.168c.59-.09 1.274-.222 1.52-.293zm225.62-.031c-1.171-1.414-1.784-4.164-1.183-5.293.438-.816 1.067-.984 2.13-.559 1.16.465 2.96 2.395 3.358 3.606.286.851.27.89-.601 1.64-.488.426-1.36.93-1.934 1.126l-1.047.359zm1.313 4.004v-.223c.805-.027 3.508-1.422 4.7-2.426 1.214-1.02 1.32-1.02.796-.02-1.047 1.997-3.87 3.368-5.496 2.669zm8.254 3.18c.777-.707.512-1.813-.566-2.371-.645-.336-.676-.403-.344-.77 1.227-1.356 1.723-4.39 1-6.117-.453-1.086-1.434-1.973-2.379-2.149-.55-.105-.883-.375-1.21-.98-.544-1.012-2.255-2.563-3.567-3.234-1.137-.586-4.067-.852-4.836-.438-.281.148-.848.969-1.258 1.82-.703 1.453-.742 1.68-.645 3.625.082 1.618.25 2.375.75 3.418.536 1.121.602 1.45.391 2.004-.851 2.238 2.106 5.106 5.262 5.106.746 0 1.879-.168 2.515-.375 1.141-.368 1.184-.364 2.23.238 1.24.707 2.044.773 2.657.223zm-223.57-6.754c-1.54-.696-2.422-1.403-2.422-1.93 0-1.64 2.766-4.496 4.355-4.496 1.915 0 1.934 3.621.028 6.117l-.766.781zm-1.828 3.523c-1.02-.355-2.227-1.308-2.758-2.18-.777-1.27-.504-1.445.625-.402 1.191 1.094 3.695 2.39 4.633 2.399l.238.234c-.457.297-1.82.27-2.738-.05zm-3.27 3.129c1.27-.715 1.313-.723 2.227-.355 1.515.605 3.926.492 5.43-.258 1.804-.899 2.667-2.305 2.617-4.25-.032-1.04.14-1.918.613-3.215 1.035-2.836.625-5.508-1.16-7.559-.625-.715-2.692-.734-4.543-.043-1.492.559-3.598 2.344-4.301 3.653-.344.636-.613.855-1.066.855-1.52 0-2.715 1.875-2.727 4.285-.008 1.32.106 1.75.777 2.942.434.765.758 1.414.715 1.437l-.742.469c-.566.355-.656.555-.598 1.293.055.648.227.95.672 1.172.762.383.594.418 2.086-.422zm189.762-5.043l.062-7.082h4.993v-3.098h-14.047v3.098h5v6.984c0 3.84.074 7.059.168 7.153.093.09.976.136 1.965.097l1.796-.07zm-44.649.274l.06-6.93 3.253 6.87 3.254 6.868 2.64.07 2.641.067v-17.399h-3.562l-.067 6.45-.062 6.445-3.098-6.441-3.094-6.442-2.797-.004-2.796-.008v17.383h3.562l.063-6.93zm-38.39 2.601v-4.328l2.918 4.266 2.918 4.27 2.32.07c1.274.038 2.32-.02 2.32-.13 0-.105-1.5-2.273-3.332-4.816-2.851-3.96-3.285-4.672-3.015-4.988 2.379-2.848 5.87-7.168 5.87-7.27 0-.07-.991-.129-2.202-.129h-2.203l-5.477 7.149-.062-3.574-.067-3.575h-3.797v17.383h3.809zm-29.047.52v-3.813h6.176l.133 7.5h3.808v-17.14l-1.965-.07-1.965-.067v6.683h-6.187v-6.668h-3.813v17.383h3.813zm95.89 3.07c1.739-.875 2.497-1.75 2.938-3.387.785-2.914-.922-4.945-5.035-5.992-.844-.215-1.91-.488-2.375-.61-1.195-.308-1.899-1.038-1.887-1.96.012-1.352.95-2.075 2.688-2.075 1.265 0 2.043.543 2.433 1.696l.27.804h3.527l-.054-.917c-.083-1.38-.965-2.77-2.282-3.583-.972-.597-1.445-.722-3.148-.812-4.453-.234-7.488 1.957-7.488 5.398 0 2.73 1.742 4.125 6.488 5.2 2.195.496 2.844 1.03 2.75 2.277-.106 1.406-.946 1.96-2.969 1.96-1.398 0-1.605-.065-2.113-.655l-.723-1.489-.156-.832h-3.754l.004 1.012c.012 1.973 1.266 3.7 3.21 4.414 1.259.461 1.626.504 3.868.43 1.95-.067 2.387-.168 3.809-.88zm-46.976-2.2c-.992-.452-1.945-1.648-2.266-2.843-.437-1.617-.195-5.813.399-6.957.726-1.406 1.777-2.024 3.43-2.024 2.41 0 3.625 1.31 4.058 4.38.426 2.995-.39 6.222-1.805 7.152-.847.554-2.89.71-3.816.293zm5.477 2.36c1.613-.789 3.046-2.379 3.734-4.148.703-1.797.77-5.739.133-7.57-1.32-3.813-3.953-5.481-8.32-5.274-1.77.082-2.438.223-3.407.723-3.199 1.644-4.828 5.476-4.183 9.824.73 4.906 3.726 7.39 8.66 7.176 1.648-.075 2.347-.223 3.383-.73zm-67.11.117c2.106-.93 3.414-2.691 3.426-4.61l.008-.901-1.957.07-1.953.07-.149.711c-.453 2.211-2.887 3.242-4.48 1.899-1.172-.985-1.582-2.438-1.578-5.586.004-2.278.09-2.922.504-3.832.707-1.532 1.406-2.122 2.527-2.122 1.66 0 3.035 1.18 3.035 2.606 0 .457.145.488 2.055.488h2.054l-.12-1.082c-.192-1.703-1.258-3.187-2.883-4.02-1.805-.921-5.004-1.152-6.754-.484-1.563.598-2.973 1.992-3.782 3.742-.656 1.418-.687 1.649-.687 4.829 0 3.293.012 3.359.781 4.93.91 1.843 2.274 3.132 3.856 3.64 1.53.496 4.585.32 6.097-.348zm-25.515-2.484c-1.559-.703-2.48-2.813-2.48-5.656 0-2.555.394-3.95 1.437-5.07.91-.97.91-.973 2.707-.973 1.738 0 1.828.03 2.629.836 2.242 2.254 1.996 8.824-.395 10.562-.82.594-2.898.758-3.898.3zm5.761 2.234c2.711-1.336 4.14-4.082 4.137-7.945-.012-6.004-3.152-9.188-8.805-8.918-3.441.164-5.515 1.512-6.867 4.46-.87 1.903-1.02 5.5-.32 7.794 1.168 3.844 3.957 5.668 8.332 5.465 1.629-.078 2.25-.23 3.523-.856zm196.438.973c-.203-.512-.445-1.469-.531-2.129l-.16-1.2.921-.382c1.356-.566 2.778-.7 4.067-.371 1.433.355 1.976.84 1.976 1.75 0 1.441-2.8 3.262-5.02 3.262-.804 0-.913-.082-1.253-.93zm-2.996 2.066c-1.352-1.386-1.797-4.32-.84-5.582.297-.39.332-.297.34.89.008 1.481.531 3.517 1.21 4.685.571.988.255.992-.71.007zm4.148 3.606l1.188-1.106.722-.77c.137-.007.993-.374 1.907-.816 2.285-1.109 3.62-2.539 4.285-4.59.285-.882.468-1.8.406-2.035-.063-.238-.676-.949-1.367-1.578-1.688-1.543-3.211-2.02-6.14-1.926-1.684.055-2.403-.027-3.106-.343-2.09-.946-5.032.84-5.985 3.629-.199.586-.363 1.254-.363 1.476 0 .36-.102.383-.82.16-.664-.203-.934-.175-1.426.149-.613.402-.816 1.36-.418 1.984.234.371 1.785 1.024 2.43 1.024.351 0 .617.293.941 1.05.79 1.844 2.441 3.375 4.293 3.977.824.27 2.602.121 3.453-.285zM49.88 254.246c-3.203-1.488-3.445-3.82-.465-4.441 1.352-.282 2.52-.157 4.004.43.902.35.914.374.766 1.335a16.158 16.158 0 01-.52 2.106l-.371 1.133-1.11-.004c-.66 0-1.597-.227-2.304-.559zm5.633 2.566c1.3-2.757 1.61-3.84 1.636-5.695l.012-1.191.38.699c.886 1.64.136 4.793-1.403 5.887zm1.273 2.672c1.399-.652 2.828-2.148 3.461-3.625.367-.851.566-1.05 1.063-1.05 1.078 0 2.23-.63 2.402-1.313.344-1.363-.762-2.316-2.094-1.809-.597.227-.637.196-.777-.656-.235-1.37-1.442-3.285-2.531-4.008-1.313-.867-3.41-1.046-4.25-.367-.485.395-.715.43-1.426.235-1.274-.352-4-.09-5.406.52-1.164.503-3.418 2.57-3.418 3.128 0 .637.859 2.816 1.453 3.691.996 1.473 3.101 2.903 4.855 3.301l1.196.922c1.003 1.602 3.32 2.04 5.472 1.031zm213.293 35.2c-2.297-1.145-2.308-1.094.918-3.922 6.582-5.774 12.652-12.965 18.945-22.446 2.957-4.453 3.356-5.242 2.914-5.77l-.601-.358c-.172 0-1.649 1.742-3.285 3.87-7.692 10.005-13.149 16.036-20.813 22.989l-2.18 1.98-.464-.914c-.684-1.336-1.282-3.562-1.11-4.11.153-.472.16-.472 1.141.028 1.973 1.008 3.547.559 4.484-1.273.653-1.285.52-2.719-.496-5.309-.414-1.047-.808-2.449-.883-3.117-.125-1.11-.074-1.281.594-2.023l.727-.809 1.027.988 1.953 1.606c1.832 1.222 4.051.59 4.934-1.41.64-1.45.476-2.211-1.297-5.95-1.277-2.695-1.469-3.273-1.469-4.488 0-1.293.063-1.445.805-2.066 1.047-.875 1.871-1.075 2.41-.586.23.207.816 1.344 1.309 2.523.488 1.18 1.148 2.453 1.464 2.832.82.973 2.028 1.328 3.27.957 2.45-.722 3.457-2.34 3.746-6.027.195-2.512.567-3.45 1.684-4.281 1.5-1.121 4.652-.637 6.453.992 2.785 2.508 1.914 5.805-2.067 7.808-2.773 1.403-3.953 2.977-3.953 5.282 0 2.699 1.09 3.5 4.645 3.43 1.308-.028 2.726.007 3.152.074.711.113.774.191.774 1.003-.004.997-.891 3.06-1.582 3.672-.711.63-2.118 1.141-3.153 1.141-.515 0-2.097-.281-3.512-.621-3.34-.805-4.937-.727-6.214.3-1.102.887-1.63 2.235-1.387 3.536.137.734.523 1.262 1.82 2.5.906.863 1.649 1.73 1.649 1.93 0 .398-1.028 1.437-1.832 1.847-.899.461-2.375.297-5.04-.566-2.94-.95-3.788-1.008-5.206-.363-1.743.789-2.364 2.41-1.614 4.21l.356 1.184c0 .543-1.688.387-3.016-.273zm4.633 3.664c.578-.282 1.254-.844 1.504-1.25.5-.825.601-2.582.207-3.618l-.14-.75c.058-.054 1.292.282 2.741.75 2.942.95 4.739 1.086 6.47.489 3.366-1.168 5.448-4.75 4.179-7.203-.348-.668-1.406-1.774-2.766-2.883l-.597-.488.753-.008c.418-.004 1.918.273 3.336.613 6.04 1.457 9.79-.29 11.497-5.355 1.644-4.88-.704-7.536-6.239-7.075-1.515.125-1.847.094-1.847-.187 0-.457 1.226-1.465 2.683-2.203 1.684-.852 3.39-2.54 4.16-4.106.563-1.144.657-1.629.653-3.36 0-1.745-.094-2.198-.66-3.284-2.188-4.168-8.06-6.266-11.954-4.274-2.597 1.328-3.808 3.461-4.132 7.29-.2 2.355-.508 3.238-.961 2.753-.118-.125-.543-1.015-.946-1.984-.988-2.387-1.8-3.488-2.992-4.067-1.312-.632-2.598-.609-4.082.082-3.289 1.536-4.664 4.262-3.926 7.81.153.737.868 2.483 1.59 3.886.723 1.402 1.27 2.594 1.215 2.648-.055.055-.59-.336-1.187-.863-1.274-1.117-2.45-1.664-3.59-1.664-1.23 0-2.942 1.277-3.828 2.855-.657 1.176-.73 1.504-.707 3.215.02 1.567.175 2.317.886 4.227.477 1.277.785 2.316.692 2.312l-.77-.347c-1.508-.864-3.664-.149-4.48 1.48-1.043 2.07-.828 4.188.773 7.586l1.02 2.164-.672.813-.684 1.183c-.015.977 1.32 1.238 2.473.48l.687-.452 1.215.902c3.13 2.332 6.117 3 8.426 1.883zM90.953 295.18l.266-.774c.863-2.172.597-3.574-.871-4.574-1.368-.934-2.68-.914-5.727.07-2.922.95-4.031 1.047-5.246.473-.93-.441-1.82-1.555-1.633-2.043.07-.184.668-.754 1.324-1.273 1.547-1.215 2.204-2.278 2.204-3.559 0-2.09-1.778-3.676-4.125-3.688-.59 0-2.18.262-3.528.59-3.933.953-5.418.754-6.883-.914-.671-.761-1.496-2.773-1.496-3.644 0-.598.926-.781 3.719-.73 2.445.042 2.934-.012 3.598-.415 1.992-1.207 1.988-4.441-.008-6.515-.418-.438-1.457-1.176-2.309-1.645-2.828-1.555-3.86-2.875-3.843-4.902.015-2.36 2.375-4.399 5.34-4.614 2.835-.203 4.062 1.125 4.285 4.649.07 1.137.308 2.566.527 3.183.484 1.38 1.871 2.688 3.234 3.051 1.957.528 3.153-.222 4.25-2.668 1.528-3.39 1.75-3.804 2.11-3.941.629-.242 2.363.867 2.804 1.793.555 1.172.215 2.52-1.484 5.914-1.613 3.215-1.844 4.547-1.04 5.98.669 1.192 1.583 1.73 2.927 1.73 1.105 0 1.488-.222 3.859-2.237 1.059-.899 1.102-.914 1.563-.497l.734 1.31c.238.784.16 1.175-.715 3.726-1.117 3.242-1.246 4.757-.512 5.957.98 1.613 2.508 1.984 4.301 1.05l1.102-.5c.37 0-.145 2.684-.77 4.032l-.703 1.507-3.566-3.332c-7.664-7.16-13.239-13.468-21.055-23.824-1.277-1.691-2.016-2.125-2.309-1.36-.254.665.13 1.446 2.48 5.013 6.47 9.828 12.712 17.261 19.641 23.39 1.415 1.246 2.532 2.38 2.489 2.512-.184.55-2.914 1.816-3.922 1.82zm4.285 2.93c.719-.34 1.883-1.051 2.586-1.583l1.278-.964.746.453c.972.593 1.968.593 2.285 0 .336-.63.344-.606-.5-1.567l-.75-.855.972-2.07c1.165-2.481 1.477-3.587 1.473-5.169-.012-3.207-2.465-5.168-5.09-4.074-1.062.446-1.074.703.106-2.594 1.293-3.605 1.047-5.851-.88-7.984-2.05-2.273-4.21-2.18-6.901.305-1.254 1.156-1.215.996.574-2.485 1.898-3.68 2.093-6.199.68-8.617-1.012-1.722-3.606-3.242-5.547-3.242-1.157 0-2.59.809-3.387 1.91-.375.52-1.031 1.801-1.453 2.852-.422 1.047-.86 1.906-.973 1.906-.441 0-.762-1.137-.934-3.332-.28-3.598-1.425-5.574-3.93-6.8-4.128-2.02-9.952.054-12.034 4.288-1.942 3.942-.121 8.492 4.332 10.828 1.64.864 2.586 1.606 2.586 2.04 0 .19-.836.269-2.797.253-2.457-.011-2.918.047-3.785.512-1.868 1-2.547 2.973-1.903 5.5 1.48 5.77 5.512 7.938 11.852 6.379 1.39-.34 2.836-.621 3.207-.621.652 0 .625.05-.793 1.371-2.285 2.121-2.68 3.543-1.594 5.727.762 1.53 2.148 2.742 3.887 3.402 1.797.68 4.14.516 6.984-.48 1.145-.407 2.18-.735 2.3-.735.118 0 .052.52-.151 1.152-.657 2.051.046 3.715 1.941 4.602 1.387.644 3.86.512 5.613-.309zm156.309-8.235c-1.121-.172-1.309-.469-1.309-2.063.004-1.851.332-3.035 1.102-3.949 1.222-1.457 2.777-.597 3.535 1.953.55 1.844.398 3.649-.32 3.848-.75.211-2.301.32-3.008.211zm-.953 3.648l-1.04-.703c-.296-.355-.253-.379.477-.215 1.063.239 4.14.227 5.29-.015 1.187-.25.964.183-.41.808-1.15.524-3.266.586-4.317.125zm5.12 5.57c.563-.566.606-1.163.126-1.8-.5-.664-.461-.758.527-1.27 1.797-.925 3.38-3.246 3.39-4.972.009-1.028-.554-2.332-1.132-2.645-.36-.191-.492-.586-.586-1.742-.144-1.734-.984-3.785-2.035-4.965-.402-.449-1.328-1.14-2.063-1.527l-1.332-.711-1.363.746c-2.305 1.258-3.726 3.61-4.035 6.656-.102 1.028-.29 1.551-.703 1.969-.703.715-.887 1.414-.73 2.785.265 2.383 2.495 4.516 5.331 5.102 1.137.238 1.332.367 1.746 1.176l.844 1.293c.524.523 1.442.48 2.016-.094zm-145.237-9.222c-1.344-.164-1.485-.41-1.391-2.453.066-1.52.2-2.004.805-2.984.625-1.016.836-1.184 1.59-1.247.769-.066.933.028 1.472.82.777 1.145 1.203 3.055.992 4.458-.09.601-.238 1.137-.328 1.187-.316.184-2.316.32-3.14.22zm-1.07 3.664l-1.141-.805c-.418-.472-.414-.472.828-.152 1.496.39 3.539.418 4.797.067 1.238-.34 1.32-.149.23.523-1.101.684-3.605.875-4.715.367zm.972 5.695l.922-1.304c.363-.813.574-.988 1.293-1.106 1.71-.277 3.015-.906 4.11-1.992 1.937-1.922 2.347-4.95.827-6.144-.46-.36-.574-.723-.676-2.098-.187-2.613-1.593-5.07-3.562-6.203-1.645-.945-1.57-.942-2.941-.246-2.356 1.191-3.91 3.586-4.305 6.617-.117.894-.363 1.496-.844 2.05-.566.65-.68.997-.68 2.055 0 2.246 1.094 4.004 3.133 5.04 1.13.57 1.156.609.805 1.113-1.07 1.531.426 3.261 1.918 2.218zm151.066 10.012c-.597-1.765.207-4.36 1.676-5.406l.652-.316c-.058.117-.39.804-.738 1.527-.348.719-.777 2.168-.953 3.215l-.324 1.902zm4.746 1.094c-.96-.375-1.078-.508-1.144-1.266-.04-.465.164-1.468.445-2.226l.516-1.383 1.293.133c2.219.23 4.719 2.12 4.558 3.449-.18 1.492-3.336 2.215-5.668 1.293zm-1.23 3.379c.465-.324.762-.34 2.086-.11 1.703.293 3.887.032 5.207-.628 1.101-.555 2.984-2.485 2.984-3.063 0-.953-.87-3.148-1.629-4.105-.867-1.094-2.59-2.27-4.109-2.801-.688-.242-1.21-.625-1.523-1.13-1.41-2.25-5.184-2.03-7.582.438l-.875.903-.551-.516c-1.051-.984-2.54-.46-2.54.899 0 .464.29.949.954 1.59.941.917.949.94.953 2.71.004 2.786 1.215 4.895 3.332 5.813 1.094.473 2.613.473 3.293 0zm-162.79-4.86c-.034-1.52-.5-3.195-1.25-4.496-.573-.992-.468-1.136.36-.484 1.336 1.05 2.063 3.406 1.59 5.16-.398 1.48-.66 1.41-.7-.18zm-8.21 1.672c-1.941-.62-2.098-1.879-.414-3.39 1.219-1.094 2.473-1.614 3.894-1.614.766 0 .875.09 1.239.997.222.55.46 1.488.53 2.085.126 1.075.114 1.094-.792 1.532-1.047.504-3.445.715-4.457.39zm8.89 2.977c2.075-1.055 3.16-3.113 3.079-5.84-.047-1.52-.032-1.562.941-2.531 1.113-1.11 1.27-1.945.512-2.707-.63-.63-1.258-.602-2.067.094l-.66.57-.918-.95c-1.21-1.242-2.578-1.843-4.218-1.85-1.602-.009-2.81.581-3.32 1.62l-.606.75c-.13.004-.903.32-1.715.703-2.742 1.301-4.379 3.38-4.742 6.032-.137 1.011-.114 1.054 1.207 2.265.922.84 1.738 1.348 2.57 1.594 1.246.371 4.11.453 5.18.144l1.312.262c.98.594 2.063.543 3.446-.156zm119.356 14.246c-.426-.207-1.59-1.281-2.594-2.387-2.097-2.308-3.21-2.984-4.906-2.972-1.926.015-2.82.921-3.164 3.195-.094.621-.29 1.125-.438 1.125-.414-.004-1.492-.774-2.007-1.434-.528-.672-1.48-2.484-1.48-2.812 0-.121.616-.297 1.37-.39 5.79-.708 18.79-5.274 27.79-9.766 3.398-1.696 3.816-1.97 3.816-2.497l-.383-.667c-.211-.04-2.516.746-5.121 1.75-6.73 2.59-15.219 5.363-20.207 6.605-4.547 1.129-7.684 1.73-7.906 1.508-.22-.223.378-3.7.77-4.45.468-.91.675-.886 1.315.157 1.301 2.101 3.704 2.336 5.395.523.719-.77 1.14-2.062 1.488-4.597.39-2.836.926-4.043 2.02-4.567 1.062-.508 1.32-.293 1.918 1.59.668 2.11 1.293 3.047 2.379 3.57 1.242.606 1.804.602 3.008-.011 1.57-.805 2.078-2.23 2.246-6.317.207-5.023.902-6.293 3.437-6.285 1.902.004 1.926.078 1.578 4.64-.215 2.798.114 3.762 1.516 4.462.937.468 2.723.547 3.734.168.946-.36 2.348-1.778 3.313-3.36 1.465-2.406 2.91-3.289 4.816-2.945 2.043.371 4.3 2.93 4.512 5.105.144 1.52-.031 2.184-.828 3.133-1.024 1.219-2.239 1.64-4.73 1.645-1.235.004-2.688.164-3.395.37-2.832.845-4.574 3.735-3.496 5.813.379.739 1.152 1.282 3.902 2.75 2.195 1.172 2.422 1.485 1.75 2.43-1.36 1.906-3.95 2.7-6.121 1.871-.61-.234-1.918-1.187-3.113-2.262-2.414-2.18-3.832-2.964-5.34-2.96-3.09.011-4.367 2.582-2.98 5.996.327.804.597 1.57.597 1.703 0 .86-3.078 1.254-4.461.57zm4.762 3.488c1.96-.734 3.277-2.347 3.265-4.004-.004-.351-.27-1.39-.593-2.308-.325-.914-.59-1.75-.59-1.852-.004-.37 1.101.406 3.125 2.196 1.133 1 2.683 2.132 3.453 2.523 1.27.64 1.61.707 3.777.707 2.114 0 2.512-.07 3.57-.633 3.739-1.976 5.56-5.469 4.106-7.87-.652-1.079-1.68-1.868-3.867-2.974-2.047-1.035-1.961-.953-1.473-1.441.324-.324 1.028-.437 3.442-.543 3.507-.16 5.035-.687 6.656-2.309 1.566-1.566 2.09-2.921 2.09-5.43 0-1.964-.07-2.288-.82-3.808-1.012-2.062-2.876-3.965-4.712-4.824-1.109-.52-1.718-.645-3.16-.645-2.949 0-5.015 1.258-6.855 4.164-1.031 1.633-1.703 2.383-2.13 2.383-.269 0-.292-.32-.136-1.726.41-3.66.074-5.422-1.246-6.582-1.375-1.211-3.867-1.567-6.152-.88-3.07.923-4.653 3.661-4.688 8.098-.011 1.192-.094 2.645-.187 3.23l-.172 1.075-.527-1.55c-.735-2.15-1.305-2.997-2.41-3.56-1.141-.581-2.176-.616-3.641-.116-2.598.886-3.965 3.05-4.63 7.336-.214 1.394-.456 2.53-.542 2.53l-.586-.73c-.871-1.48-2.621-2.023-4.262-1.32-1.922.82-3.137 3.184-3.554 6.895l-.282 2.523-1.32.262c-2.05.402-3.89.949-4.477 1.324-.707.453-.68 1.18.055 1.664.524.34.91.352 3.477.105 1.586-.152 2.91-.242 2.937-.203.028.043.278.64.559 1.325.574 1.425 1.914 3.527 2.722 4.273 1.657 1.535 4.579 2.113 5.993 1.187.836-.546 1.546-1.71 1.73-2.84l.309-.89c.09 0 .949.863 1.906 1.922 2.687 2.96 4.164 3.762 6.969 3.781 1.039.004 2.047-.156 2.87-.465zm-88.582-3.343c-.836-.336-.871-.813-.2-2.63.72-1.937.774-2.804.239-3.93-.895-1.886-3.547-2.437-5.688-1.183-.61.356-1.918 1.387-2.906 2.29-2.187 1.995-3.367 2.605-5.035 2.605-1.508 0-2.766-.59-3.82-1.797-1.18-1.344-.989-1.691 1.695-3.094 2.719-1.418 3.43-2.023 3.797-3.238.238-.8.195-1.04-.383-2.219-1.148-2.351-2.973-3.226-6.734-3.226-3.36 0-4.95-.887-5.543-3.102-.727-2.695 1.98-6.527 4.82-6.82 1.734-.184 2.91.62 4.535 3.09 1.723 2.62 2.953 3.5 4.883 3.5.707 0 1.625-.16 2.039-.356 1.535-.73 1.887-2.058 1.52-5.734-.336-3.348-.243-3.531 1.769-3.383.914.062 1.54.25 1.879.559 1.055.957 1.258 1.73 1.414 5.488.137 3.148.227 3.742.73 4.75.692 1.379 1.489 2.004 2.743 2.16 1.093.133 2.328-.426 3.02-1.371.253-.344.757-1.469 1.12-2.5.739-2.098 1.133-2.367 2.227-1.508.965.762 1.308 1.621 1.726 4.324.504 3.262 1.188 4.77 2.45 5.414 1.578.805 2.543.668 3.695-.523l1.254-1.488c.254-.434.32-.375.808.71.59 1.313.946 4.41.508 4.41-.637 0-5.652-1.042-8.14-1.69-5.637-1.47-13.309-4.02-20.438-6.794-4.105-1.601-4.664-1.73-4.887-1.16-.273.719.188 1.07 3.543 2.719 9.93 4.871 22.094 9.133 28.297 9.906.738.094 1.344.219 1.344.278 0 .058-.281.68-.629 1.382-.672 1.38-1.797 2.594-2.633 2.844-.457.14-.543.047-.687-.746-.465-2.566-1.36-3.457-3.45-3.441-1.566.011-2.152.379-4.624 2.894-1.18 1.195-2.434 2.328-2.79 2.516-.71.379-2.632.43-3.468.094zm5.066 3.113c.758-.371 1.984-1.403 3.383-2.844 1.445-1.496 2.223-2.148 2.293-1.918l.367 1.328c.668 2.465 3.316 3.328 6.031 1.965 1.434-.723 2.774-2.312 3.84-4.559l.988-2.09 1.907.184c3.238.317 4.398.25 4.781-.277.441-.602.426-.758-.121-1.305-.29-.289-1.512-.699-3.332-1.125l-2.875-.668v-1.504c0-.832-.168-2.254-.38-3.164-1.112-4.898-5.296-6.594-7.651-3.097l-.54.617c0-.102-.171-1.27-.382-2.594-.653-4.098-1.535-5.746-3.727-6.95-1.617-.886-3.812-.976-4.863-.202-.977.726-1.723 1.925-2.156 3.488-.207.758-.442 1.309-.52 1.234-.074-.078-.203-1.656-.281-3.511-.207-4.832-1.05-6.743-3.606-8.157-1.125-.625-1.472-.695-3.394-.691-1.778 0-2.32.094-3.172.547-1.906 1.015-2.492 3.195-1.961 7.308.102.786.152 1.465.117 1.508-.277.332-1.133-.472-2.097-1.976-2.122-3.293-4.036-4.52-7.059-4.528-1.547-.004-2.008.102-3.375.774-3.648 1.797-6.113 6.219-5.441 9.762.511 2.687 1.996 4.57 4.523 5.73 1.094.5 1.816.633 4.18.75 2.61.129 3.925.437 3.925.918 0 .101-.765.55-1.703 1.004-3.379 1.62-4.539 2.898-4.539 4.992 0 2.035 1.938 4.52 4.578 5.871 1.164.598 1.559.672 3.575.672 2.086 0 2.394-.066 3.875-.793.941-.465 2.332-1.465 3.367-2.426 1.504-1.39 3.23-2.617 3.23-2.293 0 .055-.27.809-.593 1.68-1.286 3.402-.407 5.437 2.89 6.687 1.442.547 4.445.372 5.918-.347zm36.86-8.008c-.891-.992-1.622-1.895-1.622-2.008l3.454-4.023c.062.008.906.918 1.867 2.02l1.75 2-1.727 1.91c-.945 1.05-1.805 1.91-1.91 1.91-.102 0-.918-.817-1.813-1.809zm-15.754 10.625c2.933-.906 5.027-2.566 9.238-7.336l2.933-3.32 3.602 4.047-2.016 1.945c-2.246 2.172-4.543 3.496-6.91 3.984-.773.16-1.406.371-1.406.47 0 .272 1.656.675 2.773.679 2.336 0 5.68-1.617 8.188-3.961l1.172-1.094 1.597 1.469c2.997 2.742 6.84 4.097 9.543 3.367 1.106-.3 1.36-.734.426-.734-.777 0-3.379-.957-4.691-1.727-1.324-.777-2.953-2.14-4.113-3.445L184 326.96l1.734-2.012 1.739-2.012.964 1.114c2.833 3.25 5.583 6.14 6.774 7.113 2.785 2.285 6.324 3.375 8.777 2.711 1.106-.3 1.36-.734.426-.734-.797 0-3.387-.961-4.8-1.786-1.434-.832-4.044-3.335-7.65-7.332l-2.745-3.046.586-.645c.32-.355 1.933-2.148 3.582-3.988 4.148-4.633 6.691-6.985 8.664-8.012 1.797-.941 3.851-1.621 4.898-1.621 1.02 0 .801-.387-.387-.684-2.59-.652-5.578-.05-8.16 1.645-1.41.926-3.859 3.414-8.547 8.683-1.164 1.31-2.226 2.395-2.355 2.407-.133.015-1.008-.844-1.953-1.907l-1.711-1.93 2.426-2.456c1.336-1.356 2.879-2.778 3.433-3.16 2.09-1.465 4.934-2.586 6.555-2.594 1.004-.004.777-.39-.402-.688-2.594-.652-5.672-.03-8.196 1.653-.793.53-2.363 1.945-3.492 3.14l-2.05 2.18-2.067-2.184c-1.137-1.199-2.703-2.617-3.48-3.148-2.461-1.676-5.528-2.297-8.125-1.64-1.188.296-1.407.683-.387.683 1.047 0 3.097.68 4.926 1.625 1.234.64 2.402 1.586 4.496 3.637 1.554 1.523 2.785 2.882 2.738 3.015-.05.137-.848 1.098-1.774 2.14l-1.683 1.892-4.55-5.051c-4.919-5.461-6.497-6.774-9.278-7.711-1.64-.551-3.586-.637-5.2-.23-1.19.296-1.41.683-.386.683 1.035 0 3.086.676 4.922 1.617 1.855.953 5.484 4.426 10.187 9.746l2.57 2.906-3.222 3.56c-1.77 1.956-3.934 4.21-4.809 5.007-1.808 1.66-4.25 2.976-6.297 3.398-.773.16-1.406.375-1.406.477 0 .277 1.418.625 2.653.648.609.016 1.789-.187 2.62-.445" fill="#0d64ae"/></svg>