<svg xmlns="http://www.w3.org/2000/svg" xml:space="preserve" width="642.533" height="207.669"><defs><clipPath id="a" clipPathUnits="userSpaceOnUse"><path d="M0 0h856.97v276.975H0Z"/></clipPath><clipPath id="b" clipPathUnits="userSpaceOnUse"><path d="M39.65 48.788h810.12v205.87H39.65Z"/></clipPath><clipPath id="c" clipPathUnits="userSpaceOnUse"><path d="M39.65 48.788h810.12v205.87H39.65Z"/></clipPath><clipPath id="d" clipPathUnits="userSpaceOnUse"><path d="M39.65 48.788h810.12v205.87H39.65Z"/></clipPath><clipPath id="e" clipPathUnits="userSpaceOnUse"><path d="M39.65 48.788h810.12v205.87H39.65Z"/></clipPath><clipPath id="f" clipPathUnits="userSpaceOnUse"><path d="M39.65 48.788h810.12v205.87H39.65Z"/></clipPath><clipPath id="g" clipPathUnits="userSpaceOnUse"><path d="M39.65 48.788h810.12v205.87H39.65Z"/></clipPath><clipPath id="h" clipPathUnits="userSpaceOnUse"><path d="M39.65 48.788h810.12v205.87H39.65Z"/></clipPath><clipPath id="i" clipPathUnits="userSpaceOnUse"><path d="M39.65 48.788h810.12v205.87H39.65Z"/></clipPath><clipPath id="j" clipPathUnits="userSpaceOnUse"><path d="M39.65 48.788h810.12v205.87H39.65Z"/></clipPath><clipPath id="k" clipPathUnits="userSpaceOnUse"><path d="M39.65 48.788h810.12v205.87H39.65Z"/></clipPath><clipPath id="l" clipPathUnits="userSpaceOnUse"><path d="M39.65 48.788h810.12v205.87H39.65Z"/></clipPath><clipPath id="m" clipPathUnits="userSpaceOnUse"><path d="M39.65 48.788h810.12v205.87H39.65Z"/></clipPath><clipPath id="n" clipPathUnits="userSpaceOnUse"><path d="M39.65 48.788h810.12v205.87H39.65Z"/></clipPath><clipPath id="o" clipPathUnits="userSpaceOnUse"><path d="M39.65 48.788h810.12v205.87H39.65Z"/></clipPath><clipPath id="p" clipPathUnits="userSpaceOnUse"><path d="M39.65 48.788h810.12v205.87H39.65Z"/></clipPath><clipPath id="q" clipPathUnits="userSpaceOnUse"><path d="M39.65 48.788h810.12v205.87H39.65Z"/></clipPath><clipPath id="r" clipPathUnits="userSpaceOnUse"><path d="M39.65 48.788h810.12v205.87H39.65Z"/></clipPath><clipPath id="s" clipPathUnits="userSpaceOnUse"><path d="M39.65 48.788h810.12v205.87H39.65Z"/></clipPath><clipPath id="t" clipPathUnits="userSpaceOnUse"><path d="M39.65 48.788h810.12v205.87H39.65Z"/></clipPath><clipPath id="u" clipPathUnits="userSpaceOnUse"><path d="M39.65 48.788h810.12v205.87H39.65Z"/></clipPath><clipPath id="v" clipPathUnits="userSpaceOnUse"><path d="M39.65 48.788h810.12v205.87H39.65Z"/></clipPath><clipPath id="w" clipPathUnits="userSpaceOnUse"><path d="M39.65 48.788h810.12v205.87H39.65Z"/></clipPath><clipPath id="x" clipPathUnits="userSpaceOnUse"><path d="M39.65 48.788h810.12v205.87H39.65Z"/></clipPath><clipPath id="y" clipPathUnits="userSpaceOnUse"><path d="M39.65 48.788h810.12v205.87H39.65Z"/></clipPath><clipPath id="z" clipPathUnits="userSpaceOnUse"><path d="M39.65 48.788h810.12v205.87H39.65Z"/></clipPath><clipPath id="A" clipPathUnits="userSpaceOnUse"><path d="M39.65 48.788h810.12v205.87H39.65Z"/></clipPath><clipPath id="B" clipPathUnits="userSpaceOnUse"><path d="M39.65 48.788h810.12v205.87H39.65Z"/></clipPath><clipPath id="C" clipPathUnits="userSpaceOnUse"><path d="M39.65 48.788h810.12v205.87H39.65Z"/></clipPath><clipPath id="D" clipPathUnits="userSpaceOnUse"><path d="M39.65 48.788h810.12v205.87H39.65Z"/></clipPath><clipPath id="E" clipPathUnits="userSpaceOnUse"><path d="M39.65 48.788h810.12v205.87H39.65Z"/></clipPath><clipPath id="F" clipPathUnits="userSpaceOnUse"><path d="M39.65 48.788h810.12v205.87H39.65Z"/></clipPath><clipPath id="G" clipPathUnits="userSpaceOnUse"><path d="M39.65 48.788h810.12v205.87H39.65Z"/></clipPath><clipPath id="H" clipPathUnits="userSpaceOnUse"><path d="M39.65 48.788h810.12v205.87H39.65Z"/></clipPath><clipPath id="I" clipPathUnits="userSpaceOnUse"><path d="M39.65 48.788h810.12v205.87H39.65Z"/></clipPath><clipPath id="J" clipPathUnits="userSpaceOnUse"><path d="M39.65 48.788h810.12v205.87H39.65Z"/></clipPath><clipPath id="K" clipPathUnits="userSpaceOnUse"><path d="M39.65 48.788h810.12v205.87H39.65Z"/></clipPath><clipPath id="L" clipPathUnits="userSpaceOnUse"><path d="M39.65 48.788h810.12v205.87H39.65Z"/></clipPath><clipPath id="M" clipPathUnits="userSpaceOnUse"><path d="M39.65 48.788h810.12v205.87H39.65Z"/></clipPath><clipPath id="N" clipPathUnits="userSpaceOnUse"><path d="M39.65 48.788h810.12v205.87H39.65Z"/></clipPath><clipPath id="O" clipPathUnits="userSpaceOnUse"><path d="M39.65 48.788h810.12v205.87H39.65Z"/></clipPath><clipPath id="P" clipPathUnits="userSpaceOnUse"><path d="M39.65 48.788h810.12v205.87H39.65Z"/></clipPath><clipPath id="Q" clipPathUnits="userSpaceOnUse"><path d="M39.65 48.788h810.12v205.87H39.65Z"/></clipPath><clipPath id="R" clipPathUnits="userSpaceOnUse"><path d="M39.65 48.788h810.12v205.87H39.65Z"/></clipPath><clipPath id="S" clipPathUnits="userSpaceOnUse"><path d="M39.65 48.788h810.12v205.87H39.65Z"/></clipPath><clipPath id="T" clipPathUnits="userSpaceOnUse"><path d="M39.65 48.788h810.12v205.87H39.65Z"/></clipPath><clipPath id="U" clipPathUnits="userSpaceOnUse"><path d="M39.65 48.788h810.12v205.87H39.65Z"/></clipPath><clipPath id="V" clipPathUnits="userSpaceOnUse"><path d="M39.65 48.788h810.12v205.87H39.65Z"/></clipPath><clipPath id="W" clipPathUnits="userSpaceOnUse"><path d="M39.65 48.788h810.12v205.87H39.65Z"/></clipPath><clipPath id="X" clipPathUnits="userSpaceOnUse"><path d="M39.65 48.788h810.12v205.87H39.65Z"/></clipPath><clipPath id="Y" clipPathUnits="userSpaceOnUse"><path d="M39.65 48.788h810.12v205.87H39.65Z"/></clipPath><clipPath id="Z" clipPathUnits="userSpaceOnUse"><path d="M39.65 48.788h810.12v205.87H39.65Z"/></clipPath><clipPath id="aa" clipPathUnits="userSpaceOnUse"><path d="M39.65 48.788h810.12v205.87H39.65Z"/></clipPath><clipPath id="ab" clipPathUnits="userSpaceOnUse"><path d="M39.65 48.788h810.12v205.87H39.65Z"/></clipPath><clipPath id="ac" clipPathUnits="userSpaceOnUse"><path d="M39.65 48.788h810.12v205.87H39.65Z"/></clipPath><clipPath id="ad" clipPathUnits="userSpaceOnUse"><path d="M39.65 48.788h810.12v205.87H39.65Z"/></clipPath><clipPath id="ae" clipPathUnits="userSpaceOnUse"><path d="M39.65 48.788h810.12v205.87H39.65Z"/></clipPath><clipPath id="af" clipPathUnits="userSpaceOnUse"><path d="M39.65 48.788h810.12v205.87H39.65Z"/></clipPath><clipPath id="ag" clipPathUnits="userSpaceOnUse"><path d="M39.65 48.788h810.12v205.87H39.65Z"/></clipPath><clipPath id="ah" clipPathUnits="userSpaceOnUse"><path d="M39.65 48.788h810.12v205.87H39.65Z"/></clipPath><clipPath id="ai" clipPathUnits="userSpaceOnUse"><path d="M39.65 48.788h810.12v205.87H39.65Z"/></clipPath><clipPath id="aj" clipPathUnits="userSpaceOnUse"><path d="M39.65 48.788h810.12v205.87H39.65Z"/></clipPath><clipPath id="ak" clipPathUnits="userSpaceOnUse"><path d="M39.65 48.788h810.12v205.87H39.65Z"/></clipPath><clipPath id="al" clipPathUnits="userSpaceOnUse"><path d="M39.65 48.788h810.12v205.87H39.65Z"/></clipPath><clipPath id="am" clipPathUnits="userSpaceOnUse"><path d="M39.65 48.788h810.12v205.87H39.65Z"/></clipPath><clipPath id="an" clipPathUnits="userSpaceOnUse"><path d="M39.65 48.788h810.12v205.87H39.65Z"/></clipPath><clipPath id="ao" clipPathUnits="userSpaceOnUse"><path d="M39.65 48.788h810.12v205.87H39.65Z"/></clipPath><clipPath id="ap" clipPathUnits="userSpaceOnUse"><path d="M39.65 48.788h810.12v205.87H39.65Z"/></clipPath><clipPath id="aq" clipPathUnits="userSpaceOnUse"><path d="M39.65 48.788h810.12v205.87H39.65Z"/></clipPath><clipPath id="ar" clipPathUnits="userSpaceOnUse"><path d="M39.65 48.788h810.12v205.87H39.65Z"/></clipPath><clipPath id="as" clipPathUnits="userSpaceOnUse"><path d="M39.65 48.788h810.12v205.87H39.65Z"/></clipPath><clipPath id="at" clipPathUnits="userSpaceOnUse"><path d="M39.65 48.788h810.12v205.87H39.65Z"/></clipPath><clipPath id="au" clipPathUnits="userSpaceOnUse"><path d="M39.65 48.788h810.12v205.87H39.65Z"/></clipPath><clipPath id="av" clipPathUnits="userSpaceOnUse"><path d="M39.65 48.788h810.12v205.87H39.65Z"/></clipPath><clipPath id="aw" clipPathUnits="userSpaceOnUse"><path d="M39.65 48.788h810.12v205.87H39.65Z"/></clipPath><clipPath id="ax" clipPathUnits="userSpaceOnUse"><path d="M39.65 48.788h810.12v205.87H39.65Z"/></clipPath><clipPath id="ay" clipPathUnits="userSpaceOnUse"><path d="M39.65 48.788h810.12v205.87H39.65Z"/></clipPath><clipPath id="az" clipPathUnits="userSpaceOnUse"><path d="M39.65 48.788h810.12v205.87H39.65Z"/></clipPath><clipPath id="aA" clipPathUnits="userSpaceOnUse"><path d="M39.65 48.788h810.12v205.87H39.65Z"/></clipPath><clipPath id="aB" clipPathUnits="userSpaceOnUse"><path d="M39.65 48.788h810.12v205.87H39.65Z"/></clipPath><clipPath id="aC" clipPathUnits="userSpaceOnUse"><path d="M39.65 48.788h810.12v205.87H39.65Z"/></clipPath><clipPath id="aD" clipPathUnits="userSpaceOnUse"><path d="M39.65 48.788h810.12v205.87H39.65Z"/></clipPath><clipPath id="aE" clipPathUnits="userSpaceOnUse"><path d="M39.65 48.788h810.12v205.87H39.65Z"/></clipPath><clipPath id="aF" clipPathUnits="userSpaceOnUse"><path d="M39.65 48.788h810.12v205.87H39.65Z"/></clipPath><clipPath id="aG" clipPathUnits="userSpaceOnUse"><path d="M39.65 48.788h810.12v205.87H39.65Z"/></clipPath><clipPath id="aH" clipPathUnits="userSpaceOnUse"><path d="M39.65 48.788h810.12v205.87H39.65Z"/></clipPath><clipPath id="aI" clipPathUnits="userSpaceOnUse"><path d="M39.65 48.788h810.12v205.87H39.65Z"/></clipPath><clipPath id="aJ" clipPathUnits="userSpaceOnUse"><path d="M39.65 48.788h810.12v205.87H39.65Z"/></clipPath><clipPath id="aK" clipPathUnits="userSpaceOnUse"><path d="M39.65 48.788h810.12v205.87H39.65Z"/></clipPath><clipPath id="aL" clipPathUnits="userSpaceOnUse"><path d="M39.65 48.788h810.12v205.87H39.65Z"/></clipPath><clipPath id="aM" clipPathUnits="userSpaceOnUse"><path d="M39.65 48.788h810.12v205.87H39.65Z"/></clipPath><clipPath id="aN" clipPathUnits="userSpaceOnUse"><path d="M39.65 48.788h810.12v205.87H39.65Z"/></clipPath><clipPath id="aO" clipPathUnits="userSpaceOnUse"><path d="M39.65 48.788h810.12v205.87H39.65Z"/></clipPath><clipPath id="aP" clipPathUnits="userSpaceOnUse"><path d="M39.65 48.788h810.12v205.87H39.65Z"/></clipPath><clipPath id="aQ" clipPathUnits="userSpaceOnUse"><path d="M39.65 48.788h810.12v205.87H39.65Z"/></clipPath><clipPath id="aR" clipPathUnits="userSpaceOnUse"><path d="M39.65 48.788h810.12v205.87H39.65Z"/></clipPath><clipPath id="aS" clipPathUnits="userSpaceOnUse"><path d="M39.65 48.788h810.12v205.87H39.65Z"/></clipPath><clipPath id="aT" clipPathUnits="userSpaceOnUse"><path d="M39.65 48.788h810.12v205.87H39.65Z"/></clipPath><clipPath id="aU" clipPathUnits="userSpaceOnUse"><path d="M39.65 48.788h810.12v205.87H39.65Z"/></clipPath><clipPath id="aV" clipPathUnits="userSpaceOnUse"><path d="M39.65 48.788h810.12v205.87H39.65Z"/></clipPath><clipPath id="aW" clipPathUnits="userSpaceOnUse"><path d="M39.65 48.788h810.12v205.87H39.65Z"/></clipPath><clipPath id="aX" clipPathUnits="userSpaceOnUse"><path d="M39.65 48.788h810.12v205.87H39.65Z"/></clipPath><clipPath id="aY" clipPathUnits="userSpaceOnUse"><path d="M39.65 48.788h810.12v205.87H39.65Z"/></clipPath><clipPath id="aZ" clipPathUnits="userSpaceOnUse"><path d="M39.65 48.788h810.12v205.87H39.65Z"/></clipPath><clipPath id="ba" clipPathUnits="userSpaceOnUse"><path d="M39.65 48.788h810.12v205.87H39.65Z"/></clipPath><clipPath id="bb" clipPathUnits="userSpaceOnUse"><path d="M39.65 48.788h810.12v205.87H39.65Z"/></clipPath><clipPath id="bc" clipPathUnits="userSpaceOnUse"><path d="M39.65 48.788h810.12v205.87H39.65Z"/></clipPath><clipPath id="bd" clipPathUnits="userSpaceOnUse"><path d="M39.65 48.788h810.12v205.87H39.65Z"/></clipPath><clipPath id="be" clipPathUnits="userSpaceOnUse"><path d="M39.65 48.788h810.12v205.87H39.65Z"/></clipPath><clipPath id="bf" clipPathUnits="userSpaceOnUse"><path d="M39.65 48.788h810.12v205.87H39.65Z"/></clipPath><clipPath id="bg" clipPathUnits="userSpaceOnUse"><path d="M39.65 48.788h810.12v205.87H39.65Z"/></clipPath><clipPath id="bh" clipPathUnits="userSpaceOnUse"><path d="M39.65 48.788h810.12v205.87H39.65Z"/></clipPath><clipPath id="bi" clipPathUnits="userSpaceOnUse"><path d="M39.65 48.788h810.12v205.87H39.65Z"/></clipPath><clipPath id="bj" clipPathUnits="userSpaceOnUse"><path d="M39.65 48.788h810.12v205.87H39.65Z"/></clipPath><clipPath id="bk" clipPathUnits="userSpaceOnUse"><path d="M39.65 48.788h810.12v205.87H39.65Z"/></clipPath><clipPath id="bl" clipPathUnits="userSpaceOnUse"><path d="M39.65 48.788h810.12v205.87H39.65Z"/></clipPath><clipPath id="bm" clipPathUnits="userSpaceOnUse"><path d="M39.65 48.788h810.12v205.87H39.65Z"/></clipPath><clipPath id="bn" clipPathUnits="userSpaceOnUse"><path d="M39.65 48.788h810.12v205.87H39.65Z"/></clipPath><clipPath id="bo" clipPathUnits="userSpaceOnUse"><path d="M39.65 48.788h810.12v205.87H39.65Z"/></clipPath><clipPath id="bp" clipPathUnits="userSpaceOnUse"><path d="M39.65 48.788h810.12v205.87H39.65Z"/></clipPath><clipPath id="bq" clipPathUnits="userSpaceOnUse"><path d="M39.65 48.788h810.12v205.87H39.65Z"/></clipPath><clipPath id="br" clipPathUnits="userSpaceOnUse"><path d="M39.65 48.788h810.12v205.87H39.65Z"/></clipPath><clipPath id="bs" clipPathUnits="userSpaceOnUse"><path d="M39.65 48.788h810.12v205.87H39.65Z"/></clipPath><clipPath id="bt" clipPathUnits="userSpaceOnUse"><path d="M39.65 48.788h810.12v205.87H39.65Z"/></clipPath><clipPath id="bu" clipPathUnits="userSpaceOnUse"><path d="M39.65 48.788h810.12v205.87H39.65Z"/></clipPath><clipPath id="bv" clipPathUnits="userSpaceOnUse"><path d="M39.65 48.788h810.12v205.87H39.65Z"/></clipPath><clipPath id="bw" clipPathUnits="userSpaceOnUse"><path d="M39.65 48.788h810.12v205.87H39.65Z"/></clipPath><clipPath id="bx" clipPathUnits="userSpaceOnUse"><path d="M39.65 48.788h810.12v205.87H39.65Z"/></clipPath><clipPath id="by" clipPathUnits="userSpaceOnUse"><path d="M39.65 48.788h810.12v205.87H39.65Z"/></clipPath><clipPath id="bz" clipPathUnits="userSpaceOnUse"><path d="M39.65 48.788h810.12v205.87H39.65Z"/></clipPath><clipPath id="bA" clipPathUnits="userSpaceOnUse"><path d="M39.65 48.788h810.12v205.87H39.65Z"/></clipPath><clipPath id="bB" clipPathUnits="userSpaceOnUse"><path d="M39.65 48.788h810.12v205.87H39.65Z"/></clipPath><clipPath id="bC" clipPathUnits="userSpaceOnUse"><path d="M39.65 48.788h810.12v205.87H39.65Z"/></clipPath><clipPath id="bD" clipPathUnits="userSpaceOnUse"><path d="M39.65 48.788h810.12v205.87H39.65Z"/></clipPath><clipPath id="bE" clipPathUnits="userSpaceOnUse"><path d="M39.65 48.788h810.12v205.87H39.65Z"/></clipPath><clipPath id="bF" clipPathUnits="userSpaceOnUse"><path d="M39.65 48.788h810.12v205.87H39.65Z"/></clipPath><clipPath id="bG" clipPathUnits="userSpaceOnUse"><path d="M39.65 48.788h810.12v205.87H39.65Z"/></clipPath><clipPath id="bH" clipPathUnits="userSpaceOnUse"><path d="M39.65 48.788h810.12v205.87H39.65Z"/></clipPath><clipPath id="bI" clipPathUnits="userSpaceOnUse"><path d="M39.65 48.788h810.12v205.87H39.65Z"/></clipPath><clipPath id="bJ" clipPathUnits="userSpaceOnUse"><path d="M39.65 48.788h810.12v205.87H39.65Z"/></clipPath><clipPath id="bK" clipPathUnits="userSpaceOnUse"><path d="M39.65 48.788h810.12v205.87H39.65Z"/></clipPath><clipPath id="bL" clipPathUnits="userSpaceOnUse"><path d="M39.65 48.788h810.12v205.87H39.65Z"/></clipPath><clipPath id="bM" clipPathUnits="userSpaceOnUse"><path d="M39.65 48.788h810.12v205.87H39.65Z"/></clipPath><clipPath id="bN" clipPathUnits="userSpaceOnUse"><path d="M39.65 48.788h810.12v205.87H39.65Z"/></clipPath><clipPath id="bO" clipPathUnits="userSpaceOnUse"><path d="M39.65 48.788h810.12v205.87H39.65Z"/></clipPath><clipPath id="bP" clipPathUnits="userSpaceOnUse"><path d="M39.65 48.788h810.12v205.87H39.65Z"/></clipPath><clipPath id="bQ" clipPathUnits="userSpaceOnUse"><path d="M39.65 48.788h810.12v205.87H39.65Z"/></clipPath><clipPath id="bR" clipPathUnits="userSpaceOnUse"><path d="M39.65 48.788h810.12v205.87H39.65Z"/></clipPath><clipPath id="bS" clipPathUnits="userSpaceOnUse"><path d="M39.65 48.788h810.12v205.87H39.65Z"/></clipPath><clipPath id="bT" clipPathUnits="userSpaceOnUse"><path d="M39.65 48.788h810.12v205.87H39.65Z"/></clipPath><clipPath id="bU" clipPathUnits="userSpaceOnUse"><path d="M39.65 48.788h810.12v205.87H39.65Z"/></clipPath><clipPath id="bV" clipPathUnits="userSpaceOnUse"><path d="M39.65 48.788h810.12v205.87H39.65Z"/></clipPath><clipPath id="bW" clipPathUnits="userSpaceOnUse"><path d="M39.65 48.788h810.12v205.87H39.65Z"/></clipPath><clipPath id="bX" clipPathUnits="userSpaceOnUse"><path d="M39.65 48.788h810.12v205.87H39.65Z"/></clipPath><clipPath id="bY" clipPathUnits="userSpaceOnUse"><path d="M39.65 48.788h810.12v205.87H39.65Z"/></clipPath><clipPath id="bZ" clipPathUnits="userSpaceOnUse"><path d="M39.65 48.788h810.12v205.87H39.65Z"/></clipPath><clipPath id="ca" clipPathUnits="userSpaceOnUse"><path d="M39.65 48.788h810.12v205.87H39.65Z"/></clipPath><clipPath id="cb" clipPathUnits="userSpaceOnUse"><path d="M39.65 48.788h810.12v205.87H39.65Z"/></clipPath><clipPath id="cc" clipPathUnits="userSpaceOnUse"><path d="M39.65 48.788h810.12v205.87H39.65Z"/></clipPath><clipPath id="cd" clipPathUnits="userSpaceOnUse"><path d="M39.65 48.788h810.12v205.87H39.65Z"/></clipPath><clipPath id="ce" clipPathUnits="userSpaceOnUse"><path d="M39.65 48.788h810.12v205.87H39.65Z"/></clipPath><clipPath id="cf" clipPathUnits="userSpaceOnUse"><path d="M39.65 48.788h810.12v205.87H39.65Z"/></clipPath><clipPath id="cg" clipPathUnits="userSpaceOnUse"><path d="M39.65 48.788h810.12v205.87H39.65Z"/></clipPath><clipPath id="ch" clipPathUnits="userSpaceOnUse"><path d="M39.65 48.788h810.12v205.87H39.65Z"/></clipPath><clipPath id="ci" clipPathUnits="userSpaceOnUse"><path d="M39.65 48.788h810.12v205.87H39.65Z"/></clipPath><clipPath id="cj" clipPathUnits="userSpaceOnUse"><path d="M39.65 48.788h810.12v205.87H39.65Z"/></clipPath><clipPath id="ck" clipPathUnits="userSpaceOnUse"><path d="M39.65 48.788h810.12v205.87H39.65Z"/></clipPath><clipPath id="cl" clipPathUnits="userSpaceOnUse"><path d="M39.65 48.788h810.12v205.87H39.65Z"/></clipPath><clipPath id="cm" clipPathUnits="userSpaceOnUse"><path d="M39.65 48.788h810.12v205.87H39.65Z"/></clipPath><clipPath id="cn" clipPathUnits="userSpaceOnUse"><path d="M39.65 48.788h810.12v205.87H39.65Z"/></clipPath><clipPath id="co" clipPathUnits="userSpaceOnUse"><path d="M39.65 48.788h810.12v205.87H39.65Z"/></clipPath><clipPath id="cp" clipPathUnits="userSpaceOnUse"><path d="M39.65 48.788h810.12v205.87H39.65Z"/></clipPath><clipPath id="cq" clipPathUnits="userSpaceOnUse"><path d="M39.65 48.788h810.12v205.87H39.65Z"/></clipPath><clipPath id="cr" clipPathUnits="userSpaceOnUse"><path d="M39.65 48.788h810.12v205.87H39.65Z"/></clipPath><clipPath id="cs" clipPathUnits="userSpaceOnUse"><path d="M39.65 48.788h810.12v205.87H39.65Z"/></clipPath><clipPath id="ct" clipPathUnits="userSpaceOnUse"><path d="M39.65 48.788h810.12v205.87H39.65Z"/></clipPath><clipPath id="cu" clipPathUnits="userSpaceOnUse"><path d="M39.65 48.788h810.12v205.87H39.65Z"/></clipPath><clipPath id="cv" clipPathUnits="userSpaceOnUse"><path d="M39.65 48.788h810.12v205.87H39.65Z"/></clipPath><clipPath id="cw" clipPathUnits="userSpaceOnUse"><path d="M39.65 48.788h810.12v205.87H39.65Z"/></clipPath><clipPath id="cx" clipPathUnits="userSpaceOnUse"><path d="M39.65 48.788h810.12v205.87H39.65Z"/></clipPath><clipPath id="cy" clipPathUnits="userSpaceOnUse"><path d="M39.65 48.788h810.12v205.87H39.65Z"/></clipPath><clipPath id="cz" clipPathUnits="userSpaceOnUse"><path d="M39.65 48.788h810.12v205.87H39.65Z"/></clipPath><clipPath id="cA" clipPathUnits="userSpaceOnUse"><path d="M39.65 48.788h810.12v205.87H39.65Z"/></clipPath><clipPath id="cB" clipPathUnits="userSpaceOnUse"><path d="M39.65 48.788h810.12v205.87H39.65Z"/></clipPath><clipPath id="cC" clipPathUnits="userSpaceOnUse"><path d="M39.65 48.788h810.12v205.87H39.65Z"/></clipPath><clipPath id="cD" clipPathUnits="userSpaceOnUse"><path d="M39.65 48.788h810.12v205.87H39.65Z"/></clipPath><clipPath id="cE" clipPathUnits="userSpaceOnUse"><path d="M39.65 48.788h810.12v205.87H39.65Z"/></clipPath><clipPath id="cF" clipPathUnits="userSpaceOnUse"><path d="M39.65 48.788h810.12v205.87H39.65Z"/></clipPath><clipPath id="cG" clipPathUnits="userSpaceOnUse"><path d="M39.65 48.788h810.12v205.87H39.65Z"/></clipPath><clipPath id="cH" clipPathUnits="userSpaceOnUse"><path d="M39.65 48.788h810.12v205.87H39.65Z"/></clipPath><clipPath id="cI" clipPathUnits="userSpaceOnUse"><path d="M39.65 48.788h810.12v205.87H39.65Z"/></clipPath><clipPath id="cJ" clipPathUnits="userSpaceOnUse"><path d="M39.65 48.788h810.12v205.87H39.65Z"/></clipPath><clipPath id="cK" clipPathUnits="userSpaceOnUse"><path d="M39.65 48.788h810.12v205.87H39.65Z"/></clipPath><clipPath id="cL" clipPathUnits="userSpaceOnUse"><path d="M39.65 48.788h810.12v205.87H39.65Z"/></clipPath><clipPath id="cM" clipPathUnits="userSpaceOnUse"><path d="M39.65 48.788h810.12v205.87H39.65Z"/></clipPath><clipPath id="cN" clipPathUnits="userSpaceOnUse"><path d="M39.65 48.788h810.12v205.87H39.65Z"/></clipPath></defs><g clip-path="url(#a)" transform="matrix(.74977 0 0 -.74977 0 207.669)"><path fill="#fff" d="M39.65 48.788h810.12v205.87H39.65Z"/><g clip-path="url(#b)"><path fill="#fbd5b6" d="M-16.38 42.362h5.139v212.296h-5.14z"/></g><g clip-path="url(#c)"><path fill="#fbd5b6" d="M-11.241 42.362h4.64v212.296h-4.64z"/></g><g clip-path="url(#d)"><path fill="#cdfece" d="M-6.6 42.362h5.139v212.296h-5.14Z"/></g><g clip-path="url(#e)"><path fill="#cdfece" d="M-1.461 42.362H3.51v212.296h-4.97Z"/></g><g clip-path="url(#f)"><path fill="#cdfece" d="M3.511 42.362h5.14v212.296H3.51Z"/></g><g clip-path="url(#g)"><path fill="#cdfece" d="M8.65 42.362h4.973v212.296H8.651Z"/></g><g clip-path="url(#h)"><path fill="#cdfece" d="M13.623 42.362h5.14v212.296h-5.14z"/></g><g clip-path="url(#i)"><path fill="#cdfece" d="M18.763 42.362H23.9v212.296h-5.138z"/></g><g clip-path="url(#j)"><path fill="#cdfece" d="M23.901 42.362h4.974v212.296H23.9z"/></g><g clip-path="url(#k)"><path fill="#cdfece" d="M28.875 42.362h5.138v212.296h-5.138z"/></g><g clip-path="url(#l)"><path fill="#9cba5f" d="M34.013 42.362h4.974v212.296h-4.974z"/></g><g clip-path="url(#m)"><path fill="#8eb5e0" d="M38.987 42.362h5.139v212.296h-5.14z"/></g><g clip-path="url(#n)"><path fill="#8eb5e0" d="M44.126 42.362h5.138v212.296h-5.138z"/></g><g clip-path="url(#o)"><path fill="#8eb5e0" d="M49.264 42.362h4.808v212.296h-4.808Z"/></g><g clip-path="url(#p)"><path fill="#fbd5b6" d="M54.072 42.362h5.138v212.296h-5.138Z"/></g><g clip-path="url(#q)"><path fill="#cdfece" d="M59.21 42.362h4.974v212.296H59.21z"/></g><g clip-path="url(#r)"><path fill="#cdfece" d="M64.184 42.362h5.138v212.296h-5.138z"/></g><g clip-path="url(#s)"><path fill="#cdfece" d="M69.322 42.362h4.974v212.296h-4.974z"/></g><g clip-path="url(#t)"><path fill="#cdfece" d="M74.296 42.362h5.138v212.296h-5.138z"/></g><g clip-path="url(#u)"><path fill="#cdfece" d="M79.434 42.362h5.14v212.296h-5.14z"/></g><g clip-path="url(#v)"><path fill="#cdfece" d="M84.574 42.362h4.972v212.296h-4.972z"/></g><g clip-path="url(#w)"><path fill="#cdfece" d="M89.546 42.362h5.14v212.296h-5.14z"/></g><g clip-path="url(#x)"><path fill="#cdfece" d="M94.686 42.362h4.972v212.296h-4.972z"/></g><g clip-path="url(#y)"><path fill="#8eb5e0" d="M99.658 42.362h5.14v212.296h-5.14z"/></g><g clip-path="url(#z)"><path fill="#9cba5f" d="M104.798 42.362h5.138v212.296h-5.138z"/></g><g clip-path="url(#A)"><path fill="#8eb5e0" d="M109.936 42.362h4.642v212.296h-4.642z"/></g><g clip-path="url(#B)"><path fill="#8eb5e0" d="M114.578 42.362h5.14v212.296h-5.14z"/></g><g clip-path="url(#C)"><path fill="#8eb5e0" d="M119.717 42.362h4.973v212.296h-4.973z"/></g><g clip-path="url(#D)"><path fill="#8eb5e0" d="M124.69 42.362h5.14v212.296h-5.14z"/></g><g clip-path="url(#E)"><path fill="#8eb5e0" d="M129.83 42.362h4.972v212.296h-4.973z"/></g><g clip-path="url(#F)"><path fill="#8eb5e0" d="M134.802 42.362h5.14v212.296h-5.14z"/></g><g clip-path="url(#G)"><path fill="#8eb5e0" d="M139.941 42.362h5.139v212.296h-5.139z"/></g><g clip-path="url(#H)"><path fill="#8eb5e0" d="M145.08 42.362h4.973v212.296h-4.973z"/></g><g clip-path="url(#I)"><path fill="#8eb5e0" d="M150.053 42.362h5.139v212.296h-5.139z"/></g><g clip-path="url(#J)"><path fill="#8eb5e0" d="M155.192 42.362h4.973v212.296h-4.973z"/></g><g clip-path="url(#K)"><path fill="#8eb5e0" d="M160.165 42.362h5.139v212.296h-5.139z"/></g><g clip-path="url(#L)"><path fill="#8eb5e0" d="M165.304 42.362h5.139v212.296h-5.14z"/></g><g clip-path="url(#M)"><path fill="#8eb5e0" d="M170.443 42.362h4.64v212.296h-4.64z"/></g><g clip-path="url(#N)"><path fill="#8eb5e0" d="M175.084 42.362h5.14v212.296h-5.14z"/></g><g clip-path="url(#O)"><path fill="#8eb5e0" d="M180.223 42.362h4.974v212.296h-4.974z"/></g><g clip-path="url(#P)"><path fill="#8eb5e0" d="M185.197 42.362h5.138v212.296h-5.138z"/></g><g clip-path="url(#Q)"><path fill="#8eb5e0" d="M190.335 42.362h4.974v212.296h-4.974z"/></g><g clip-path="url(#R)"><path fill="#8eb5e0" d="M195.309 42.362h5.138v212.296h-5.138z"/></g><g clip-path="url(#S)"><path fill="#8eb5e0" d="M200.447 42.362h5.14v212.296h-5.14z"/></g><g clip-path="url(#T)"><path fill="#8eb5e0" d="M205.587 42.362h4.972v212.296h-4.973z"/></g><g clip-path="url(#U)"><path fill="#8eb5e0" d="M210.559 42.362h5.14v212.296h-5.14z"/></g><g clip-path="url(#V)"><path fill="#8eb5e0" d="M215.698 42.362h4.973v212.296h-4.973z"/></g><g clip-path="url(#W)"><path fill="#8eb5e0" d="M220.67 42.362h5.14v212.296h-5.14z"/></g><g clip-path="url(#X)"><path fill="#8eb5e0" d="M225.81 42.362h5.139v212.296h-5.139z"/></g><g clip-path="url(#Y)"><path fill="#8eb5e0" d="M230.949 42.362h4.642v212.296h-4.642z"/></g><g clip-path="url(#Z)"><path fill="#8eb5e0" d="M235.59 42.362h5.139v212.296h-5.138z"/></g><g clip-path="url(#aa)"><path fill="#fbd5b6" d="M240.729 42.362h4.974v212.296h-4.974z"/></g><g clip-path="url(#ab)"><path fill="#fbd5b6" d="M245.703 42.362h5.138v212.296h-5.139z"/></g><g clip-path="url(#ac)"><path fill="#cdfece" d="M250.84 42.362h4.974v212.296h-4.973z"/></g><g clip-path="url(#ad)"><path fill="#cdfece" d="M255.814 42.362h5.139v212.296h-5.139z"/></g><g clip-path="url(#ae)"><path fill="#cdfece" d="M260.953 42.362h5.14v212.296h-5.14z"/></g><g clip-path="url(#af)"><path fill="#cdfece" d="M266.092 42.362h4.974v212.296h-4.974z"/></g><g clip-path="url(#ag)"><path fill="#cdfece" d="M271.066 42.362h5.138v212.296h-5.138z"/></g><g clip-path="url(#ah)"><path fill="#9cba5f" d="M276.204 42.362h4.974v212.296h-4.974z"/></g><g clip-path="url(#ai)"><path fill="#8eb5e0" d="M281.178 42.362h5.138v212.296h-5.138z"/></g><g clip-path="url(#aj)"><path fill="#8eb5e0" d="M286.316 42.362h5.14v212.296h-5.14z"/></g><g clip-path="url(#ak)"><path fill="#8eb5e0" d="M291.456 42.362h4.806v212.296h-4.806z"/></g><g clip-path="url(#al)"><path fill="#fbd5b6" d="M296.262 42.362h5.14v212.296h-5.14z"/></g><g clip-path="url(#am)"><path fill="#cdfece" d="M301.402 42.362h4.972v212.296h-4.972z"/></g><g clip-path="url(#an)"><path fill="#cdfece" d="M306.374 42.362h5.14v212.296h-5.14z"/></g><g clip-path="url(#ao)"><path fill="#cdfece" d="M311.514 42.362h4.972v212.296h-4.972z"/></g><g clip-path="url(#ap)"><path fill="#cdfece" d="M316.486 42.362h5.14v212.296h-5.14z"/></g><g clip-path="url(#aq)"><path fill="#cdfece" d="M321.626 42.362h5.138v212.296h-5.138z"/></g><g clip-path="url(#ar)"><path fill="#cdfece" d="M326.764 42.362h4.974v212.296h-4.974z"/></g><g clip-path="url(#as)"><path fill="#cdfece" d="M331.738 42.362h5.138v212.296h-5.138z"/></g><g clip-path="url(#at)"><path fill="#9cba5f" d="M336.876 42.362h4.973v212.296h-4.973z"/></g><g clip-path="url(#au)"><path fill="#8eb5e0" d="M341.85 42.362h5.138v212.296h-5.139z"/></g><g clip-path="url(#av)"><path fill="#8eb5e0" d="M346.988 42.362h5.14v212.296h-5.14z"/></g><g clip-path="url(#aw)"><path fill="#8eb5e0" d="M352.127 42.362h4.642v212.296h-4.642z"/></g><g clip-path="url(#ax)"><path fill="#8eb5e0" d="M356.77 42.362h5.137v212.296h-5.138z"/></g><g clip-path="url(#ay)"><path fill="#8eb5e0" d="M361.907 42.362h4.974v212.296h-4.974z"/></g><g clip-path="url(#az)"><path fill="#fbd5b6" d="M366.881 42.362h5.138v212.296h-5.138z"/></g><g clip-path="url(#aA)"><path fill="#cdfece" d="M372.02 42.362h4.973v212.296h-4.974z"/></g><g clip-path="url(#aB)"><path fill="#cdfece" d="M376.993 42.362h5.138v212.296h-5.138Z"/></g><g clip-path="url(#aC)"><path fill="#cdfece" d="M382.131 42.362h5.14v212.296h-5.14z"/></g><g clip-path="url(#aD)"><path fill="#cdfece" d="M387.27 42.362h4.973v212.296h-4.972z"/></g><g clip-path="url(#aE)"><path fill="#cdfece" d="M392.243 42.362h5.14v212.296h-5.14z"/></g><g clip-path="url(#aF)"><path fill="#cdfece" d="M397.383 42.362h4.972v212.296h-4.972z"/></g><g clip-path="url(#aG)"><path fill="#8eb5e0" d="M402.355 42.362h5.14v212.296h-5.14z"/></g><g clip-path="url(#aH)"><path fill="#8eb5e0" d="M407.495 42.362h5.138v212.296h-5.138z"/></g><g clip-path="url(#aI)"><path fill="#8eb5e0" d="M412.633 42.362h4.642v212.296h-4.642z"/></g><g clip-path="url(#aJ)"><path fill="#fbd5b6" d="M417.275 42.362h5.138v212.296h-5.138z"/></g><g clip-path="url(#aK)"><path fill="#cdfece" d="M422.413 42.362h4.974v212.296h-4.974z"/></g><g clip-path="url(#aL)"><path fill="#cdfece" d="M427.387 42.362h5.14v212.296h-5.14z"/></g><g clip-path="url(#aM)"><path fill="#cdfece" d="M432.526 42.362h4.973v212.296h-4.973z"/></g><g clip-path="url(#aN)"><path fill="#cdfece" d="M437.499 42.362h5.14v212.296h-5.14z"/></g><g clip-path="url(#aO)"><path fill="#cdfece" d="M442.638 42.362h5.139v212.296h-5.139z"/></g><g clip-path="url(#aP)"><path fill="#cdfece" d="M447.777 42.362h4.973v212.296h-4.973z"/></g><g clip-path="url(#aQ)"><path fill="#cdfece" d="M452.75 42.362h5.139v212.296h-5.139z"/></g><g clip-path="url(#aR)"><path fill="#9cba5f" d="M457.889 42.362h4.973v212.296h-4.973z"/></g><g clip-path="url(#aS)"><path fill="#8eb5e0" d="M462.862 42.362h5.139v212.296h-5.139z"/></g><g clip-path="url(#aT)"><path fill="#8eb5e0" d="M468 42.362h5.14v212.296H468z"/></g><g clip-path="url(#aU)"><path fill="#8eb5e0" d="M473.14 42.362h4.64v212.296h-4.64Z"/></g><g clip-path="url(#aV)"><path fill="#8eb5e0" d="M477.78 42.362h5.14v212.296h-5.14z"/></g><g clip-path="url(#aW)"><path fill="#8eb5e0" d="M482.92 42.362h4.974v212.296h-4.974z"/></g><g clip-path="url(#aX)"><path fill="#8eb5e0" d="M487.894 42.362h5.138v212.296h-5.138z"/></g><g clip-path="url(#aY)"><path fill="#8eb5e0" d="M493.032 42.362h4.974v212.296h-4.974z"/></g><g clip-path="url(#aZ)"><path fill="#8eb5e0" d="M498.006 42.362h5.138v212.296h-5.138z"/></g><g clip-path="url(#ba)"><path fill="#8eb5e0" d="M503.144 42.362h5.138v212.296h-5.138z"/></g><g clip-path="url(#bb)"><path fill="#8eb5e0" d="M508.282 42.362h4.974v212.296h-4.974z"/></g><g clip-path="url(#bc)"><path fill="#8eb5e0" d="M513.256 42.362h5.14v212.296h-5.14Z"/></g><g clip-path="url(#bd)"><path fill="#8eb5e0" d="M518.395 42.362h4.973v212.296h-4.973z"/></g><g clip-path="url(#be)"><path fill="#8eb5e0" d="M523.368 42.362h5.14v212.296h-5.14z"/></g><g clip-path="url(#bf)"><path fill="#8eb5e0" d="M528.507 42.362h5.139v212.296h-5.139z"/></g><g clip-path="url(#bg)"><path fill="#8eb5e0" d="M533.646 42.362h4.807v212.296h-4.807z"/></g><g clip-path="url(#bh)"><path fill="#8eb5e0" d="M538.453 42.362h5.139v212.296h-5.139z"/></g><g clip-path="url(#bi)"><path fill="#8eb5e0" d="M543.592 42.362h4.973v212.296h-4.973z"/></g><g clip-path="url(#bj)"><path fill="#8eb5e0" d="M548.565 42.362h5.139v212.296h-5.139z"/></g><g clip-path="url(#bk)"><path fill="#8eb5e0" d="M553.704 42.362h4.973v212.296h-4.973z"/></g><g clip-path="url(#bl)"><path fill="#8eb5e0" d="M558.677 42.362h5.139v212.296h-5.139z"/></g><g clip-path="url(#bm)"><path fill="#8eb5e0" d="M563.816 42.362h5.14v212.296h-5.14z"/></g><g clip-path="url(#bn)"><path fill="#8eb5e0" d="M568.955 42.362h4.973v212.296h-4.973z"/></g><g clip-path="url(#bo)"><path fill="#8eb5e0" d="M573.928 42.362h5.14v212.296h-5.14z"/></g><g clip-path="url(#bp)"><path fill="#8eb5e0" d="M579.067 42.362h4.973v212.296h-4.973z"/></g><g clip-path="url(#bq)"><path fill="#8eb5e0" d="M584.04 42.362h5.14v212.296h-5.14z"/></g><g clip-path="url(#br)"><path fill="#8eb5e0" d="M589.18 42.362h5.137v212.296h-5.138z"/></g><g clip-path="url(#bs)"><path fill="#8eb5e0" d="M594.317 42.362h4.642v212.296h-4.642z"/></g><g clip-path="url(#bt)"><path fill="#7ad7fd" d="M598.96 42.362h5.139v212.296h-5.14z"/></g><g clip-path="url(#bu)"><path fill="#7ad7fd" d="M604.099 42.362h4.972v212.296H604.1z"/></g><g clip-path="url(#bv)"><path fill="#7ad7fd" d="M609.071 42.362h5.14v212.296h-5.14z"/></g><g clip-path="url(#bw)"><path fill="#7ad7fd" d="M614.21 42.362h4.973v212.296h-4.972z"/></g><g clip-path="url(#bx)"><path fill="#7ad7fd" d="M619.183 42.362h5.14v212.296h-5.14z"/></g><g clip-path="url(#by)"><path fill="#7ad7fd" d="M624.323 42.362h5.138v212.296h-5.138z"/></g><g clip-path="url(#bz)"><path fill="#7ad7fd" d="M629.461 42.362h4.974v212.296h-4.974z"/></g><g clip-path="url(#bA)"><path fill="#7ad7fd" d="M634.435 42.362h5.138v212.296h-5.138z"/></g><g clip-path="url(#bB)"><path fill="#7ad7fd" d="M639.573 42.362h4.974v212.296h-4.974z"/></g><g clip-path="url(#bC)"><path fill="#8eb5e0" d="M644.547 42.362h5.138v212.296h-5.138z"/></g><g clip-path="url(#bD)"><path fill="#8eb5e0" d="M649.685 42.362h5.14v212.296h-5.14z"/></g><g clip-path="url(#bE)"><path fill="#8eb5e0" d="M654.824 42.362h4.642v212.296h-4.642z"/></g><g clip-path="url(#bF)"><path fill="#7ad7fd" d="M659.466 42.362h5.139v212.296h-5.139z"/></g><g clip-path="url(#bG)"><path fill="#fbd5b6" d="M664.605 42.362h4.973v212.296h-4.973z"/></g><g clip-path="url(#bH)"><path fill="#fbd5b6" d="M669.578 42.362h5.138v212.296h-5.138z"/></g><g clip-path="url(#bI)"><path fill="#fbd5b6" d="M674.716 42.362h4.974v212.296h-4.974z"/></g><g clip-path="url(#bJ)"><path fill="#cdfece" d="M679.69 42.362h5.138v212.296h-5.138z"/></g><g clip-path="url(#bK)"><path fill="#cdfece" d="M684.828 42.362h5.14v212.296h-5.14z"/></g><g clip-path="url(#bL)"><path fill="#cdfece" d="M689.968 42.362h4.972v212.296h-4.972z"/></g><g clip-path="url(#bM)"><path fill="#cdfece" d="M694.94 42.362h5.14v212.296h-5.14z"/></g><g clip-path="url(#bN)"><path fill="#cdfece" d="M700.08 42.362h4.972v212.296h-4.972z"/></g><g clip-path="url(#bO)"><path fill="#8eb5e0" d="M705.052 42.362h5.14v212.296h-5.14z"/></g><g clip-path="url(#bP)"><path fill="#8eb5e0" d="M710.192 42.362h5.138v212.296h-5.138z"/></g><g clip-path="url(#bQ)"><path fill="#8eb5e0" d="M715.33 42.362h4.642v212.296h-4.642z"/></g><g clip-path="url(#bR)"><path fill="#8eb5e0" d="M719.972 42.362h5.138v212.296h-5.138z"/></g><g clip-path="url(#bS)"><path fill="#fbd5b6" d="M725.11 42.362h4.974v212.296h-4.974z"/></g><g clip-path="url(#bT)"><path fill="#cdfece" d="M730.084 42.362h5.138v212.296h-5.138z"/></g><g clip-path="url(#bU)"><path fill="#cdfece" d="M735.222 42.362h4.974v212.296h-4.974z"/></g><g clip-path="url(#bV)"><path fill="#cdfece" d="M740.196 42.362h5.14v212.296h-5.14z"/></g><g clip-path="url(#bW)"><path fill="#cdfece" d="M745.335 42.362h5.139v212.296h-5.139z"/></g><g clip-path="url(#bX)"><path fill="#cdfece" d="M750.474 42.362h4.973v212.296h-4.973z"/></g><g clip-path="url(#bY)"><path fill="#9cba5f" d="M755.447 42.362h5.139v212.296h-5.139z"/></g><g clip-path="url(#bZ)"><path fill="#8eb5e0" d="M760.586 42.362h4.973v212.296h-4.973z"/></g><g clip-path="url(#ca)"><path fill="#8eb5e0" d="M765.56 42.362h5.138v212.296h-5.139z"/></g><g clip-path="url(#cb)"><path fill="#8eb5e0" d="M770.698 42.362h5.139v212.296h-5.14z"/></g><g clip-path="url(#cc)"><path fill="#7ad7fd" d="M775.837 42.362h4.807v212.296h-4.807z"/></g><g clip-path="url(#cd)"><path fill="#fbd5b6" d="M780.644 42.362h5.14v212.296h-5.14z"/></g><g clip-path="url(#ce)"><path fill="#cdfece" d="M785.783 42.362h4.973v212.296h-4.973z"/></g><g clip-path="url(#cf)"><path fill="#cdfece" d="M790.756 42.362h5.139v212.296h-5.14z"/></g><g clip-path="url(#cg)"><path fill="#cdfece" d="M795.895 42.362h4.973v212.296h-4.973z"/></g><g clip-path="url(#ch)"><path fill="#cdfece" d="M800.868 42.362h5.139v212.296h-5.14z"/></g><g clip-path="url(#ci)"><path fill="#cdfece" d="M806.007 42.362h5.138v212.296h-5.138z"/></g><g clip-path="url(#cj)"><path fill="#cdfece" d="M811.145 42.362h4.974v212.296h-4.974z"/></g><g clip-path="url(#ck)"><path fill="#cdfece" d="M816.119 42.362h5.138v212.296h-5.138z"/></g><g clip-path="url(#cl)"><path fill="#9cba5f" d="M821.257 42.362h4.974v212.296h-4.974z"/></g><g clip-path="url(#cm)"><path fill="#8eb5e0" d="M826.23 42.362h5.14v212.296h-5.14z"/></g><g clip-path="url(#cn)"><path fill="#8eb5e0" d="M831.37 42.362h5.139v212.296h-5.14z"/></g><g clip-path="url(#co)"><path fill="#8eb5e0" d="M836.509 42.362h4.641v212.296h-4.641z"/></g><g clip-path="url(#cp)"><path fill="#7ad7fd" d="M841.15 42.362h5.139v212.296h-5.139z"/></g><g clip-path="url(#cq)"><path fill="#fbd5b6" d="M846.289 42.362h4.973v212.296h-4.973z"/></g><g clip-path="url(#cr)"><path fill="#cdfece" d="M851.262 42.362h5.139v212.296h-5.139z"/></g><g clip-path="url(#cs)"><path fill="#cdfece" d="M856.4 42.362h4.974v212.296h-4.973z"/></g><g clip-path="url(#ct)"><path fill="#cdfece" d="M861.374 42.362h5.139v212.296h-5.139z"/></g><g clip-path="url(#cu)"><path fill="#cdfece" d="M866.513 42.362h5.14v212.296h-5.14z"/></g><g clip-path="url(#cv)"><path fill="#cdfece" d="M871.652 42.362h4.973v212.296h-4.973z"/></g><g clip-path="url(#cw)"><path fill="#cdfece" d="M876.625 42.362h5.14v212.296h-5.14z"/></g><g clip-path="url(#cx)"><path fill="#9cba5f" d="M881.764 42.362h4.973v212.296h-4.973z"/></g><g clip-path="url(#cy)"><path fill="#8eb5e0" d="M886.737 42.362h5.14v212.296h-5.14z"/></g><g clip-path="url(#cz)"><path fill="none" stroke="#fff" stroke-linecap="square" stroke-linejoin="round" stroke-miterlimit="10" stroke-width=".8" d="M44.126 48.788v205.87"/></g><path stroke="#000" stroke-linejoin="round" stroke-miterlimit="10" stroke-width=".8" d="M44.126 48.788v-3.5"/><text font-family="LMSans10" font-size="9.963" font-weight="400" style="-inkscape-font-specification:LMSans10-Regular" transform="matrix(1 0 0 -1 34.163 35.257)"><tspan x="0 4.9812999 9.9625998 14.9439" y="0">2012</tspan></text><g clip-path="url(#cA)"><path fill="none" stroke="#fff" stroke-linecap="square" stroke-linejoin="round" stroke-miterlimit="10" stroke-width=".8" d="M104.798 48.788v205.87"/></g><path stroke="#000" stroke-linejoin="round" stroke-miterlimit="10" stroke-width=".8" d="M104.798 48.788v-3.5"/><text font-family="LMSans10" font-size="9.963" font-weight="400" style="-inkscape-font-specification:LMSans10-Regular" transform="matrix(1 0 0 -1 94.834 35.257)"><tspan x="0 4.9812999 9.9625998 14.9439" y="0">2013</tspan></text><g clip-path="url(#cB)"><path fill="none" stroke="#fff" stroke-linecap="square" stroke-linejoin="round" stroke-miterlimit="10" stroke-width=".8" d="M165.304 48.788v205.87"/></g><path stroke="#000" stroke-linejoin="round" stroke-miterlimit="10" stroke-width=".8" d="M165.304 48.788v-3.5"/><text font-family="LMSans10" font-size="9.963" font-weight="400" style="-inkscape-font-specification:LMSans10-Regular" transform="matrix(1 0 0 -1 155.339 35.257)"><tspan x="0 4.9812999 9.9625998 14.9439" y="0">2014</tspan></text><g clip-path="url(#cC)"><path fill="none" stroke="#fff" stroke-linecap="square" stroke-linejoin="round" stroke-miterlimit="10" stroke-width=".8" d="M225.81 48.788v205.87"/></g><path stroke="#000" stroke-linejoin="round" stroke-miterlimit="10" stroke-width=".8" d="M225.81 48.788v-3.5"/><text font-family="LMSans10" font-size="9.963" font-weight="400" style="-inkscape-font-specification:LMSans10-Regular" transform="matrix(1 0 0 -1 215.845 35.257)"><tspan x="0 4.9812999 9.9625998 14.9439" y="0">2015</tspan></text><g clip-path="url(#cD)"><path fill="none" stroke="#fff" stroke-linecap="square" stroke-linejoin="round" stroke-miterlimit="10" stroke-width=".8" d="M286.316 48.788v205.87"/></g><path stroke="#000" stroke-linejoin="round" stroke-miterlimit="10" stroke-width=".8" d="M286.316 48.788v-3.5"/><text font-family="LMSans10" font-size="9.963" font-weight="400" style="-inkscape-font-specification:LMSans10-Regular" transform="matrix(1 0 0 -1 276.35 35.257)"><tspan x="0 4.9812999 9.9625998 14.9439" y="0">2016</tspan></text><g clip-path="url(#cE)"><path fill="none" stroke="#fff" stroke-linecap="square" stroke-linejoin="round" stroke-miterlimit="10" stroke-width=".8" d="M346.988 48.788v205.87"/></g><path stroke="#000" stroke-linejoin="round" stroke-miterlimit="10" stroke-width=".8" d="M346.988 48.788v-3.5"/><text font-family="LMSans10" font-size="9.963" font-weight="400" style="-inkscape-font-specification:LMSans10-Regular" transform="matrix(1 0 0 -1 337.021 35.257)"><tspan x="0 4.9812999 9.9625998 14.9439" y="0">2017</tspan></text><g clip-path="url(#cF)"><path fill="none" stroke="#fff" stroke-linecap="square" stroke-linejoin="round" stroke-miterlimit="10" stroke-width=".8" d="M407.495 48.788v205.87"/></g><path stroke="#000" stroke-linejoin="round" stroke-miterlimit="10" stroke-width=".8" d="M407.495 48.788v-3.5"/><text font-family="LMSans10" font-size="9.963" font-weight="400" style="-inkscape-font-specification:LMSans10-Regular" transform="matrix(1 0 0 -1 397.527 35.257)"><tspan x="0 4.9812999 9.9625998 14.9439" y="0">2018</tspan></text><g clip-path="url(#cG)"><path fill="none" stroke="#fff" stroke-linecap="square" stroke-linejoin="round" stroke-miterlimit="10" stroke-width=".8" d="M468 48.788v205.87"/></g><path stroke="#000" stroke-linejoin="round" stroke-miterlimit="10" stroke-width=".8" d="M468 48.788v-3.5"/><text font-family="LMSans10" font-size="9.963" font-weight="400" style="-inkscape-font-specification:LMSans10-Regular" transform="matrix(1 0 0 -1 458.032 35.257)"><tspan x="0 4.9812999 9.9625998 14.9439" y="0">2019</tspan></text><g clip-path="url(#cH)"><path fill="none" stroke="#fff" stroke-linecap="square" stroke-linejoin="round" stroke-miterlimit="10" stroke-width=".8" d="M528.507 48.788v205.87"/></g><path stroke="#000" stroke-linejoin="round" stroke-miterlimit="10" stroke-width=".8" d="M528.507 48.788v-3.5"/><text font-family="LMSans10" font-size="9.963" font-weight="400" style="-inkscape-font-specification:LMSans10-Regular" transform="matrix(1 0 0 -1 518.538 35.257)"><tspan x="0 4.9812999 9.9625998 14.9439" y="0">2020</tspan></text><g clip-path="url(#cI)"><path fill="none" stroke="#fff" stroke-linecap="square" stroke-linejoin="round" stroke-miterlimit="10" stroke-width=".8" d="M589.18 48.788v205.87"/></g><path stroke="#000" stroke-linejoin="round" stroke-miterlimit="10" stroke-width=".8" d="M589.18 48.788v-3.5"/><text font-family="LMSans10" font-size="9.963" font-weight="400" style="-inkscape-font-specification:LMSans10-Regular" transform="matrix(1 0 0 -1 579.209 35.257)"><tspan x="0 4.9812999 9.9625998 14.9439" y="0">2021</tspan></text><g clip-path="url(#cJ)"><path fill="none" stroke="#fff" stroke-linecap="square" stroke-linejoin="round" stroke-miterlimit="10" stroke-width=".8" d="M649.685 48.788v205.87"/></g><path stroke="#000" stroke-linejoin="round" stroke-miterlimit="10" stroke-width=".8" d="M649.685 48.788v-3.5"/><text font-family="LMSans10" font-size="9.963" font-weight="400" style="-inkscape-font-specification:LMSans10-Regular" transform="matrix(1 0 0 -1 639.714 35.257)"><tspan x="0 4.9812999 9.9625998 14.9439" y="0">2022</tspan></text><g clip-path="url(#cK)"><path fill="none" stroke="#fff" stroke-linecap="square" stroke-linejoin="round" stroke-miterlimit="10" stroke-width=".8" d="M710.192 48.788v205.87"/></g><path stroke="#000" stroke-linejoin="round" stroke-miterlimit="10" stroke-width=".8" d="M710.192 48.788v-3.5"/><text font-family="LMSans10" font-size="9.963" font-weight="400" style="-inkscape-font-specification:LMSans10-Regular" transform="matrix(1 0 0 -1 700.22 35.257)"><tspan x="0 4.9812999 9.9625998 14.9439" y="0">2023</tspan></text><g clip-path="url(#cL)"><path fill="none" stroke="#fff" stroke-linecap="square" stroke-linejoin="round" stroke-miterlimit="10" stroke-width=".8" d="M770.698 48.788v205.87"/></g><path stroke="#000" stroke-linejoin="round" stroke-miterlimit="10" stroke-width=".8" d="M770.698 48.788v-3.5"/><text font-family="LMSans10" font-size="9.963" font-weight="400" style="-inkscape-font-specification:LMSans10-Regular" transform="matrix(1 0 0 -1 760.725 35.257)"><tspan x="0 4.9812999 9.9625998 14.9439" y="0">2024</tspan></text><g clip-path="url(#cM)"><path fill="none" stroke="#fff" stroke-linecap="square" stroke-linejoin="round" stroke-miterlimit="10" stroke-width=".8" d="M831.37 48.788v205.87"/></g><path stroke="#000" stroke-linejoin="round" stroke-miterlimit="10" stroke-width=".8" d="M831.37 48.788v-3.5"/><text font-family="LMSans10" font-size="9.963" font-weight="400" style="-inkscape-font-specification:LMSans10-Regular" transform="matrix(1 0 0 -1 821.396 35.257)"><tspan x="0 4.9812999 9.9625998 14.9439" y="0">2025</tspan></text><path stroke="#000" stroke-linejoin="round" stroke-miterlimit="10" stroke-width=".8" d="M39.65 48.788h-3.5"/><text font-family="LMSans10" font-size="9.963" font-weight="400" style="-inkscape-font-specification:LMSans10-Regular" transform="matrix(1 0 0 -1 26.287 44.988)"><tspan x="0" y="0">0</tspan></text><path stroke="#000" stroke-linejoin="round" stroke-miterlimit="10" stroke-width=".8" d="M39.65 76.854h-3.5"/><text font-family="LMSans10" font-size="9.963" font-weight="400" style="-inkscape-font-specification:LMSans10-Regular" transform="matrix(1 0 0 -1 13.563 73.054)"><tspan x="0 4.9812999 9.9625998" y="0">250</tspan></text><path stroke="#000" stroke-linejoin="round" stroke-miterlimit="10" stroke-width=".8" d="M39.65 104.92h-3.5"/><text font-family="LMSans10" font-size="9.963" font-weight="400" style="-inkscape-font-specification:LMSans10-Regular" transform="matrix(1 0 0 -1 13.563 101.119)"><tspan x="0 4.9812999 9.9625998" y="0">500</tspan></text><path stroke="#000" stroke-linejoin="round" stroke-miterlimit="10" stroke-width=".8" d="M39.65 132.985h-3.5"/><text font-family="LMSans10" font-size="9.963" font-weight="400" style="-inkscape-font-specification:LMSans10-Regular" transform="matrix(1 0 0 -1 13.563 129.185)"><tspan x="0 4.9812999 9.9625998" y="0">750</tspan></text><path stroke="#000" stroke-linejoin="round" stroke-miterlimit="10" stroke-width=".8" d="M39.65 161.05h-3.5"/><text font-family="LMSans10" font-size="9.963" font-weight="400" style="-inkscape-font-specification:LMSans10-Regular" transform="matrix(1 0 0 -1 7.2 157.251)"><tspan x="0 4.9812999 9.9625998 14.9439" y="0">1000</tspan></text><path stroke="#000" stroke-linejoin="round" stroke-miterlimit="10" stroke-width=".8" d="M39.65 189.117h-3.5"/><text font-family="LMSans10" font-size="9.963" font-weight="400" style="-inkscape-font-specification:LMSans10-Regular" transform="matrix(1 0 0 -1 7.2 185.315)"><tspan x="0 4.9812999 9.9625998 14.9439" y="0">1250</tspan></text><path stroke="#000" stroke-linejoin="round" stroke-miterlimit="10" stroke-width=".8" d="M39.65 217.183h-3.5"/><text font-family="LMSans10" font-size="9.963" font-weight="400" style="-inkscape-font-specification:LMSans10-Regular" transform="matrix(1 0 0 -1 7.2 213.381)"><tspan x="0 4.9812999 9.9625998 14.9439" y="0">1500</tspan></text><path stroke="#000" stroke-linejoin="round" stroke-miterlimit="10" stroke-width=".8" d="M39.65 245.249h-3.5"/><text font-family="LMSans10" font-size="9.963" font-weight="400" style="-inkscape-font-specification:LMSans10-Regular" transform="matrix(1 0 0 -1 7.2 241.447)"><tspan x="0 4.9812999 9.9625998 14.9439" y="0">1750</tspan></text><g clip-path="url(#cN)"><path fill="none" stroke="#000" stroke-linecap="square" stroke-linejoin="round" stroke-miterlimit="10" d="m40.147 71.978.663 28.644.497 5.02.332-.226.166-.32.331-2.663.166-.32.166-.129.497-3.447.166-.145.331.048.166-.016.332.369.166.32.828 7.202.498 6.447.33 2.486.498 2.597.498 1.925.33.979.83 4.81.332.322.166.032.165-.193.332-.77.497-2.18.663-5.069.332-2.373.165-1.395.664-2.23.497-1.603.331-2.358.83-28.355.33-10.328.167-.064.165-.353.166-.593.663-.337.332-.914.165-.224.332-1.685.663-5.532.332-2.519.663-3.335.166-.24.165.288.332.112.331-.016h.332l.166-.37.663-.207.497-.4.663-.113.332.112.165.32.995.45.166-.225.331.016.166 4.362.332 12.221.332 7.987.33-.113.166-4.458.332-12.333.332-7.986.828-.226.166.097.166-.08.332.112.662.481.498.129.332.272.166.08.662.69.166-.033.664-.496.828.4.332.257.994.065.166-.08.332.08.33.352.332.257.332.16.166.048.166 4.491.497 21.699.165 3.64.332-.85.166-5.051.498-23.207.166-4.057.33.192.664.32.498.113.33.145.332.175.498.065.33-.016.332.177.332.144.166.096.332.273.166-.112.662-.017.332-.112.332.144.496-.064.332-.048.664-.064.33-.048.332-.192.664.095.332.418.33.32h.166l.332-.128.166-.224.166-.08.33-.321.332.015.332.08.166.226.828.127.166 4.523.498 24.056.166 4.138.332.016.164-4.506.498-24.329.166-4.186.664.064.994.337.994.064.498.481.332.37.496.207.498-.015.332.144.662.337.498-.273.332-.177.166 2.342.496.177.332-.129.166-.097.166-2.421.166-.112.166.048.164-.096.166.048.498.417.332-.177.496-.337.332-.304.994-.048.166.048.664.593.332.177.166.032.33-.273.498-.24.332 10.36.496 19.63.332 1.492.332-9.174.498-17.08.33.256.166.193.166-.032.498-.545.332-.722.165.24.165.385.166.145.332-.962.332-1.604.496-3.994.332-1.235.332-.08.332.065.496.304 1.161.304.663.53.498.498.828.657.166.289.166.576.332 1.925.662 12.83.332 5.453.332 3.64.331 2.599.331 2.164.332 2.807.664 12.013.331 5.869.165 2.182.664 3.945.166.433.496 2.197.332 2.004.498 3.432.828 4.395.166-.272.332 1.218.166-.802.166.337.165-.048.166.465.331 2.438.166.833.332 3.85.994 9.462.332 1.78.332.738.497.112.165.016.166-.112.166.112.166-.144.332.594.165.112.166-.418.497-3.432.332-.32.166.048.166.721.165 1.14.166.127.165.578.498.336.166.29.166.77.331 2.773.331 1.46.166-.385.166.08.166.24.166.097.497 1.46.331 2.42.332 1.157.166.127.663 1.363.165.08.498 1.685.166.433.331-.273.166.016.166-.401.165-.144.166.32 1.161 4.651.165.257.83 4.555.165.144h.166l.331-1.138.166-.033.332.209.331 1.266.498.53.663-1.588.166-.112.165.032.166.144.497 1.395.166.241.332.722.165-.017.166.113h.166l.331.706h.166l.166-.257.83-2.63.165-.08.165.176.498 1.7.331.45.166-.081.332-.882.828-2.197.498.721.663 2.07.166.144.165.545.166.097.497-.29.166-.208.332.177.331.208.332.721.33.93.167.081.332 1.043.331-.145.166-.193.332.546.165.321.332.978.166.45.165.897.166.45.166.128.166-.257.33-1.107.167-.304.663-3.272.166.016.166.192.166.418.828 6.126.332 1.347.166.113.497 1.459.166.85.165.401.166.144.166-.224.332-.914.33-.16.167.287.331 1.252.332 1.411.166.064.165-.144.166.064.166-.337.497.706.664 1.908.165-.048.497.513.166.192.332.707.33 1.09.167.337.166-.017.497.802.166.049.166-.049.166.177.165.529.166.193.497-1.861.166-.08.498-1.026.662 1.876.664 1.636.165.273.166-.097.331-1.219.166-.994.166-1.62.498-9.59.662-15.925.664-4.058.33-1.315.498-.641.332 3.576 1.326 21.586.498 4.283.497 3.271.497 2.502.498 1.171.496 1.924.166.369.166-.16.166-.337.166-.128.166-.578.33-1.732.167-.385.165.048.166.433.166.209.332.898.332 1.075.165.288.497-.047.332.287.332.017.166.048.828 1.138.332-1.41.166-.354.33-.047.332-.274.498 2.423.994 2.357.166-.033.332-.496.662 1.058.498 1.412.166-.482.166-.833.662-8.676.332-3.016.166-.946.829 4.41.663 4.266.663 2.229.165-.192.332.257.166-1.22.166-.513.166-.112.166-.32.166.882.33-.498.332 1.764h.166l.332-3.191.496-2.806.332-1.572.498 4.443.828 7.601.332 1.01.166.32.166-.095.828-1.748.332-1.283.332-1.572.332-3.785.33-2.886.332-1.267.166-.033.332 2.102.332 1.908.164-.53.332 1.06.664 2.068.166 2.181.166.834.164.4.332 1.7.332.706.332-.224.166.224.33-.881.664-5.614.498-2.181.33 1.443.332 1.284.166.095.166.257.332-.031.828-4.138.332-1.315.332.513.33.769.332.418.332.882.498 1.636.166-.017.33-2.165.332-3.576.498-6.511.331-1.716.497-2.39 1.16-4.86.332-.513.166-.128.332-.738.496.722.166.417.166.048.166-.208.166-.017.332-1.378.331-1.861.497-.946.166.08.166-.144.166.032.332-1.78.33-.337.166-.273.166-.032.664 2.036.496.722.166-.144.332.24.498-.833.165.209.829-3.738.166-.176.166-.899.166-.047.165.096.165-.064.332-.305.332-1.01.166-.289.332-1.587.33-.08.166-.146.332-.015.332.946.496.353.166.08.166 1.507.166.129.166-.144.332-1.123.166-.032.165.064.165-1.748.166-.209.332.192.166.45.332-.465.166.144.165-.096.165-.24.166.304.166.048.166.176.663 1.845.331.417.166.32.166-.208.166-.465.332-.08.166.144.165.017.331-.802.166-.257.332-1.332.332.289.331 1.828.829 5.357.828 18.01.332-3.496.83-32.796.33-1.492.332-1.396.166-1.347.663 11.676.829 33.983.332 5.79.828 4.747.166-.048.166-1.075.332-3.928.496-6.881.166-.208.332.914.166.288.331-.353.166-.53.166-1.009.663-5.533.332-2.39.165-.273.166.386.331.16.166.144.498.112.166.08.497-.448.165-.08.332-.45.166-.48.166-.129.662-1.764.332-1.989.663-3.448.166-1.331.663-9.96.497-6.607.332.017.166.545.165.095.166-.416.166 1.812.332-.193.165-.496.332-2.92.166-1.09.165-3.24 1.161-9.686.33-3.352.167-.802.332-3.08.165-.16.166-.433.166.16.166-.096.165.097.664 3.208.331.496.166.241.166-.032.165-.369.166-.064.166-.433.995 3.127.165.129.332-1.684.331-1.155.166-.657.332-.145.33.738.167.208.497 1.107.166.08.498.963.33-.065.498 1.235.332-.737.994-4.074.664-1.379.165-.033.166-.24.166-.064.331.304.332.513.166-.032.33.273.167-.032.497 28.194.332 15.123.166.193.165.048.332-19.63.497-23.222.332-.514.166-.127.165.047.332-.737.331-.338.166-.063.166-.193.166.16.166-.208.828-.384.166-.594.166-.208.166.143.33.065.333.16.331.145.663.256.166-.032.166.4.166.146.165-.16.166.063.498-.754.33-.962.332-.657.332.064.498.416.497-.095h.165l.498-.706.663-.033.663 1.108.166.368.332.128.33 13.953.332 18.139.166 6.303h.166l.166-.193.33-14.931.333-19.39.165-6.767.332-.593.166-.065.332.177.165.288.166.113.331.513 1.492 3 .166.031.166-.113.498-.657.496-.337.83.497.165.177.332.449.331.192.166.048.166.273.166-.128.166-.305.662-.433.166-.45.166-.063.332-.273.33-.096.167-.21.331-.014.332.369.332.464.166.401.828 31.193.166.225.166.064.828-29.204.166.032.332.304.166-.24.166.064.33.401.332.112.166-.016.498 2.149.33 1.732.498 2.935.83 2.742.33 14.242.664 33.55.166 6.271.166-.352.166-1.3.496-9.493.498-.802.498-1.396.496-4.635.498 13.76.828 27.36.664 10.44.497 4.218 1.657 9.655.166.819.498-4.057.662-7.202.332 1.22.498 4.714.166.561.166-.015.662-14.306 1.16-27.392.498-11.66.664-3.336.33-3.544.166-1.796 1.16-22.325.332-.352.166-.754.664-1.379.662-3.111.332-3.08.828-10.761.664-5.79.332-1.908.496-2.55.83.85.166 2.951.166.273.496-.225.332-.385.166-3.015.166-.69.166-.209.662-.24.498 1.555.166.08.33-.608h.166l.166-.546.332-2.213.166-.433.332.113.33-.69.166.32.332.786.166.193.166-.385.332.208.166.29.164.031.166-.063.166.063.498 4.908.332.128.33-.128.332-3.111.166-1.38.166-.096.166.064.332.497.164 1.172.332 14.465.166 2.165.166.866.332-.048.166-.641.33-13.103.166-1.604.166-.561.332.722.828.833.332.016.166.08.166-.047.166-.16.166.095 1.16-4.747.166.033.662.528.332-.112.498.562.166-.017.165.097.165-.032.332-.32.332.128.166.352.166-.016.166.16.33.545.166-.112.166-.304.166-.064.498.513.165-.128.166.224.165.433.166-.048.332.288.166.145.166.353.331.24.166.032.663-1.074.332.064.331.32.331.498.166.192.332-.016.332.24.165.226.331.063.498-1.731.498-2.134.165-.882.331-.015.332 12.685.498 26.446h.331l.331-13.583.332-20.72.166-6.031.332-.017.331.049.166.032.331.369.332-.978.166.015.331.273.166-.064.165.032.332 1.123.166.192.166-.048.166.145h.497l.165-.033.166-.16h.166l.332.24.166.08.331.37.166.352.165.08.166-.176.498.176.166-.015.497 15.22.33 11.466.167.352.166-.128.663-21.169.166-5.566.165-.32.332.4.332.547.497 1.298.33.739.167-.129.166.08.166-.048.331.32.166.193.166-.017.33.434.167-.193.497-1.202.498 10.071.663 16.888.497 7.666.829 23.815.332 5.501.994-16.614.166-3.224.331-1.587.166-.498.663-3.913.663 8.852.829 30.697.332 6.239.331 2.036.497 2.646.664 1.845.165.064.166.465.829 3.752.332.354.165-.289.332-.192.33 1.683.83 7.153h.166l.166-.24.166-.049.165.16.166.05.83 2.885.165-.063.166.143.33-.143.498-1.364.498-2.132.165-.401.332.032.166.352.165.593.166.9.166.191.332.513.33 1.925.333 1.09.497-3.239.995-8.757.165-1.074.664-8.195 1.16-33.872.497-1.443.332-1.828.165-.722.166-2.02.663-16.182.332-8.244.166-2.117.331-.48.166.945.166.112.166-.304.33-1.427.332-3.722.498-9.75.332-5.085.33-1.843.332.144.332.304.166-.047.332.497.165.641.166.224.165-.207.332.063.332-.096.166-.241.33-.047.332-.418.332-.112.332-.593.166 3.095.165.144.83-3.127.165-3.449.166-.625.166.177.33.16.166.321.166-.016.166-.176.332.336.332.224.662 1.235.332.98.332.592.497.498.165-.097.332-1.315.332 11.018.497 21.106.331.865.332-11.322.498-21.859.33-.016.332-.21.332.017.332.353.497.658.663.24.166-.112.166.016.33-.817.498-1.348.166-.273.166-.465.332-.112.166.353 1.16-1.106.166.063.33.45.664 1.395.166.465.332.45.33-.098.166-.063.498-.578.828-1.54.166-.529.332.192.166.354.828 2.517.166.145.166 5.196.332 13.872.332 1.267.33.225.166-5.036.332-13.6.166-.657.166-.273.166.129.166-.418.496-.289h.498l.332.883.662 1.363.83-.593.165-.306.497-.095.166.112.166.272.332-.449.332-.127.164-.097 1.162-2.518.164-.176.166.064.996 2.678.33.321.166.129.166.352.664.256.332.065.33-.257.166-.032.166-.177.332-.047.166-.048.33-.37.166-.144.498 16.615.664 25.196.33 3.832.332 2.646.332.995.166.352.496 5.421.332 5.26.332 2.181.498-7.12.33-6.415.166-.144.166-.032 1.16-18.235.332 9.735.994 33.406.664 13.151.498 3.817 1.16 3.977.332 1.412.166-.658.828-6.56.166-1.876.166-.417.166-.016.33-.433h.166l.166.16.332.561.166-.465.496-4.65 1.162-9.591.496-6.302.166-3.24.332-1.572.828-7.2 1.162-27.554.33-.384.332.063.166.338.166.096.166-.16.331-1.877.663-7.875 1.326-17.77.166-.705.166.29.332 1.875.166.257.165.032.165-.144.332.737.166 1.043.166.4.498 3.064.33 1.555.166-.175.166.032.332-.61.166-.112.331-.914.166.369.165-.209.332.064.498.417.166-.77.331-.32.331-1.22.166-.096.166.112.166.481.331-.4.166.144.165.273.332-.225.166-.721.498 1.523.165.128.331-.882.166-.112.332-1.171.166-.609.166-.994.331-.674.166.032.165.273.166-.097.166.209.498 2.742 1.16 2.503.166 6.141.331 18.668.166 5.438.166.16.33-.642.167-5.95.332-18.107.165-5.372.166-.497.166-.113.165-.384.332.497.166.594.332.48.165.514.166.817.166.065.165-.289.166-.578.332-.207.332.047.165.24.995 2.727.332.53.165-.097.497 1.22.332.705.166.416.331-2.068.663-3.977.166-1.267.166.048.166.256.166.017.331-.513.497-.097.166.209.166-.145.331-.577.332-.866.166-.481.33-1.315.333-.065.166-.208.165-.434.166-.16.166.16.165.274.498-.177.332.16.331-.897h.331l.332.448.166.273.331 1.203.332-.129.166 6.207.33 18.636.333 10.425.331-.418.166-6.286.332-18.957.33-10.809.333.497.83 2.855.496 2.149.497 1.155.166.192h.166l.165.08.332-.08.332-.481.165-.017.332.192.497 4.78.498 4.956.165 1.363.332-.642.497 8.87.663-4.38.498-13.294.33.272.333 1.107.994 3.737.663 1.427.829-5.758.332-2.693.331-.85.166.512.497 2.983.498 3.352.994 16.76.166 2.229.166.048.165-.112.166-.626.166-1.106.166-1.828.497-12.687.497-15.38.166-3.913.498-.962.994-24.185.166-1.042.497 12.926.497 13.12.664 13.775.497 8.1.663 6.719.498 3.465.165.689.166.272.331 1.075.166-.096.332.032.663 1.813.165.961.332.867.498.047.165.177.166-.064.995 1.78.497 1.764.165.016.166-.144.332-.705.166-1.043.332-1.074.33 2.725.83 8.629.166.16.33-.658.332-1.154.498-.24.332.545.33.866.332.257.332.513.498 1.7.33-.883.498-2.005.332-1.748h.166l.166.129.662 1.813.332.545.166.224.332 1.01.33.53.166-.193.332 1.027.166-1.46.166.417.332 1.588.33 2.486.166.642.166 2.485.166.481.166-.914.166-.37.332.258.496 1.379.332 2.245 1.16 4.828.166.32.166-.256.166-.096.166-.274.166-.593.33-.368.166.032.332.481.498-.353.828-9.382.332-1.908.166 1.074.496 1.684.166-1.572.166-.4.166-.064.166.095.166.273.332 1.139.165 2.79.331 2.133.664 3.24.332.097.165.561.331.353.332-1.172.332-.4.332-1.01.164-.274.332 1.572.83 7.426.33 1.202.664-4.57.166-1.396.166-.095.166-.194.33-.769.332-.257.166.032.332-.673.166.208.33-.32.498-3.785.664-3.705.828 2.069.166.097.332-.226.166.306h.166l.164-.16.166.112.166.24.83 3.4.496 4.33.332 2.293.166-.112.828-7.185.166-1.989.166-.608.166.689.166-.128.166.08.166.4.33 2.262.332.562.166-.177.166-.32.332-.883.166-.112.33-.882.166.016.498.353.166-.16.332-1.86.164.32.166.497.332.545.166.721.332 4.235.662 4.474.332 2.101.498 2.373.166.481.166.226.164.048.332.85.166-.081.166-.289.166-.112.332.305.662-.85.332-1.412.166-1.57.662-10.361.332-3.785.166-1.074.166.32.166.513.166-.145.166.08.164.178.332-.049.332-.256.166-.369.332-.272.496-.963h.166l.332 2.133.663 3.224.165-.128.332-1.043.332-1.186.166-.16.166-.53h.166l.165.08.331.753.166.097.166-.177.332.658.828-1.38.498-13.551.662-23.816.664-1.636.828-6.222.166 1.363.166 2.197.995 19.47.663 8.66.994 6.19 1.161 9.414.166.93.497-.801.166.112.332-1.33.165-.963.331.224.166.45.166-.146.166.274.166.513.497 2.774.497.77.166.465.332.289.166.24.331.995.331.144.166.257.166-1.091.332-3.015.331-1.908.332-2.278.165-.337.166.481.166-.32.166-.786.332-.385.165-.673.331-.386.332-1.49.332-3.272.166-1.716.331-1.588.995-7.698.331-2.02.332-2.76.829-7.634.166-1.363.662-2.437 1.161-2.535.995-1.891.331-.401.497 2.244.166.835.166.256.331.866.166.177.497 1.09.332 1.187.166.417.994 8.981.166.898.663 5.325.166 1.074 1.326 12.446.166.769.166-1.123.165.257.664 3.897.165 1.042.332 5.613.497 4.283.498 3.528.663 3.736.33.562.333-.321.165-.16.332-.69.663.803.83-3.257.33.739.664 6.142.165 1.94.332.112.166-.128.165.065.166-.16.332-.947.165.401.166.721.663 1.428.166.448.332-.416.165.192.166-.224.166-.45 1.16-11.482.332-.24.497-.706.166-.177.166-.015.165.24.166.047.498 1.108.165.384.332.305.166.305.165.128.498 1.234.166.722.663.257.497-.914.497-2.069.83-4.538.165-.048.497 1.876.332 2.164.331 1.268.166.24.166.033.663 2.71.165.224.166-.095.166.673.166.24.829-9.686.331-5.26.332-.53.497.24.497 1.3.166.449.166.048.498-.386.33-1.811.664-5.71.498-2.886.165-.433.166-.209.165-.641.332-1.781.166-.256.166.16.166-.128.165.112.497 1.652.332.29.994 2.805.166.145.166-.016.332-.69.166.257.33.224.498 1.78.166.145.166-.24.332-1.894.33-2.983.664-9.862.498-4.539.33.898.332-.674.332-2.085.166-1.186.497-11.403.663-19.95.332-1.123.332-1.027.33-.641.498-2.326.332 3.128.33 5.18.332 5.565.498 6.527.498 3.993.33 1.203.332.433.166.481.332 1.252.166-.065.166-.16.165.145.165-.049.332.176.332-.448.663-1.509.331-1.186.166-.545.332-.625.166.063.332-.144.165-.385.331.722.166-.112.498-2.518.166-.482.33-.336.166.385.332 1.331.332.722.332-1.428.496-3.737.332-1.042.498 2.229.496 3.224.166.288.498-.528.332-1.428.828-4.314.332.016.332-.37.496 1.67.166-.178.166-.561.332-2.966.332-2.647.33-4.426.332-2.213.166.032.332-.85.166.898.166.128.164-.016.83 1.877.166.175.332 4.524.496.513.332.095.332-4.41.166-.192.33-1.186.166-.193.166.048.332.721.166.433.662 2.647.166.416.332-1.923.166.304.166.08.166.353.166-.032.164.257.332 2.565.166.353.166.561.166-.994.332-.866.33 1.203.332-.818.166.77h.166l.166-.32.332-2.006.33-.448.166-.065.166.353.166.69.166.289.994 3.03.332.69.332-.64.166-.53.166-.802.164-.16.332-.867.166.144.166.017.166.112.166-.177.166-.946.496-3.865.332-1.571.166-.225.166-.049.662 2.55.166-.175.332-.802.332-.193.332-.305.165.08.165.354.166.08.166-.113.166-.577.332-.466.332-1.86.33-.289.166.097.166-.192.166-.353.332.385.496-1.267.166.112.166.289.166-.08.332-.61h.662l.166.304.664 2.567.497.32.165-.16.166-.032.332.433.332-.209.331.08.663-2.533.498-1.171.166.144.331-1.138.331-.37.166-.048.166.162.166 3.287.166 1.218.166.401.33.24.332.915.166-2.758.166.064.332 1.01.165.353.331.129.332.192.498-1.893.331-.673.331-.593.498 1.427.166.225.166.047.166-.063.165-.514.166-.112.497-1.844.663-4.747.331-.706.166.112.166.256.332.947.166.609.331-.881.166.93.663 7.841.498 7.186.331 2.229.331 1.828.332.722.663 6.816 1.823 24.41.332 1.363.332.689.331.802.166.738.497 3.768.498 3.032.165.143.497-1.266.166-.353.332-2.92.332-6.51.662-23.896.498-10.81.331-1.282.166-.481.663-4.363.332 1.652.497 3.56.663 11.58.332 3.801.166 1.427.662 8.564.332 2.679.166 1.138.331.289.332-.032.166.256.497-2.485.663-5.919.829-10.087.332-3.32.331-.85.331-2.31.498-4.538.331-.995.332-1.523.166-.385.165.048.166-.416.995-4.347.829-4.94.166-.128.165-.352.332 1.026.497 1.283.166-.129.663-1.186.663-3.384.332-3.368.663-4.811.497-1.428.331-1.38.332-2.052.166-.32.166.304.33 1.203.333 1.636.165.24.166-.45.498-2.308.165-1.604.166-.256.166.24.166-.209.165.017.332.642.166.865.33-.305.333 1.508.663 3.849.497 2.807.663 1.843.332 2.054.166.817.33.418.167.705.166 2.759.663-5.39.166-.962.165-1.475.166-4.233.166-.466.497-1.972.498-.257.165.417.332 1.46.331.143.166-.352.166.225.166.368.497.24.166.146.165.721.166-.113.166-.705.166.481.166-.096.497.32.165.257.166.625h.166l.166.177.332-.08.497-1.459.165.127.166-.464.332-.209.332.24.165-.111.166-1.219.331-.513.332-.466.166-.32.166.962.33.593.332.273.332-.482.166-1.298.332-.257.33.08.167.354.165 1.235.166.416.332.224.332-.513.165-.577.166-1.412.165-.16.332-.914.332-.16.166.145.33.095.332.61.332.128.166-.112.166.048.166-.626.33-.577.332.096.498 1.235.166.29.662 1.844.498 8.211.166 2.694.332 1.331.165.273.331-3.512.332-4.315.166-.657.166-.24.166 2.485.33 11.259.332 6.254.332-.802.166-2.518.332-12.06.33-6.495.332.786.332-.37.166.433.166-.16.33.642.167.272.165.08.166.354.166.08.166.657.166-.048.332.112.496.561.166-.304.166.273.332.208.166-.096.166.064.165-.128.165.866.498 1.187.332 1.25.166 1.187.828-3.993.498-3.512.33.898.166.369.664 3.111.166.016.497 1.154.331 1.075.166.209.166-.08.332-.93.332-1.589.165-.112.165-.32.166-.08.332.047 2.156 47.921.33 3.175.498 4.154.332 2.47.166 1.908.165-.24.331-4.283.498-13.358.332-6.993.33-6.784.332-1.427.166-.53.664-4.153.166.801.496 4.01.332 11.21.498 16.375.496 8.836.664 8.533.498 3.206.33 1.765.166.225.166-.065.332-.593.166-.962.662-5.822.498-1.748.332-.481.166-.048.164.208.498-.577h.166l.166-.48.498-6.673.828-10.36.166-.85.166-.096.166-.37.33-2.678.332-2.357.664-3.977.166-.433.33-1.78 1.326-15.076.332-.625.332-1.716 1.326-15.652.994-6.384.498-2.902.332-.498.332-2.293.165-.337.165-.722.332-.4.166-.096.166.464.166.224.497 2.07.663 3.864.166.017.166.369.166.962.33-.369.332-1.893.166-.561.166.353.166-.706.332-.609.165.626.331.32.166-.77.166.625.664.996.164.015.166-.497.166-1.122.332-.658h.166l.332.24.331 1.508.331.85.166-.545.332.625.332-.578.33.194.166.625.332-.69.332.257.331-.77.166-.049.165.08.332.77.498.258.166 4.41.331 13.84.331 9.078.332.93.166-3.898.332-13.198.33-8.116.83-1.86.331-.93.331.785h.166l.166.097.498.834.331-.481.331.352.332.498.166.112.332.513.331.625.166-.032.331.145.332.657.166-.032.166-.224.165.08.332-.353.331-.385.166.273.498 2.229.165.722.331-.08.166-.225.166-.48.332-.466.166-.4.331.015.497.85.166.481.166.193.332.08.331-1.123.331-1.812.332-1.716.663-2.919.166-1.106.166-.386.497 1.027.332.915.331 1.587.497.625.332-.16.166-.37.331-.384.166-.24.331.176.166-.176.498 1.619.166.08.165-.256.332.096.165-.448.166-.754h.332l.83 3.913.164.08.166.24.663-1.683.332-.707.33-.464.167-.193.498-1.459.331-.064.497 10.151.498 11.162.994 16.92.663 9.542.995 9.014.995 14.37.165 1.763.663 3.352.332.546.166.048.166.145.33.063 1.327 4.716.332 1.49.497-1.298.166-1.218.166-2.407.497-17.433.663-26.076.332-.819 1.16-7.04.332 8.34.828 25.932.332 5.373.497 4.17h.332l.663-3.432.497-3.56.497-2.903.664-7.49.497-4.491.166-.24.165-.08.332-1.075.166-.77.33-2.614 1.162-16.022.166-1.186.165-.256.332-.819.331-2.149.332-.93.497-3.576.331-1.733.664-5.9.828-4.588.166-.337.664-3.287.165.112.332-.882.663 2.005.166-.947.165-.481.332-1.764.165-.69.332-3.464.166-.224.166-.385.497.513.166 1.828.165.85.166-.095.664.785.165-.513.166-.128.166.914.331.432.995 1.043.165.37.332-.77.332-1.364.332-2.662.165-.963.331-.112.166.53.166.032.166.513.332-.513.33.095.167-.368.165.24.498 1.684.332.594.165-.337.331.785.332 1.54.332.898.166 1.172.166.24.165.048.331 1.25.332-.192.332-.513.166.016.33-1.026.332-.032.332 8.452.498 19.694.165.401.166.129.331-7.042.498-18.876.166.064.166.337.165-.176.166.016.331 1.427.166.577.332-.545.332-.898.496-3.271.332.032.166.61.332-.29.166.08.165.305.331-.786.166-.77.332-.577.332-.978.662.721.332 1.524.332.978.166.337.165.032.165.177.498-1.54.664-.866.165-.481.165.065.166.4.332.048.332-.433.166-.176.33-.626.498-.24.166.128.664.946.33.209.332.449.498-.418.166-.368.166.241.662-1.7.166-.176.332.08.33.722.332 2.1.332.385.166-.016.498-1.01.164-.834.332-.45.664 1.026.332 1.155.164.481.166.033.332.609.166-.096.166.241.498.272.164.225.498 1.443.332.24.166.273.166-.016.166-.112.164.225.166-.37.332.353.332 8.292.166 4.426.166.433.164.144.332-.93.332-8.788.166-4.748.166-1.074.166-.497.496.096.498 1.09.166.466.662.497.166.29.166.48.332.385.166.256.166.481.166-.08.165.016.165-.497.166-.032.332-.834.332 6.575.828 19.213.332 3.289.166 1.074.662 7.858.166 2.631.664 18.138.497 9.285.165-.047.332-.77.166-.802.332-5.998.828-28.692.498-1.427.166-.497.828-5.95.332 5.533.828 23.703.664 10.73.166 1.3.332 1.635.33 2.357.332 1.283.166.401.332-.384.497-3.785.165-.77.166-.129.498-2.405.166-.192.496-2.246.498.882.166.032.166.53.332-3.914.662-10.087.166-2.903.498-1.78.166-.402.165-.625.497-3.56.995-10.216.331-1.845.332-.336.332-.818.331-2.133.331-3.624.83-9.174.331-.834.165.047.166-.159.166-.674.166-.128.166.032.166-.145.331-1.523.166-.433.165-.176.332-2.39.332-2.822.828-4.956.166.031.332-.384.166-.385.166.433.165.064.166-.737.166-1.444.331.015.332-2.533v0"/></g><path fill="none" stroke="#000" stroke-linecap="square" stroke-miterlimit="10" stroke-width=".8" d="M39.65 48.788v205.87m810.12-205.87v205.87M39.65 48.788h810.12M39.65 254.658h810.12"/><path fill="none" stroke="#000" stroke-linecap="round" stroke-linejoin="round" stroke-miterlimit="10" d="M40.985 23.054h60.695m-4 2 4-2-4-2"/><text font-family="LMSans10" font-size="9.963" font-weight="400" style="-inkscape-font-specification:LMSans10-Regular" transform="matrix(1 0 0 -1 56.944 9.959)"><tspan x="0 6.1548944 11.302569 19.777754" y="0">Run1</tspan></text><path fill="none" stroke="#000" stroke-linecap="round" stroke-linejoin="round" stroke-miterlimit="10" d="M107.916 23.054h114.776m-110.776-2-4 2 4 2m106.776 0 4-2-4-2"/><text font-family="LMSans10" font-size="9.963" font-weight="400" style="-inkscape-font-specification:LMSans10-Regular" transform="matrix(1 0 0 -1 157.345 9.959)"><tspan x="0 5.3967404 10.931961" y="0">LS1</tspan></text><path fill="none" stroke="#000" stroke-linecap="round" stroke-linejoin="round" stroke-miterlimit="10" d="M228.93 23.054h235.954m-231.954-2-4 2 4 2m227.954 0 4-2-4-2"/><text font-family="LMSans10" font-size="9.963" font-weight="400" style="-inkscape-font-specification:LMSans10-Regular" transform="matrix(1 0 0 -1 334.606 9.959)"><tspan x="0 6.1548944 11.302569 19.777754" y="0">Run2</tspan></text><path fill="none" stroke="#000" stroke-linecap="round" stroke-linejoin="round" stroke-miterlimit="10" d="M471.117 23.054h175.451m-171.45-2-4 2 4 2m167.45 0 4-2-4-2"/><text font-family="LMSans10" font-size="9.963" font-weight="400" style="-inkscape-font-specification:LMSans10-Regular" transform="matrix(1 0 0 -1 550.714 9.959)"><tspan x="0 5.3967404 10.931961" y="0">LS2</tspan></text><path fill="none" stroke="#000" stroke-linecap="round" stroke-linejoin="round" stroke-miterlimit="10" d="M652.805 23.054h196.457m-192.457-2-4 2 4 2"/><text font-family="LMSans10" font-size="9.963" font-weight="400" style="-inkscape-font-specification:LMSans10-Regular" transform="matrix(1 0 0 -1 758.311 9.959)"><tspan x="0 6.1548944 11.302569 19.767792" y="0">Run3</tspan></text><text font-family="LMSans12" font-size="11.955" font-weight="400" style="-inkscape-font-specification:LMSans12-Regular" transform="matrix(1 0 0 -1 368.711 260.654)"><tspan x="0 8.4188519 14.022254 16.775537 19.52882 28.792904 34.396305 39.599209 43.826569 46.579849 51.934586 61.034882 64.217354 74.373299 80.837479 88.249702 95.728874 107.60995 115.02217 120.22507 124.45244 127.20572 132.56046 135.31374 139.54109 142.29437 147.49728" y="0">DailyactiveIMPACTActivities</tspan></text><path fill="#fff" fill-opacity=".8" stroke="#ccc" stroke-miterlimit="10" stroke-opacity=".8" d="M46.65 173.268h164.424q2 0 2 2v72.39q0 2-2 2H46.65q-2 0-2-2v-72.39q0-2 2-2z"/><path fill="#8eb5e0" stroke="#000" stroke-miterlimit="10" stroke-width=".5" d="M48.65 238.06h20v7h-20Z"/><text font-family="LMSans10" font-size="9.963" font-weight="400" style="-inkscape-font-specification:LMSans10-Regular" transform="matrix(1 0 0 -1 76.649 238.056)"><tspan x="0 5.5352206 10.682896 15.830571 19.428066 24.575741 29.27809 36.085533 41.233208 46.214508 52.168159 56.596535 61.02491 66.172585 71.320259 73.700325 78.1287 82.906761 88.614342 92.433006 96.030495 101.0118" y="0">Shutdown/Technicalstop</tspan></text><path fill="#cdfece" stroke="#000" stroke-miterlimit="10" stroke-width=".5" d="M48.65 223.381h20v7h-20Z"/><text font-family="LMSans10" font-size="9.963" font-weight="400" style="-inkscape-font-specification:LMSans10-Regular" transform="matrix(1 0 0 -1 76.649 223.379)"><tspan x="0 6.3651052 9.7693253 14.750626 18.34812 23.32942 28.477097 35.613308 40.760983 45.908657 50.502411 54.321075 56.701141 61.129517" y="0">Protonsphysics</tspan></text><path fill="#9cba5f" stroke="#000" stroke-miterlimit="10" stroke-width=".5" d="M48.65 208.703h20v7h-20Z"/><text font-family="LMSans10" font-size="9.963" font-weight="400" style="-inkscape-font-specification:LMSans10-Regular" transform="matrix(1 0 0 -1 76.649 208.701)"><tspan x="0 2.7676103 7.7489104 12.896585" y="0">Ions</tspan></text><path fill="#fbd5b6" stroke="#000" stroke-miterlimit="10" stroke-width=".5" d="M48.65 194.027h20v6.999h-20Z"/><text font-family="LMSans10" font-size="9.963" font-weight="400" style="-inkscape-font-specification:LMSans10-Regular" transform="matrix(1 0 0 -1 76.649 194.024)"><tspan x="0 6.3651052 11.346405 19.26169 27.176977 29.557041 33.375706 37.19437 39.574436 44.555737 49.703411 52.083477 57.231152 65.529999 72.33744 74.717506 78.315002 86.790184 92.206848 96.635231 101.42326" y="0">Commissioningwithbeam</tspan></text><path fill="#7ad7fd" stroke="#000" stroke-miterlimit="10" stroke-width=".5" d="M48.65 179.349h20v7h-20Z"/><text font-family="LMSans10" font-size="9.963" font-weight="400" style="-inkscape-font-specification:LMSans10-Regular" transform="matrix(1 0 0 -1 76.649 179.346)"><tspan x="0 7.0565095 11.565582 14.969803 20.117477 26.645969 31.165005 34.569225 42.315147 46.743523 51.724823 59.64011 67.555397 69.935463 73.754128 77.572792 79.95285 84.934151 90.081833 92.461891 97.609573" y="0">Hardwarecommissioning</tspan></text></g></svg>